<svg id="Layer_1" xmlns="http://www.w3.org/2000/svg" viewBox="0 0 2560 2560">
  <defs>
    <style>.cls-1{fill:none;}.cls-2{fill:#4a4a4a;}.cls-3{fill:#085767;}.cls-4{fill:#00aed0;}.cls-5{fill:#0187a1;}</style>
  </defs>
  <path class="cls-2" d="m1845.43,860.34v982.53c-7.91,2.06-1103.16,3-1127.16.99v-983.52h1127.16Z"/>
  <path class="cls-2" d="m718.01,844.97v-127.85c2.14-.3,4.32-.7,6.51-.87,1.99-.15,4-.03,6-.03,366.92,0,733.84,0,1100.77-.01,15.74,0,14.49-.92,14.48,14.67-.02,33.99,0,67.99,0,101.98,0,3.65,0,7.3,0,10.81-7.74,2.54-1096.31,3.75-1127.74,1.3Zm41.77-63.4c-2.09,20.28,18.24,34.49,31.98,34.52,14.34.04,34.44-14.5,34.32-33.4-.12-20.02-16.76-34.37-33.69-34.64-19.32-.3-34.67,17.26-32.61,33.51Zm125.86,32.78c19.87,1.53,34.56-15.93,33.87-32.62-.78-18.91-12.59-31.82-33.91-33.49-15.96-1.25-33.48,14.01-33.13,32.75.36,19.47,14.5,34.67,33.17,33.35Zm94.73-.23c16.5,2.58,34.03-14.49,33.65-31.69-.4-18.01-12.13-33.69-34.85-34.31-16.95-.46-30.41,15.05-31.52,33.01-1.02,16.51,13.85,35.51,32.73,32.99Z"/>
  <path class="cls-4" d="m759.78,781.58c-2.06-16.25,13.29-33.81,32.61-33.51,16.93.26,33.57,14.62,33.69,34.64.11,18.9-19.98,33.43-34.32,33.4-13.73-.03-34.06-14.24-31.98-34.52Z"/>
  <path class="cls-5" d="m885.64,814.36c-18.67,1.32-32.81-13.89-33.17-33.35-.34-18.74,17.18-34,33.13-32.75,21.32,1.66,33.13,14.58,33.91,33.49.69,16.69-14,34.15-33.87,32.62Z"/>
  <path class="cls-3" d="m980.37,814.13c-18.88,2.52-33.75-16.48-32.73-32.99,1.11-17.96,14.57-33.47,31.52-33.01,22.73.62,34.45,16.3,34.85,34.31.39,17.21-17.14,34.27-33.65,31.69Z"/>
</svg>
