<svg xmlns="http://www.w3.org/2000/svg" width="228.418" height="64" viewBox="0 0 228.418 64">
  <g id="iOXZt1.tif" transform="translate(-629.264 -1788.368)">
    <g id="Group_32" data-name="Group 32" transform="translate(629.264 1788.368)">
      <path id="Path_11" data-name="Path 11" d="M933.486,1858.586a1.562,1.562,0,0,0-.089.885c-.007,4.825-.018,9.65.011,14.475,0,.687-.2.869-.871.861-2.223-.027-2.223,0-2.223-2.212,0-6,.011-11.995-.015-17.992,0-.7.175-.857.893-.94a4.03,4.03,0,0,1,4.066,1.925c3.1,4.146,6.411,8.136,9.625,12.2.522.659.973,1.375,1.589,2.253v-1.012c0-4.825.013-9.65-.015-14.475,0-.665.151-.883.849-.873,2.171.032,2.172,0,2.172,2.164,0,6-.01,11.995.014,17.992,0,.715-.167.909-.931.994a3.481,3.481,0,0,1-3.445-1.681c-3.742-4.859-7.608-9.623-11.431-14.421A.976.976,0,0,0,933.486,1858.586Z" transform="translate(-831.577 -1832.224)" fill="#fff"/>
      <path id="Path_12" data-name="Path 12" d="M1291.614,1874.921c-1.965,0-3.931-.013-5.9.008-.525.006-.781-.088-.779-.7q.03-9.852,0-19.7c0-.523.14-.706.689-.7q5.854.031,11.709,0c.51,0,.705.113.711.671.019,2.109.041,2.108-2.055,2.109-2.32,0-4.64.012-6.96-.009-.511,0-.726.121-.715.677q.048,2.37,0,4.741c-.011.545.177.689.7.683,2.211-.025,4.422.008,6.632-.023.577-.008.734.168.734.736,0,2.057.022,2.057-2.02,2.057-1.774,0-3.549.023-5.322-.013-.585-.012-.737.183-.727.742q.047,2.615,0,5.232c-.01.571.173.743.744.738,2.811-.026,5.622.006,8.434-.025.631-.007.843.157.837.815-.02,1.969.009,1.969-1.972,1.969Z" transform="translate(-1069.918 -1832.354)" fill="#fff"/>
      <path id="Path_13" data-name="Path 13" d="M1209.825,1859.645c-.93,2.38-1.791,4.581-2.65,6.782-1.019,2.61-2.049,5.216-3.041,7.837-.182.48-.4.7-.935.664a15.149,15.149,0,0,0-2.128,0c-.758.059-.717-.225-.481-.781,1.581-3.733,3.14-7.475,4.706-11.214,1.177-2.811,2.378-5.612,3.509-8.441.254-.636.637-.681,1.192-.68s.92.044,1.184.674q4.117,9.824,8.323,19.61c.3.7.212.892-.548.831a11.823,11.823,0,0,0-1.964,0c-.6.053-.853-.21-1.068-.732-1.852-4.475-3.73-8.939-5.6-13.406C1210.188,1860.466,1210.043,1860.144,1209.825,1859.645Z" transform="translate(-1013.128 -1832.35)" fill="#fff"/>
      <path id="Path_14" data-name="Path 14" d="M1022.174,1868.85c1.006-2.581,2-5.134,3-7.688.878-2.257,1.77-4.508,2.611-6.777a.864.864,0,0,1,1.015-.672,14.706,14.706,0,0,0,2.046,0c.689-.049.771.141.508.761-1.661,3.905-3.289,7.825-4.929,11.739-1.1,2.634-2.233,5.259-3.3,7.909a1.026,1.026,0,0,1-1.172.711c-.562-.007-.933-.07-1.192-.688q-4.124-9.82-8.321-19.609c-.265-.62-.244-.875.52-.822.895.063,1.95-.234,2.648.148s.8,1.539,1.146,2.36c1.661,3.935,3.3,7.881,4.944,11.821A1.457,1.457,0,0,0,1022.174,1868.85Z" transform="translate(-886.676 -1832.251)" fill="#fff"/>
      <path id="Path_15" data-name="Path 15" d="M1141.19,1865.7c0-2.779-.017-5.557.013-8.335.006-.6-.152-.8-.774-.786-1.963.038-3.929-.015-5.892.03-.7.016-.872-.22-.864-.883.022-1.9,0-1.9,1.859-1.9,5.21,0,10.421.013,15.631-.016.689,0,.87.2.859.868-.032,1.918,0,1.918-1.929,1.918-1.582,0-3.165.034-4.746-.015-.692-.022-.868.2-.865.874.025,5.475,0,10.95.031,16.425,0,.79-.147,1.175-1.023,1.049-.72-.1-1.653.3-2.132-.16s-.152-1.4-.159-2.12C1141.175,1870.326,1141.19,1868.011,1141.19,1865.7Z" transform="translate(-968.257 -1832.343)" fill="#fff"/>
      <path id="Path_16" data-name="Path 16" d="M883.66,1864.4c0-3.271.017-6.541-.014-9.811-.006-.622.179-.816.784-.765a10.242,10.242,0,0,0,1.8,0c.648-.061.763.213.758.794-.026,3-.012,6-.012,8.993,0,3.516-.014,7.032.014,10.547,0,.618-.178.826-.788.775a9.07,9.07,0,0,0-1.717,0c-.726.077-.844-.244-.838-.887C883.676,1870.829,883.66,1867.613,883.66,1864.4Z" transform="translate(-800.224 -1832.35)" fill="#fff"/>
      <path id="Path_17" data-name="Path 17" d="M1100.676,1864.311c0,3.24-.018,6.48.014,9.719.007.645-.173.873-.821.815a11.453,11.453,0,0,0-1.8,0c-.574.04-.751-.176-.744-.741.026-2.205.01-4.41.01-6.616,0-4.275.012-8.549-.014-12.824,0-.669.107-1.013.881-.93s1.828-.243,2.29.154c.534.46.166,1.533.173,2.337C1100.69,1858.92,1100.676,1861.615,1100.676,1864.311Z" transform="translate(-943.828 -1832.265)" fill="#fff"/>
      <path id="Path_18" data-name="Path 18" d="M648.584,1849.654c.1.439-.083.642-.584.7a17.716,17.716,0,0,0-11.248,6.251,20.849,20.849,0,0,0-4.868,9.5.976.976,0,0,1-1.636.53c-.242-.21-.1-.456-.06-.685a21.61,21.61,0,0,1,4.142-9.061,20.316,20.316,0,0,1,11.4-7.892,16.428,16.428,0,0,1,1.77-.311C648.505,1848.543,648.552,1848.591,648.584,1849.654Z" transform="translate(-629.832 -1828.865)" fill="#fff"/>
      <path id="Path_19" data-name="Path 19" d="M660.87,1815.952c4.384.132,8.711,1.174,12.347,4.268.339.289.76.514.235,1.011-.387.365-.561.963-1.319.325a16.988,16.988,0,0,0-9.841-3.79,21.087,21.087,0,0,0-12.631,2.892c-.584.34-.871.281-1.215-.307-.356-.609-.2-.893.363-1.216A24.584,24.584,0,0,1,660.87,1815.952Z" transform="translate(-642.028 -1806.906)" fill="#fff"/>
      <path id="Path_20" data-name="Path 20" d="M711,1945.3a22.755,22.755,0,0,1-6.61-2.031,21.8,21.8,0,0,1-10.578-10.394,16.478,16.478,0,0,1-1.224-3.888c-.1-.516.025-.8.557-.846.456-.043.932-.3,1.13.474,2.179,8.546,8.077,13.031,16.372,14.877.213.047.427.094.643.12.469.057.777.208.649.782C711.828,1944.911,711.8,1945.478,711,1945.3Z" transform="translate(-671.804 -1882.25)" fill="#fff"/>
      <path id="Path_21" data-name="Path 21" d="M683.193,1920.122a18.952,18.952,0,0,0,5.512,12.822,20.442,20.442,0,0,0,6.715,4.722c.679.3.721.6.448,1.235-.314.736-.685.559-1.2.309a22.619,22.619,0,0,1-12.827-15.42,13.109,13.109,0,0,1-.317-5.19c.061-.405.07-.792.649-.668.472.1,1.109-.036,1.032.8C683.159,1919.193,683.193,1919.659,683.193,1920.122Z" transform="translate(-664.295 -1875.427)" fill="#fff"/>
      <path id="Path_22" data-name="Path 22" d="M725.091,1946.793c-6.421-.193-12.056-2.259-16.56-6.992a16.335,16.335,0,0,1-2.711-3.969c-.239-.475-.174-.759.328-.945.431-.159.815-.56,1.205.156,3.438,6.3,9.025,9.183,15.945,9.952a18.942,18.942,0,0,0,4.567-.093c.667-.087.726.279.787.736.066.492.087.913-.613.979A27.223,27.223,0,0,1,725.091,1946.793Z" transform="translate(-680.624 -1886.665)" fill="#fff"/>
      <path id="Path_23" data-name="Path 23" d="M690.815,1794.537c7.119.55,13.107,3.281,17.5,9.064a18.433,18.433,0,0,1,2.369,4.554c.215.551.106.859-.491,1.028-.5.143-.853.3-1.13-.407-2.852-7.235-8.475-10.932-15.9-12.273a20.231,20.231,0,0,0-2.927-.271c-.717-.024-.844-.369-.835-.987.01-.682.407-.736.919-.709C690.487,1794.545,690.651,1794.537,690.815,1794.537Z" transform="translate(-669.682 -1792.51)" fill="#fff"/>
      <path id="Path_24" data-name="Path 24" d="M772.483,1812.752a19.593,19.593,0,0,1-2.086,8.724c-.283.538-.533.72-1.131.4-.571-.309-.705-.564-.4-1.195,2.964-6.177,2.26-12.21-.825-18.112a16.381,16.381,0,0,0-2.966-4.09c-.6-.6-.148-.853.2-1.241.439-.5.745-.333,1.117.09a23.65,23.65,0,0,1,5.777,12.246C772.342,1810.75,772.4,1811.949,772.483,1812.752Z" transform="translate(-720.337 -1794.12)" fill="#fff"/>
      <path id="Path_25" data-name="Path 25" d="M637.84,1881.042c.481-7.573,3.2-13.956,9.672-18.38a15.152,15.152,0,0,1,2.763-1.412c.637-.266.743.162.909.575s.357.741-.27,1.031c-7.124,3.291-10.394,9.191-11.259,16.7a11.646,11.646,0,0,0,0,3.013c.06.42-.021.777-.573.761-.469-.014-1.052.172-1.128-.576C637.892,1882.185,637.875,1881.613,637.84,1881.042Z" transform="translate(-635.028 -1837.294)" fill="#fff"/>
      <path id="Path_26" data-name="Path 26" d="M752.59,1807.828a22.049,22.049,0,0,1-.453,3.811c-.082.471-.288.69-.78.512-.418-.151-1.055-.032-.9-.837,1.152-5.914-.562-11.087-4.133-15.765a21.26,21.26,0,0,0-5.348-4.763.975.975,0,0,1,.092-1.711c.313-.157.519.1.733.234a23.121,23.121,0,0,1,5.611,4.959A22.033,22.033,0,0,1,752.59,1807.828Z" transform="translate(-704.031 -1788.811)" fill="#fff"/>
      <path id="Path_27" data-name="Path 27" d="M730.794,1807.889c-.52.066-.854-.057-.89-.711a17.69,17.69,0,0,0-5.25-11.321,20.975,20.975,0,0,0-9.395-5.723c-.707-.215-.817-.546-.6-1.2.18-.531.41-.674.952-.5,7.027,2.3,12.172,6.665,14.951,13.612a19.46,19.46,0,0,1,1.1,5.1C731.741,1807.843,731.339,1807.924,730.794,1807.889Z" transform="translate(-686.589 -1788.368)" fill="#fff"/>
      <path id="Path_28" data-name="Path 28" d="M754.979,1916.254a13.916,13.916,0,0,1-5.072-.7c-.577-.189-.5-.547-.337-.959.149-.377.123-.876.827-.7,7.833,1.96,14.23-.66,19.676-6.226a15.226,15.226,0,0,0,1.644-2.028c.456-.663.752-.178,1.113.049.4.255.666.467.263,1a23.555,23.555,0,0,1-15.02,9.374,10.6,10.6,0,0,1-1.378.174C756.125,1916.277,755.552,1916.254,754.979,1916.254Z" transform="translate(-710.038 -1866.96)" fill="#fff"/>
      <path id="Path_29" data-name="Path 29" d="M735.6,1945.265a21.14,21.14,0,0,1-12.543-3.828,12.276,12.276,0,0,1-2.369-2.124c-.281-.343-.907-.644-.206-1.245.574-.491.939-.517,1.459.074a13.4,13.4,0,0,0,3.862,2.99,20.857,20.857,0,0,0,17.494,1.061,3.649,3.649,0,0,0,.607-.243c.611-.355.944-.216,1.224.462.29.7-.029.911-.585,1.131A23.441,23.441,0,0,1,735.6,1945.265Z" transform="translate(-690.355 -1888.727)" fill="#fff"/>
      <path id="Path_30" data-name="Path 30" d="M660.184,1829c.058.891-.665,1.426-1.37,1.1a17.049,17.049,0,0,0-10.888-.917,20.478,20.478,0,0,0-11.015,6.194c-.495.528-.764.338-1.184-.047-.462-.423-.5-.723-.038-1.19a23.557,23.557,0,0,1,14.59-7.01,17.024,17.024,0,0,1,9.329,1.465C659.84,1828.706,660.151,1828.738,660.184,1829Z" transform="translate(-633.36 -1814.339)" fill="#fff"/>
      <path id="Path_31" data-name="Path 31" d="M787.731,1836.357c-.235,5.989-2.114,11.533-6.7,15.952a19.1,19.1,0,0,1-3.093,2.276c-.548.348-.72.026-.9-.371-.175-.377-.638-.688.048-1.12,5.638-3.549,8.243-8.864,8.865-15.321a19.241,19.241,0,0,0-.329-5.608c-.137-.693.036-.955.746-1.084s.835.156.936.736A31.549,31.549,0,0,1,787.731,1836.357Z" transform="translate(-728.36 -1817.053)" fill="#fff"/>
      <path id="Path_32" data-name="Path 32" d="M785.4,1822.045c-.132,4.8-1.155,9-3.925,12.643-.33.434-.69.844-1.05,1.253-.739.84-.856.824-1.608-.031-.244-.277-.273-.461-.018-.757,5.914-6.882,6.166-14.44,2.659-22.436-.356-.811-.036-1.378.862-1.5.35-.045.411.214.513.419a23.006,23.006,0,0,1,2.405,8.353A14.446,14.446,0,0,1,785.4,1822.045Z" transform="translate(-729.641 -1803.723)" fill="#fff"/>
      <path id="Path_33" data-name="Path 33" d="M673.208,1804.965c5.326.169,10.28,1.555,14.477,5.1a20.032,20.032,0,0,1,2.994,3.345c.366.486.191.779-.267,1.042-.389.223-.7.612-1.137-.017-3.059-4.384-7.431-6.585-12.581-7.5a20.9,20.9,0,0,0-8.842.421.95.95,0,0,1-1.235-1.181c.061-.366.367-.361.618-.426A27.207,27.207,0,0,1,673.208,1804.965Z" transform="translate(-654.353 -1799.522)" fill="#fff"/>
      <path id="Path_34" data-name="Path 34" d="M651.623,1838.578c0,.978-.2,1.168-1.118,1.064-5.785-.654-10.644,1.415-14.938,5.1a20.087,20.087,0,0,0-4.617,5.882c-.262.492-.5.712-1.068.375-.508-.3-.832-.515-.45-1.178,3.872-6.721,9.536-10.862,17.292-11.949a14.929,14.929,0,0,1,4.323.139C651.4,1838.064,651.714,1838.141,651.623,1838.578Z" transform="translate(-629.264 -1821.568)" fill="#fff"/>
      <path id="Path_35" data-name="Path 35" d="M670.925,1911.742a15.822,15.822,0,0,1,.96-5.928c.229-.669.516-.813,1.2-.559.657.245.623.538.435,1.1-1.971,5.854-.766,11.275,2.342,16.406a19.062,19.062,0,0,0,4.48,5.055c.748.595.153.883-.112,1.3-.312.49-.589.378-.976.05a23.456,23.456,0,0,1-8.1-14,13.555,13.555,0,0,1-.22-1.618C670.9,1912.942,670.925,1912.341,670.925,1911.742Z" transform="translate(-657.253 -1866.844)" fill="#fff"/>
      <path id="Path_36" data-name="Path 36" d="M763.192,1895.746a4.883,4.883,0,0,0-.491,0c-.665.068-.909-.2-.889-.886s.247-.827.929-.827a17.315,17.315,0,0,0,10.284-3.5,21.18,21.18,0,0,0,7.643-9.982c.227-.608.459-.8,1.124-.538s.712.568.467,1.167a23.164,23.164,0,0,1-13.543,13.517A16.487,16.487,0,0,1,763.192,1895.746Z" transform="translate(-718.343 -1849.88)" fill="#fff"/>
      <path id="Path_37" data-name="Path 37" d="M787.177,1855.278c-1,7.876-4.474,14.19-11.583,18.206a18.688,18.688,0,0,1-3.582,1.379c-.628.2-.751-.23-.846-.68-.087-.409-.3-.776.4-.984,6.814-2.04,10.809-6.846,13-13.373a18.338,18.338,0,0,0,.871-4.647c.037-.563.3-.786.854-.656C786.7,1854.62,787.318,1854.481,787.177,1855.278Z" transform="translate(-724.563 -1832.804)" fill="#fff"/>
      <path id="Path_38" data-name="Path 38" d="M648.723,1892.966c.041-6.214,1.486-10.9,4.794-14.961a18.788,18.788,0,0,1,2.614-2.459c.326-.273.588-.249.791.125s.834.627.3,1.156c-.309.305-.679.548-1,.845a18.69,18.69,0,0,0-5.788,12.7,19.371,19.371,0,0,0,1.139,8.594c.267.692-.111.83-.623,1.02-.567.21-.823.07-1.014-.507A21.063,21.063,0,0,1,648.723,1892.966Z" transform="translate(-642.338 -1846.834)" fill="#fff"/>
      <path id="Path_39" data-name="Path 39" d="M663.753,1890.3c.72.051,1.25.932.917,1.414-3.755,5.447-3.976,11.314-2.044,17.419a18.06,18.06,0,0,0,2.759,5.356c.517.695-.167.8-.484,1.094-.35.324-.622.319-.914-.123-4.179-6.342-5.355-13.129-3.018-20.421a14.891,14.891,0,0,1,2.313-4.3C663.422,1890.549,663.525,1890.295,663.753,1890.3Z" transform="translate(-649.775 -1856.873)" fill="#fff"/>
      <path id="Path_40" data-name="Path 40" d="M746.477,1936.139a19.371,19.371,0,0,1-10.674-2.681c-.623-.384-.558-.687-.226-1.221s.565-.6,1.131-.252a17.894,17.894,0,0,0,13.01,2.117,20.482,20.482,0,0,0,9.356-4.26c.528-.424.823-.516,1.288.091.446.582.277.859-.221,1.236A23.735,23.735,0,0,1,746.477,1936.139Z" transform="translate(-700.546 -1883.217)" fill="#fff"/>
    </g>
  </g>
</svg>
