<svg version="1.1" id="Layer_1" xmlns="http://www.w3.org/2000/svg" xmlns:xlink="http://www.w3.org/1999/xlink" x="0px" y="0px"
	 width="100%" viewBox="0 0 2559 853" enable-background="new 0 0 2559 853" xml:space="preserve">
<!-- <path fill="#000000" opacity="1.000000" stroke="none" 
	d="
M1673.000000,854.000000 
	C1115.333374,854.000000 558.166809,854.000000 1.000149,854.000000 
	C1.000100,569.666748 1.000100,285.333527 1.000050,1.000226 
	C853.999817,1.000151 1706.999634,1.000151 2559.999512,1.000075 
	C2559.999756,285.333099 2559.999756,569.666199 2560.000000,853.999634 
	C2264.500000,854.000000 1969.000000,854.000000 1673.000000,854.000000 
M624.011719,434.500000 
	C624.011719,472.597534 624.011719,510.695068 624.011719,548.740356 
	C1061.960938,548.740356 1499.364014,548.740356 1936.719238,548.740356 
	C1936.719238,421.055420 1936.719238,293.649689 1936.719238,166.287064 
	C1499.036621,166.287064 1061.636230,166.287064 624.011719,166.287064 
	C624.011719,255.548248 624.011719,344.524109 624.011719,434.500000 
z"/> -->
<path fill="#F5F5F5" opacity="1.000000" stroke="none" 
	d="
M624.011719,434.000000 
	C624.011719,344.524109 624.011719,255.548248 624.011719,166.287064 
	C1061.636230,166.287064 1499.036621,166.287064 1936.719238,166.287064 
	C1936.719238,293.649689 1936.719238,421.055420 1936.719238,548.740356 
	C1499.364014,548.740356 1061.960938,548.740356 624.011719,548.740356 
	C624.011719,510.695068 624.011719,472.597534 624.011719,434.000000 
M990.642395,520.684082 
	C991.905396,520.927246 993.168091,521.381226 994.431396,521.382751 
	C1026.316162,521.421814 1058.201050,521.416748 1090.085938,521.396973 
	C1091.061157,521.396362 1092.036011,521.156067 1093.827148,521.273254 
	C1095.216675,521.129395 1096.606323,520.985474 1098.809326,521.107422 
	C1112.123657,521.191040 1125.439575,521.389160 1138.749756,521.191223 
	C1140.169800,521.170166 1142.302979,519.089478 1142.831299,517.532043 
	C1145.578979,509.434235 1147.913574,501.196350 1150.445190,492.831268 
	C1162.480835,492.831268 1174.292358,492.727753 1186.096680,492.971924 
	C1187.459229,493.000092 1189.510376,494.702362 1190.000244,496.072571 
	C1192.505371,503.078217 1194.844849,510.166016 1196.735229,517.358276 
	C1197.610596,520.688416 1199.238403,521.463135 1202.331177,521.434387 
	C1214.320190,521.322815 1226.310791,521.414490 1238.300903,521.387329 
	C1239.196655,521.385315 1240.091553,521.043701 1241.133911,520.829773 
	C1240.887329,519.681274 1240.812744,518.848633 1240.531494,518.092896 
	C1222.975952,470.923889 1205.389038,423.766602 1187.871338,376.583527 
	C1186.898438,373.963043 1185.407104,373.144196 1182.670288,373.198395 
	C1174.180542,373.366638 1165.682739,373.380920 1157.193848,373.195129 
	C1154.166138,373.128845 1152.877808,374.249878 1151.861206,377.052307 
	C1146.335938,392.283875 1140.579712,407.431732 1134.899536,422.607117 
	C1123.574829,452.861755 1112.263306,483.121338 1100.866821,513.348877 
	C1100.402222,514.580872 1099.127197,515.507202 1098.506958,515.859924 
	C1098.506958,505.752808 1098.506958,495.645721 1098.506958,484.994202 
	C1075.970703,484.994202 1054.082520,484.994202 1031.833252,484.994202 
	C1031.833252,482.635437 1031.833252,480.831787 1031.833252,479.028137 
	C1031.833130,445.555603 1031.771851,412.082764 1031.913940,378.610840 
	C1031.930786,374.617279 1031.056519,373.068695 1026.728271,373.199951 
	C1016.579529,373.507599 1006.406372,373.521973 996.260132,373.167786 
	C991.569153,373.004028 990.046448,374.182892 990.067627,379.136078 
	C990.261475,424.431427 990.178223,469.727936 990.195007,515.024109 
	C990.195618,516.676025 990.393677,518.327759 990.642395,520.684082 
M1394.019043,501.499573 
	C1394.019043,507.953308 1394.019043,514.407043 1394.019043,520.921326 
	C1407.948242,520.921326 1421.307251,520.921326 1435.050537,520.921326 
	C1435.050537,505.907196 1435.050537,491.304047 1435.050537,476.199280 
	C1438.379028,476.199280 1441.374878,476.507141 1444.280151,476.125366 
	C1448.379395,475.586731 1450.529663,477.425323 1452.533936,480.769684 
	C1459.877808,493.023560 1467.571167,505.067596 1474.962036,517.293945 
	C1476.682251,520.139709 1478.511475,521.502014 1482.053467,521.431824 
	C1494.380615,521.187378 1506.715454,521.350098 1519.047363,521.318604 
	C1520.413208,521.315125 1521.778687,521.057739 1523.991455,520.831543 
	C1518.169312,511.300079 1512.833008,502.522705 1507.454712,493.771088 
	C1502.004517,484.902405 1496.512939,476.059204 1491.010132,467.157410 
	C1492.644043,465.697632 1493.894043,464.616913 1495.104614,463.493622 
	C1505.610107,453.745575 1511.362183,441.606628 1511.834839,427.392761 
	C1512.833008,397.363251 1489.613647,373.485443 1459.545898,373.294830 
	C1439.215576,373.165955 1418.884033,373.262787 1398.552979,373.281708 
	C1397.117188,373.283051 1395.681641,373.474701 1394.019043,373.594177 
	C1394.019043,416.196136 1394.019043,458.347992 1394.019043,501.499573 
M1253.567505,521.287781 
	C1266.504272,521.287781 1279.441040,521.287781 1292.946899,521.287781 
	C1292.946899,506.005066 1292.946899,491.286255 1292.946899,476.199371 
	C1295.982300,476.199371 1298.487305,476.484680 1300.901855,476.138824 
	C1305.658691,475.457520 1308.365112,477.342316 1310.799561,481.500153 
	C1318.012085,493.818390 1325.625366,505.908478 1333.377441,517.896729 
	C1334.471680,519.588989 1337.187988,521.129333 1339.196411,521.185059 
	C1350.512817,521.498901 1361.842529,521.337280 1373.167603,521.337769 
	C1375.730591,521.337891 1378.293457,521.337891 1382.083130,521.337891 
	C1376.034180,511.457306 1370.697876,502.709686 1365.330078,493.981445 
	C1359.857910,485.083191 1354.354858,476.203918 1348.761963,467.149200 
	C1349.971558,466.091705 1350.958130,465.246613 1351.925903,464.380707 
	C1364.041016,453.541199 1370.133911,439.810242 1369.652344,423.740631 
	C1368.805542,395.487915 1345.885132,373.495880 1317.678711,373.297272 
	C1297.361206,373.154205 1277.040527,373.390045 1256.724365,373.170044 
	C1252.459961,373.123871 1251.475220,374.494873 1251.486572,378.544159 
	C1251.614868,424.343903 1251.557007,470.144073 1251.610962,515.944092 
	C1251.613037,517.671204 1252.245972,519.397461 1253.567505,521.287781 
M1600.500000,409.687439 
	C1613.614014,409.687439 1626.728027,409.687439 1639.980103,409.687439 
	C1639.980103,397.262573 1639.980103,385.418427 1639.980103,373.263458 
	C1638.198853,373.263458 1636.880615,373.263458 1635.562500,373.263458 
	C1604.235352,373.263489 1572.907349,373.366211 1541.581665,373.151489 
	C1536.947021,373.119720 1536.153320,374.681580 1536.166138,378.875824 
	C1536.305908,424.533112 1536.313354,470.191193 1536.157837,515.848389 
	C1536.142822,520.238037 1537.305542,521.472351 1541.739746,521.445496 
	C1573.399170,521.254089 1605.060059,521.346436 1636.720581,521.332703 
	C1638.338257,521.332031 1639.955933,521.186157 1641.819336,521.095886 
	C1641.819336,509.056824 1641.819336,497.329529 1641.819336,485.063232 
	C1620.467773,485.063232 1599.405518,485.063232 1578.157349,485.063232 
	C1578.157349,477.461273 1578.157349,470.400299 1578.157349,462.881744 
	C1595.830444,462.881744 1613.238281,462.881744 1630.795898,462.881744 
	C1630.795898,451.510254 1630.795898,440.598816 1630.795898,429.150940 
	C1613.152222,429.150940 1595.754272,429.150940 1578.220459,429.150940 
	C1578.220459,422.390411 1578.220459,416.171051 1578.220459,409.687317 
	C1585.535522,409.687317 1592.517700,409.687317 1600.500000,409.687439 
M1697.298706,382.809418 
	C1680.166016,428.722076 1663.033325,474.634735 1645.869629,520.630188 
	C1646.793213,520.955017 1647.244995,521.251648 1647.697998,521.253235 
	C1660.694092,521.299011 1673.692261,521.415588 1686.683838,521.181946 
	C1687.994995,521.158386 1689.951294,519.221985 1690.441895,517.777222 
	C1692.835571,510.728241 1694.915161,503.567719 1696.927612,496.396637 
	C1697.658203,493.793518 1698.776733,492.685242 1701.718872,492.743713 
	C1712.212402,492.952240 1722.715698,492.962341 1733.208618,492.737823 
	C1736.160400,492.674652 1737.284424,493.799835 1738.028809,496.355438 
	C1740.111328,503.506439 1742.454102,510.582428 1744.486694,517.746887 
	C1745.245239,520.420715 1746.485596,521.485107 1749.370850,521.405457 
	C1756.697021,521.203064 1764.032471,521.339233 1771.364258,521.339539 
	C1777.122070,521.339844 1782.879761,521.339600 1788.743408,521.339600 
	C1788.653809,520.121277 1788.729980,519.594788 1788.566895,519.157532 
	C1770.786255,471.504639 1753.010742,423.849731 1735.071777,376.256348 
	C1734.568970,374.922058 1732.345581,373.464691 1730.867065,373.401245 
	C1723.881348,373.101349 1716.875854,373.266876 1709.877319,373.266785 
	C1700.770630,373.266632 1700.770630,373.266754 1697.298706,382.809418 
M1854.597412,298.963623 
	C1857.029663,302.942017 1859.982666,306.699097 1861.787109,310.944275 
	C1865.689209,320.124023 1871.964966,323.455963 1881.966187,322.344452 
	C1890.759399,321.367126 1899.747314,322.140167 1909.631714,322.140167 
	C1899.736572,305.966400 1890.414062,290.728363 1881.105347,275.513000 
	C1892.996948,264.455414 1898.414185,254.080093 1898.880493,241.559921 
	C1899.854370,215.406342 1879.969360,194.527969 1853.630371,194.277847 
	C1836.472778,194.114899 1819.309570,194.417297 1802.155151,194.133499 
	C1797.484741,194.056229 1796.333374,195.442307 1796.353882,199.996033 
	C1796.528564,238.811478 1796.450195,277.628052 1796.464844,316.444275 
	C1796.465454,318.218262 1796.628174,319.992188 1796.712769,321.713440 
	C1808.944580,321.713440 1820.653931,321.713440 1832.824219,321.713440 
	C1832.824219,308.868134 1832.824219,296.441040 1832.824219,284.098267 
	C1844.050537,282.331268 1844.213257,282.404480 1849.670166,291.177460 
	C1851.164551,293.580200 1852.673828,295.973633 1854.597412,298.963623 
M913.863281,236.499985 
	C913.863281,264.911377 913.863281,293.322754 913.863281,321.675140 
	C926.291687,321.675140 937.983704,321.675140 950.033691,321.675140 
	C950.033691,308.783325 950.033691,296.347473 950.033691,283.672180 
	C951.853516,283.579285 953.343262,283.641174 954.784302,283.405182 
	C960.248230,282.510315 963.474182,284.748383 966.216125,289.621857 
	C971.762085,299.478790 978.180115,308.841034 983.970642,318.566772 
	C985.668701,321.418793 987.613953,322.265533 990.790771,322.205933 
	C1000.948364,322.015381 1011.111938,322.147522 1021.273010,322.121857 
	C1022.807129,322.117981 1024.340820,321.937164 1026.614624,321.790436 
	C1016.861572,305.825928 1007.572083,290.620087 998.330933,275.493378 
	C1012.327332,263.388550 1018.621704,248.701202 1015.073547,230.779480 
	C1010.682190,208.598740 993.045105,194.400482 970.439880,194.270279 
	C953.116455,194.170471 935.791992,194.242737 918.467957,194.264679 
	C917.039490,194.266479 915.611267,194.469360 913.863281,194.603317 
	C913.863281,208.547729 913.863281,222.023849 913.863281,236.499985 
M1590.001099,194.448761 
	C1580.177612,194.382401 1570.346680,194.516235 1560.533936,194.157410 
	C1556.223755,193.999802 1554.846191,195.118057 1554.867676,199.653702 
	C1555.052368,238.635376 1554.970581,277.618286 1554.984375,316.600830 
	C1554.985107,318.354095 1555.140747,320.107300 1555.221802,321.808075 
	C1567.438354,321.808075 1579.016968,321.808075 1591.038208,321.808075 
	C1591.038208,305.407715 1591.038208,289.329041 1591.038208,273.133453 
	C1605.056030,273.133453 1618.623535,273.133453 1632.752441,273.133453 
	C1632.752441,289.459869 1632.752441,305.527527 1632.752441,321.783844 
	C1645.025269,321.783844 1656.732666,321.783844 1668.544678,321.783844 
	C1668.544678,279.225433 1668.544678,237.020691 1668.544678,194.262360 
	C1657.260864,194.262360 1646.304565,194.160156 1635.358398,194.446442 
	C1634.431274,194.470688 1632.835693,197.074860 1632.800659,198.510941 
	C1632.569824,208.001068 1632.681274,217.499542 1632.681152,226.995285 
	C1632.681152,231.600891 1632.681152,236.206512 1632.681152,240.755798 
	C1618.398193,240.755798 1604.829346,240.755798 1590.713867,240.755798 
	C1590.713867,225.292526 1590.713867,210.164200 1590.001099,194.448761 
M892.945312,229.500000 
	C892.945312,217.908951 892.945312,206.317886 892.945312,194.248978 
	C882.977600,194.248978 873.682617,194.220886 864.388000,194.257263 
	C855.892639,194.290497 856.948303,193.380661 856.921021,201.697586 
	C856.878662,214.646957 856.909912,227.596558 856.909912,240.816025 
	C842.847900,240.816025 829.285950,240.816025 815.217773,240.816025 
	C815.217773,225.361832 815.217773,210.113586 815.217773,194.248505 
	C804.612488,194.248505 794.493774,194.454819 784.390503,194.151047 
	C780.107849,194.022293 779.139709,195.494156 779.153992,199.544815 
	C779.291992,238.696198 779.233948,277.848267 779.247009,317.000153 
	C779.247498,318.598358 779.397522,320.196503 779.478699,321.810669 
	C791.624512,321.810669 803.200562,321.810669 815.246582,321.810669 
	C815.246582,305.412933 815.246582,289.333588 815.246582,273.130127 
	C829.296753,273.130127 842.870972,273.130127 856.974915,273.130127 
	C856.974915,289.452972 856.974915,305.519135 856.974915,321.760040 
	C869.205566,321.760040 880.902222,321.760040 892.945312,321.760040 
	C892.945312,291.089355 892.945312,260.794678 892.945312,229.500000 
M697.551636,503.976074 
	C699.146484,508.328979 700.937256,512.622803 702.273621,517.053650 
	C703.325134,520.540283 705.306519,521.530151 708.828369,521.420593 
	C716.982666,521.167114 725.158020,521.128601 733.308838,521.432800 
	C737.136780,521.575684 738.736023,520.201172 740.026794,516.668884 
	C756.839844,470.658478 773.826843,424.711639 790.744507,378.739471 
	C791.337219,377.128815 791.666260,375.421143 792.252136,373.265808 
	C781.231384,373.265808 770.919556,373.265808 760.607727,373.265808 
	C749.255615,373.265808 749.300720,373.279114 746.017029,384.412872 
	C737.899841,411.936157 729.737183,439.446075 721.219543,468.222626 
	C720.214966,465.290375 719.537659,463.514557 718.994751,461.698578 
	C710.610352,433.651764 702.206909,405.610474 693.922485,377.534088 
	C692.981506,374.345032 691.585083,372.990814 688.035522,373.169556 
	C681.389404,373.504211 674.714355,373.265839 668.051392,373.265808 
	C661.947998,373.265808 655.844604,373.265808 648.916870,373.265808 
	C665.229126,417.183289 681.217468,460.228668 697.551636,503.976074 
M1337.185547,314.365997 
	C1358.807129,326.929565 1380.498413,326.769196 1401.277466,313.098969 
	C1430.435059,293.916595 1438.514893,254.467667 1420.323608,223.782913 
	C1397.659546,185.553391 1344.893433,183.425919 1319.170288,219.704391 
	C1297.358154,250.467010 1305.028809,292.051056 1337.185547,314.365997 
M1700.516724,322.136963 
	C1727.285645,322.136963 1754.054443,322.136963 1780.994385,322.136963 
	C1780.994385,311.427948 1780.994385,301.356537 1780.994385,290.619507 
	C1762.503540,290.619507 1744.299805,290.619507 1726.177490,290.619507 
	C1726.177490,284.046143 1726.177490,278.147339 1726.177490,271.686493 
	C1741.599609,271.686493 1756.651489,271.686493 1771.564209,271.686493 
	C1771.564209,261.690216 1771.564209,252.275894 1771.564209,242.227982 
	C1756.170044,242.227982 1741.122559,242.227982 1726.058105,242.227982 
	C1726.058105,236.494232 1726.058105,231.408310 1726.058105,225.764160 
	C1744.032227,225.764160 1761.758667,225.764160 1779.614380,225.764160 
	C1779.614380,215.113724 1779.614380,205.029892 1779.614380,194.515182 
	C1777.760986,194.418442 1776.143433,194.261337 1774.525879,194.260406 
	C1748.029785,194.245056 1721.532715,194.357132 1695.038330,194.144363 
	C1690.571899,194.108505 1689.504150,195.376266 1689.523926,199.750748 
	C1689.699951,238.577667 1689.626343,277.405701 1689.626343,316.233429 
	C1689.626343,318.013977 1689.626343,319.794525 1689.626343,322.136993 
	C1693.283081,322.136993 1696.403809,322.136993 1700.516724,322.136963 
M1167.405396,234.974014 
	C1168.695435,235.607254 1169.985474,236.240494 1171.508911,236.988281 
	C1176.681274,227.017792 1181.691162,217.360168 1186.908569,207.302887 
	C1168.063110,198.415863 1149.515747,190.588074 1128.642334,194.216919 
	C1111.754028,197.153015 1097.916992,205.287277 1092.868652,222.754639 
	C1086.677002,244.178116 1092.350342,259.358459 1111.478394,268.034332 
	C1117.352783,270.698792 1123.500610,272.778381 1129.579712,274.968964 
	C1135.350342,277.048431 1141.357788,278.564148 1146.915161,281.089417 
	C1148.757568,281.926636 1150.593506,285.219086 1150.423706,287.218323 
	C1150.302612,288.642670 1146.831909,290.827942 1144.838989,290.846558 
	C1139.412964,290.897308 1133.692993,290.872070 1128.608032,289.250885 
	C1119.040161,286.200439 1109.836670,282.007416 1099.942017,278.074982 
	C1095.146729,287.781677 1090.098022,298.001038 1084.561035,309.208893 
	C1091.734985,312.141998 1098.317383,315.316437 1105.203979,317.555145 
	C1123.327026,323.446564 1141.742554,326.403656 1160.622925,321.080292 
	C1178.272339,316.104004 1188.244263,304.340027 1189.787598,286.713226 
	C1191.343506,268.945312 1184.401245,257.017883 1167.038452,249.146622 
	C1159.647339,245.795929 1151.704224,243.668747 1144.031616,240.930450 
	C1139.657349,239.369278 1135.133179,238.053986 1131.064819,235.896194 
	C1129.475342,235.053131 1127.957764,232.051468 1128.225342,230.312820 
	C1128.480469,228.655533 1130.880493,226.697876 1132.740234,226.075333 
	C1135.147461,225.269531 1138.177856,224.929947 1140.548828,225.659882 
	C1149.367676,228.374817 1158.026123,231.610123 1167.405396,234.974014 
M1443.765991,227.499954 
	C1443.765991,258.896057 1443.765991,290.292145 1443.765991,321.734833 
	C1456.230103,321.734833 1467.930542,321.734833 1479.955933,321.734833 
	C1479.955933,308.891357 1479.955933,296.444214 1479.955933,283.429688 
	C1485.893921,283.429688 1491.517700,283.438873 1497.141479,283.428131 
	C1526.606567,283.371857 1546.190674,260.730652 1541.939575,231.642990 
	C1539.150757,212.561172 1522.864258,196.239014 1503.358887,195.032349 
	C1484.616455,193.872864 1465.766479,194.476822 1446.964966,194.222839 
	C1443.641235,194.177933 1443.749390,196.243271 1443.755737,198.525574 
	C1443.781982,207.850296 1443.766235,217.175140 1443.765991,227.499954 
M1871.500000,485.075928 
	C1861.386230,485.075928 1851.272583,485.075928 1840.672363,485.075928 
	C1840.672363,482.576447 1840.672241,480.622131 1840.672241,478.667816 
	C1840.672119,445.186035 1840.608398,411.704010 1840.756836,378.222870 
	C1840.774414,374.258392 1839.678345,373.031097 1835.691040,373.173645 
	C1827.372803,373.471069 1819.036621,373.263641 1810.707764,373.263611 
	C1806.945435,373.263611 1803.182983,373.263641 1799.419189,373.263641 
	C1799.419189,422.987030 1799.419189,471.882812 1799.419189,520.960632 
	C1835.426880,520.960632 1871.108887,520.960632 1906.806030,520.960632 
	C1906.806030,508.863617 1906.806030,497.153870 1906.806030,485.075928 
	C1895.100098,485.075928 1883.800049,485.075928 1871.500000,485.075928 
M875.620972,373.268280 
	C873.504517,373.268280 871.388000,373.268280 869.160645,373.268280 
	C869.160645,422.924500 869.160645,471.968292 869.160645,521.016479 
	C905.145325,521.016479 940.730652,521.016479 976.530273,521.016479 
	C976.530273,508.990479 976.530273,497.287933 976.530273,485.079773 
	C954.256104,485.079773 932.346619,485.079773 909.942078,485.079773 
	C909.942078,447.674469 909.942078,410.772766 909.942078,373.268372 
	C898.499329,373.268372 887.547729,373.268372 875.620972,373.268280 
M663.378662,224.983200 
	C656.106445,238.636703 653.142639,253.069931 655.935059,268.406799 
	C662.919800,306.769775 699.808044,337.865631 745.320129,316.115845 
	C754.076172,311.931396 761.061584,305.505066 765.611511,296.815399 
	C766.285645,295.527832 766.175903,292.489624 765.346069,291.961029 
	C756.571533,286.371399 747.577515,281.126495 738.415527,275.650085 
	C737.742737,276.847137 737.335754,277.537811 736.959778,278.244904 
	C728.190002,294.737335 707.804565,295.980621 697.633301,280.310333 
	C689.495422,267.772888 689.616455,254.093552 695.046692,240.678055 
	C700.192932,227.964081 711.636169,223.038391 724.357727,226.941635 
	C731.576599,229.156509 735.634338,234.623535 738.844360,241.522034 
	C748.128540,234.903732 757.002808,228.577591 766.039368,222.135773 
	C765.499329,221.023712 765.132324,220.120300 764.645447,219.286942 
	C752.471924,198.452438 730.113403,191.063217 706.484558,194.622040 
	C687.615051,197.464020 673.566650,208.064331 663.378662,224.983200 
M1244.511963,322.138824 
	C1252.257690,322.138824 1260.003296,322.138824 1268.197754,322.138824 
	C1268.197754,289.558868 1268.197754,257.824249 1268.197754,225.775085 
	C1280.460083,225.775085 1292.247437,225.775085 1304.755859,225.775085 
	C1304.755859,216.696823 1304.537354,207.914520 1304.852295,199.151367 
	C1304.999878,195.040619 1303.563599,194.153107 1299.716675,194.169449 
	C1267.388428,194.306961 1235.059204,194.247314 1202.730347,194.248169 
	C1201.063965,194.248215 1199.331909,193.985046 1197.755249,194.363998 
	C1196.764038,194.602264 1195.269531,195.797485 1195.255371,196.585892 
	C1195.082886,206.191330 1195.143311,215.800934 1195.143311,225.960175 
	C1207.684692,225.960175 1219.583618,225.960175 1232.045898,225.960175 
	C1232.045898,258.241638 1232.045898,289.962372 1232.045898,322.138824 
	C1236.253540,322.138824 1239.886108,322.138824 1244.511963,322.138824 
M843.970398,435.500000 
	C843.970398,414.908386 843.970398,394.316803 843.970398,373.699585 
	C829.939819,373.699585 816.576172,373.699585 803.294250,373.699585 
	C803.294250,423.057861 803.294250,471.985352 803.294250,521.085083 
	C816.874268,521.085083 830.132385,521.085083 843.970398,521.085083 
	C843.970398,492.725159 843.970398,464.612579 843.970398,435.500000 
M1046.552490,194.248993 
	C1043.442993,194.248993 1040.333496,194.248993 1037.112793,194.248993 
	C1037.112793,237.180069 1037.112793,279.415771 1037.112793,321.702271 
	C1049.115723,321.702271 1060.805298,321.702271 1072.391113,321.702271 
	C1072.391113,279.061432 1072.391113,236.857162 1072.391113,194.249069 
	C1063.819214,194.249069 1055.677856,194.249069 1046.552490,194.248993 
z"/>
<path fill="#1F4067" opacity="1.000000" stroke="none" 
	d="
M1394.019043,500.999695 
	C1394.019043,458.347992 1394.019043,416.196136 1394.019043,373.594177 
	C1395.681641,373.474701 1397.117188,373.283051 1398.552979,373.281708 
	C1418.884033,373.262787 1439.215576,373.165955 1459.545898,373.294830 
	C1489.613647,373.485443 1512.833008,397.363251 1511.834839,427.392761 
	C1511.362183,441.606628 1505.610107,453.745575 1495.104614,463.493622 
	C1493.894043,464.616913 1492.644043,465.697632 1491.010132,467.157410 
	C1496.512939,476.059204 1502.004517,484.902405 1507.454712,493.771088 
	C1512.833008,502.522705 1518.169312,511.300079 1523.991455,520.831543 
	C1521.778687,521.057739 1520.413208,521.315125 1519.047363,521.318604 
	C1506.715454,521.350098 1494.380615,521.187378 1482.053467,521.431824 
	C1478.511475,521.502014 1476.682251,520.139709 1474.962036,517.293945 
	C1467.571167,505.067596 1459.877808,493.023560 1452.533936,480.769684 
	C1450.529663,477.425323 1448.379395,475.586731 1444.280151,476.125366 
	C1441.374878,476.507141 1438.379028,476.199280 1435.050537,476.199280 
	C1435.050537,491.304047 1435.050537,505.907196 1435.050537,520.921326 
	C1421.307251,520.921326 1407.948242,520.921326 1394.019043,520.921326 
	C1394.019043,514.407043 1394.019043,507.953308 1394.019043,500.999695 
M1467.650269,434.883789 
	C1468.384888,432.697052 1469.366211,430.559052 1469.809448,428.314728 
	C1471.357422,420.475861 1467.267090,410.757568 1461.335205,410.207306 
	C1452.701538,409.406494 1443.938477,410.001770 1435.270264,410.001770 
	C1435.270264,420.152161 1435.270264,429.876312 1435.270264,439.986023 
	C1442.998535,439.986023 1450.443970,439.850708 1457.881226,440.040161 
	C1461.908203,440.142761 1465.015259,438.935303 1467.650269,434.883789 
z"/>
<path fill="#1F4067" opacity="1.000000" stroke="none" 
	d="
M1253.076294,521.205933 
	C1252.245972,519.397461 1251.613037,517.671204 1251.610962,515.944092 
	C1251.557007,470.144073 1251.614868,424.343903 1251.486572,378.544159 
	C1251.475220,374.494873 1252.459961,373.123871 1256.724365,373.170044 
	C1277.040527,373.390045 1297.361206,373.154205 1317.678711,373.297272 
	C1345.885132,373.495880 1368.805542,395.487915 1369.652344,423.740631 
	C1370.133911,439.810242 1364.041016,453.541199 1351.925903,464.380707 
	C1350.958130,465.246613 1349.971558,466.091705 1348.761963,467.149200 
	C1354.354858,476.203918 1359.857910,485.083191 1365.330078,493.981445 
	C1370.697876,502.709686 1376.034180,511.457306 1382.083130,521.337891 
	C1378.293457,521.337891 1375.730591,521.337891 1373.167603,521.337769 
	C1361.842529,521.337280 1350.512817,521.498901 1339.196411,521.185059 
	C1337.187988,521.129333 1334.471680,519.588989 1333.377441,517.896729 
	C1325.625366,505.908478 1318.012085,493.818390 1310.799561,481.500153 
	C1308.365112,477.342316 1305.658691,475.457520 1300.901855,476.138824 
	C1298.487305,476.484680 1295.982300,476.199371 1292.946899,476.199371 
	C1292.946899,491.286255 1292.946899,506.005066 1292.946899,521.287781 
	C1279.441040,521.287781 1266.504272,521.287781 1253.076294,521.205933 
M1322.970093,412.326569 
	C1321.223145,411.492432 1319.497559,409.994629 1317.725708,409.937897 
	C1309.635010,409.678802 1301.531372,409.824127 1293.282471,409.824127 
	C1293.282471,419.981750 1293.282471,429.833160 1293.282471,439.983948 
	C1301.246826,439.983948 1308.872070,439.857513 1316.490356,440.033875 
	C1320.706787,440.131470 1323.407715,438.073761 1325.401123,434.760223 
	C1329.239746,428.378876 1328.371582,418.877014 1322.970093,412.326569 
z"/>
<path fill="#214168" opacity="1.000000" stroke="none" 
	d="
M1600.000000,409.687378 
	C1592.517700,409.687317 1585.535522,409.687317 1578.220459,409.687317 
	C1578.220459,416.171051 1578.220459,422.390411 1578.220459,429.150940 
	C1595.754272,429.150940 1613.152222,429.150940 1630.795898,429.150940 
	C1630.795898,440.598816 1630.795898,451.510254 1630.795898,462.881744 
	C1613.238281,462.881744 1595.830444,462.881744 1578.157349,462.881744 
	C1578.157349,470.400299 1578.157349,477.461273 1578.157349,485.063232 
	C1599.405518,485.063232 1620.467773,485.063232 1641.819336,485.063232 
	C1641.819336,497.329529 1641.819336,509.056824 1641.819336,521.095886 
	C1639.955933,521.186157 1638.338257,521.332031 1636.720581,521.332703 
	C1605.060059,521.346436 1573.399170,521.254089 1541.739746,521.445496 
	C1537.305542,521.472351 1536.142822,520.238037 1536.157837,515.848389 
	C1536.313354,470.191193 1536.305908,424.533112 1536.166138,378.875824 
	C1536.153320,374.681580 1536.947021,373.119720 1541.581665,373.151489 
	C1572.907349,373.366211 1604.235352,373.263489 1635.562500,373.263458 
	C1636.880615,373.263458 1638.198853,373.263458 1639.980103,373.263458 
	C1639.980103,385.418427 1639.980103,397.262573 1639.980103,409.687439 
	C1626.728027,409.687439 1613.614014,409.687439 1600.000000,409.687378 
z"/>
<path fill="#224269" opacity="1.000000" stroke="none" 
	d="
M1098.229736,516.575867 
	C1099.127197,515.507202 1100.402222,514.580872 1100.866821,513.348877 
	C1112.263306,483.121338 1123.574829,452.861755 1134.899536,422.607117 
	C1140.579712,407.431732 1146.335938,392.283875 1151.861206,377.052307 
	C1152.877808,374.249878 1154.166138,373.128845 1157.193848,373.195129 
	C1165.682739,373.380920 1174.180542,373.366638 1182.670288,373.198395 
	C1185.407104,373.144196 1186.898438,373.963043 1187.871338,376.583527 
	C1205.389038,423.766602 1222.975952,470.923889 1240.531494,518.092896 
	C1240.812744,518.848633 1240.887329,519.681274 1241.133911,520.829773 
	C1240.091553,521.043701 1239.196655,521.385315 1238.300903,521.387329 
	C1226.310791,521.414490 1214.320190,521.322815 1202.331177,521.434387 
	C1199.238403,521.463135 1197.610596,520.688416 1196.735229,517.358276 
	C1194.844849,510.166016 1192.505371,503.078217 1190.000244,496.072571 
	C1189.510376,494.702362 1187.459229,493.000092 1186.096680,492.971924 
	C1174.292358,492.727753 1162.480835,492.831268 1150.445190,492.831268 
	C1147.913574,501.196350 1145.578979,509.434235 1142.831299,517.532043 
	C1142.302979,519.089478 1140.169800,521.170166 1138.749756,521.191223 
	C1125.439575,521.389160 1112.123657,521.191040 1098.399536,520.547791 
	C1098.069702,518.850708 1098.149780,517.713318 1098.229736,516.575867 
M1160.043701,464.638489 
	C1167.292969,464.638489 1174.542114,464.638489 1182.415527,464.638489 
	C1178.241089,448.957764 1174.280029,434.078033 1170.318848,419.198273 
	C1165.509888,433.341583 1161.675903,447.332092 1157.828735,461.318970 
	C1157.422729,462.795135 1155.953003,464.648285 1160.043701,464.638489 
z"/>
<path fill="#204167" opacity="1.000000" stroke="none" 
	d="
M1697.498535,382.473450 
	C1700.770630,373.266754 1700.770630,373.266632 1709.877319,373.266785 
	C1716.875854,373.266876 1723.881348,373.101349 1730.867065,373.401245 
	C1732.345581,373.464691 1734.568970,374.922058 1735.071777,376.256348 
	C1753.010742,423.849731 1770.786255,471.504639 1788.566895,519.157532 
	C1788.729980,519.594788 1788.653809,520.121277 1788.743408,521.339600 
	C1782.879761,521.339600 1777.122070,521.339844 1771.364258,521.339539 
	C1764.032471,521.339233 1756.697021,521.203064 1749.370850,521.405457 
	C1746.485596,521.485107 1745.245239,520.420715 1744.486694,517.746887 
	C1742.454102,510.582428 1740.111328,503.506439 1738.028809,496.355438 
	C1737.284424,493.799835 1736.160400,492.674652 1733.208618,492.737823 
	C1722.715698,492.962341 1712.212402,492.952240 1701.718872,492.743713 
	C1698.776733,492.685242 1697.658203,493.793518 1696.927612,496.396637 
	C1694.915161,503.567719 1692.835571,510.728241 1690.441895,517.777222 
	C1689.951294,519.221985 1687.994995,521.158386 1686.683838,521.181946 
	C1673.692261,521.415588 1660.694092,521.299011 1647.697998,521.253235 
	C1647.244995,521.251648 1646.793213,520.955017 1645.869629,520.630188 
	C1663.033325,474.634735 1680.166016,428.722076 1697.498535,382.473450 
M1707.899902,452.343475 
	C1706.842163,456.272461 1705.784546,460.201447 1704.659180,464.381866 
	C1713.416138,464.381866 1721.493408,464.381866 1729.978516,464.381866 
	C1725.856934,448.849854 1721.828491,433.668488 1717.567261,417.609985 
	C1714.191528,429.567169 1711.091309,440.548767 1707.899902,452.343475 
z"/>
<path fill="#214268" opacity="1.000000" stroke="none" 
	d="
M1854.386841,298.667480 
	C1852.673828,295.973633 1851.164551,293.580200 1849.670166,291.177460 
	C1844.213257,282.404480 1844.050537,282.331268 1832.824219,284.098267 
	C1832.824219,296.441040 1832.824219,308.868134 1832.824219,321.713440 
	C1820.653931,321.713440 1808.944580,321.713440 1796.712769,321.713440 
	C1796.628174,319.992188 1796.465454,318.218262 1796.464844,316.444275 
	C1796.450195,277.628052 1796.528564,238.811478 1796.353882,199.996033 
	C1796.333374,195.442307 1797.484741,194.056229 1802.155151,194.133499 
	C1819.309570,194.417297 1836.472778,194.114899 1853.630371,194.277847 
	C1879.969360,194.527969 1899.854370,215.406342 1898.880493,241.559921 
	C1898.414185,254.080093 1892.996948,264.455414 1881.105347,275.513000 
	C1890.414062,290.728363 1899.736572,305.966400 1909.631714,322.140167 
	C1899.747314,322.140167 1890.759399,321.367126 1881.966187,322.344452 
	C1871.964966,323.455963 1865.689209,320.124023 1861.787109,310.944275 
	C1859.982666,306.699097 1857.029663,302.942017 1854.386841,298.667480 
M1845.454346,225.906982 
	C1841.343872,225.906982 1837.233276,225.906982 1832.981812,225.906982 
	C1832.981812,234.696533 1832.981812,242.938065 1832.981812,251.676163 
	C1840.310547,251.676163 1847.419312,251.775772 1854.520264,251.587433 
	C1855.851318,251.552124 1857.379150,250.616531 1858.428711,249.667816 
	C1863.903076,244.720230 1863.572510,231.633942 1857.333984,227.849411 
	C1854.390015,226.063416 1850.106567,226.485443 1845.454346,225.906982 
z"/>
<path fill="#204167" opacity="1.000000" stroke="none" 
	d="
M913.863281,235.999969 
	C913.863281,222.023849 913.863281,208.547729 913.863281,194.603317 
	C915.611267,194.469360 917.039490,194.266479 918.467957,194.264679 
	C935.791992,194.242737 953.116455,194.170471 970.439880,194.270279 
	C993.045105,194.400482 1010.682190,208.598740 1015.073547,230.779480 
	C1018.621704,248.701202 1012.327332,263.388550 998.330933,275.493378 
	C1007.572083,290.620087 1016.861572,305.825928 1026.614624,321.790436 
	C1024.340820,321.937164 1022.807129,322.117981 1021.273010,322.121857 
	C1011.111938,322.147522 1000.948364,322.015381 990.790771,322.205933 
	C987.613953,322.265533 985.668701,321.418793 983.970642,318.566772 
	C978.180115,308.841034 971.762085,299.478790 966.216125,289.621857 
	C963.474182,284.748383 960.248230,282.510315 954.784302,283.405182 
	C953.343262,283.641174 951.853516,283.579285 950.033691,283.672180 
	C950.033691,296.347473 950.033691,308.783325 950.033691,321.675140 
	C937.983704,321.675140 926.291687,321.675140 913.863281,321.675140 
	C913.863281,293.322754 913.863281,264.911377 913.863281,235.999969 
M975.950928,249.580231 
	C977.216125,246.237534 979.171265,242.980026 979.596741,239.533646 
	C980.380554,233.184998 976.476196,226.505417 971.704590,226.145538 
	C964.526184,225.604172 957.276733,226.004547 950.189209,226.004547 
	C950.189209,234.872833 950.189209,243.098343 950.189209,251.775192 
	C955.914612,251.775192 961.362244,251.959381 966.788757,251.700439 
	C969.666931,251.563095 972.508423,250.656357 975.950928,249.580231 
z"/>
<path fill="#204168" opacity="1.000000" stroke="none" 
	d="
M1590.357422,194.742325 
	C1590.713867,210.164200 1590.713867,225.292526 1590.713867,240.755798 
	C1604.829346,240.755798 1618.398193,240.755798 1632.681152,240.755798 
	C1632.681152,236.206512 1632.681152,231.600891 1632.681152,226.995285 
	C1632.681274,217.499542 1632.569824,208.001068 1632.800659,198.510941 
	C1632.835693,197.074860 1634.431274,194.470688 1635.358398,194.446442 
	C1646.304565,194.160156 1657.260864,194.262360 1668.544678,194.262360 
	C1668.544678,237.020691 1668.544678,279.225433 1668.544678,321.783844 
	C1656.732666,321.783844 1645.025269,321.783844 1632.752441,321.783844 
	C1632.752441,305.527527 1632.752441,289.459869 1632.752441,273.133453 
	C1618.623535,273.133453 1605.056030,273.133453 1591.038208,273.133453 
	C1591.038208,289.329041 1591.038208,305.407715 1591.038208,321.808075 
	C1579.016968,321.808075 1567.438354,321.808075 1555.221802,321.808075 
	C1555.140747,320.107300 1554.985107,318.354095 1554.984375,316.600830 
	C1554.970581,277.618286 1555.052368,238.635376 1554.867676,199.653702 
	C1554.846191,195.118057 1556.223755,193.999802 1560.533936,194.157410 
	C1570.346680,194.516235 1580.177612,194.382401 1590.357422,194.742325 
z"/>
<path fill="#204168" opacity="1.000000" stroke="none" 
	d="
M892.945312,230.000000 
	C892.945312,260.794678 892.945312,291.089355 892.945312,321.760040 
	C880.902222,321.760040 869.205566,321.760040 856.974915,321.760040 
	C856.974915,305.519135 856.974915,289.452972 856.974915,273.130127 
	C842.870972,273.130127 829.296753,273.130127 815.246582,273.130127 
	C815.246582,289.333588 815.246582,305.412933 815.246582,321.810669 
	C803.200562,321.810669 791.624512,321.810669 779.478699,321.810669 
	C779.397522,320.196503 779.247498,318.598358 779.247009,317.000153 
	C779.233948,277.848267 779.291992,238.696198 779.153992,199.544815 
	C779.139709,195.494156 780.107849,194.022293 784.390503,194.151047 
	C794.493774,194.454819 804.612488,194.248505 815.217773,194.248505 
	C815.217773,210.113586 815.217773,225.361832 815.217773,240.816025 
	C829.285950,240.816025 842.847900,240.816025 856.909912,240.816025 
	C856.909912,227.596558 856.878662,214.646957 856.921021,201.697586 
	C856.948303,193.380661 855.892639,194.290497 864.388000,194.257263 
	C873.682617,194.220886 882.977600,194.248978 892.945312,194.248978 
	C892.945312,206.317886 892.945312,217.908951 892.945312,230.000000 
z"/>
<path fill="#204168" opacity="1.000000" stroke="none" 
	d="
M697.378723,503.625061 
	C681.217468,460.228668 665.229126,417.183289 648.916870,373.265808 
	C655.844604,373.265808 661.947998,373.265808 668.051392,373.265808 
	C674.714355,373.265839 681.389404,373.504211 688.035522,373.169556 
	C691.585083,372.990814 692.981506,374.345032 693.922485,377.534088 
	C702.206909,405.610474 710.610352,433.651764 718.994751,461.698578 
	C719.537659,463.514557 720.214966,465.290375 721.219543,468.222626 
	C729.737183,439.446075 737.899841,411.936157 746.017029,384.412872 
	C749.300720,373.279114 749.255615,373.265808 760.607727,373.265808 
	C770.919556,373.265808 781.231384,373.265808 792.252136,373.265808 
	C791.666260,375.421143 791.337219,377.128815 790.744507,378.739471 
	C773.826843,424.711639 756.839844,470.658478 740.026794,516.668884 
	C738.736023,520.201172 737.136780,521.575684 733.308838,521.432800 
	C725.158020,521.128601 716.982666,521.167114 708.828369,521.420593 
	C705.306519,521.530151 703.325134,520.540283 702.273621,517.053650 
	C700.937256,512.622803 699.146484,508.328979 697.378723,503.625061 
z"/>
<path fill="#204168" opacity="1.000000" stroke="none" 
	d="
M1336.873779,314.177429 
	C1305.028809,292.051056 1297.358154,250.467010 1319.170288,219.704391 
	C1344.893433,183.425919 1397.659546,185.553391 1420.323608,223.782913 
	C1438.514893,254.467667 1430.435059,293.916595 1401.277466,313.098969 
	C1380.498413,326.769196 1358.807129,326.929565 1336.873779,314.177429 
M1384.292847,232.194901 
	C1371.114502,220.946152 1354.290161,224.352554 1347.284912,240.128128 
	C1342.000610,252.028534 1341.924316,264.450867 1347.087158,276.414337 
	C1350.708130,284.804840 1357.133179,290.372345 1366.806763,291.073853 
	C1376.952637,291.809601 1384.578613,287.254303 1388.625977,278.405304 
	C1395.808594,262.700836 1395.724121,247.132462 1384.292847,232.194901 
z"/>
<path fill="#204168" opacity="1.000000" stroke="none" 
	d="
M1700.020630,322.136963 
	C1696.403809,322.136993 1693.283081,322.136993 1689.626343,322.136993 
	C1689.626343,319.794525 1689.626343,318.013977 1689.626343,316.233429 
	C1689.626343,277.405701 1689.699951,238.577667 1689.523926,199.750748 
	C1689.504150,195.376266 1690.571899,194.108505 1695.038330,194.144363 
	C1721.532715,194.357132 1748.029785,194.245056 1774.525879,194.260406 
	C1776.143433,194.261337 1777.760986,194.418442 1779.614380,194.515182 
	C1779.614380,205.029892 1779.614380,215.113724 1779.614380,225.764160 
	C1761.758667,225.764160 1744.032227,225.764160 1726.058105,225.764160 
	C1726.058105,231.408310 1726.058105,236.494232 1726.058105,242.227982 
	C1741.122559,242.227982 1756.170044,242.227982 1771.564209,242.227982 
	C1771.564209,252.275894 1771.564209,261.690216 1771.564209,271.686493 
	C1756.651489,271.686493 1741.599609,271.686493 1726.177490,271.686493 
	C1726.177490,278.147339 1726.177490,284.046143 1726.177490,290.619507 
	C1744.299805,290.619507 1762.503540,290.619507 1780.994385,290.619507 
	C1780.994385,301.356537 1780.994385,311.427948 1780.994385,322.136963 
	C1754.054443,322.136963 1727.285645,322.136963 1700.020630,322.136963 
z"/>
<path fill="#204168" opacity="1.000000" stroke="none" 
	d="
M1167.075195,234.812042 
	C1158.026123,231.610123 1149.367676,228.374817 1140.548828,225.659882 
	C1138.177856,224.929947 1135.147461,225.269531 1132.740234,226.075333 
	C1130.880493,226.697876 1128.480469,228.655533 1128.225342,230.312820 
	C1127.957764,232.051468 1129.475342,235.053131 1131.064819,235.896194 
	C1135.133179,238.053986 1139.657349,239.369278 1144.031616,240.930450 
	C1151.704224,243.668747 1159.647339,245.795929 1167.038452,249.146622 
	C1184.401245,257.017883 1191.343506,268.945312 1189.787598,286.713226 
	C1188.244263,304.340027 1178.272339,316.104004 1160.622925,321.080292 
	C1141.742554,326.403656 1123.327026,323.446564 1105.203979,317.555145 
	C1098.317383,315.316437 1091.734985,312.141998 1084.561035,309.208893 
	C1090.098022,298.001038 1095.146729,287.781677 1099.942017,278.074982 
	C1109.836670,282.007416 1119.040161,286.200439 1128.608032,289.250885 
	C1133.692993,290.872070 1139.412964,290.897308 1144.838989,290.846558 
	C1146.831909,290.827942 1150.302612,288.642670 1150.423706,287.218323 
	C1150.593506,285.219086 1148.757568,281.926636 1146.915161,281.089417 
	C1141.357788,278.564148 1135.350342,277.048431 1129.579712,274.968964 
	C1123.500610,272.778381 1117.352783,270.698792 1111.478394,268.034332 
	C1092.350342,259.358459 1086.677002,244.178116 1092.868652,222.754639 
	C1097.916992,205.287277 1111.754028,197.153015 1128.642334,194.216919 
	C1149.515747,190.588074 1168.063110,198.415863 1186.908569,207.302887 
	C1181.691162,217.360168 1176.681274,227.017792 1171.508911,236.988281 
	C1169.985474,236.240494 1168.695435,235.607254 1167.075195,234.812042 
z"/>
<path fill="#204167" opacity="1.000000" stroke="none" 
	d="
M1443.765869,226.999939 
	C1443.766235,217.175140 1443.781982,207.850296 1443.755737,198.525574 
	C1443.749390,196.243271 1443.641235,194.177933 1446.964966,194.222839 
	C1465.766479,194.476822 1484.616455,193.872864 1503.358887,195.032349 
	C1522.864258,196.239014 1539.150757,212.561172 1541.939575,231.642990 
	C1546.190674,260.730652 1526.606567,283.371857 1497.141479,283.428131 
	C1491.517700,283.438873 1485.893921,283.429688 1479.955933,283.429688 
	C1479.955933,296.444214 1479.955933,308.891357 1479.955933,321.734833 
	C1467.930542,321.734833 1456.230103,321.734833 1443.765991,321.734833 
	C1443.765991,290.292145 1443.765991,258.896057 1443.765869,226.999939 
M1486.549438,225.903305 
	C1484.450439,225.903305 1482.351440,225.903305 1480.147949,225.903305 
	C1480.147949,234.727509 1480.147949,242.967606 1480.147949,251.646027 
	C1486.457397,251.646027 1492.569580,251.861450 1498.649048,251.508942 
	C1500.373291,251.408951 1502.642456,250.053436 1503.560181,248.585129 
	C1507.071899,242.967377 1506.838867,236.751907 1504.458374,230.878708 
	C1502.443970,225.908768 1497.698730,225.630600 1493.014038,225.887146 
	C1491.191162,225.986969 1489.358398,225.903351 1486.549438,225.903305 
z"/>
<path fill="#214168" opacity="1.000000" stroke="none" 
	d="
M1872.000000,485.075928 
	C1883.800049,485.075928 1895.100098,485.075928 1906.806030,485.075928 
	C1906.806030,497.153870 1906.806030,508.863617 1906.806030,520.960632 
	C1871.108887,520.960632 1835.426880,520.960632 1799.419189,520.960632 
	C1799.419189,471.882812 1799.419189,422.987030 1799.419189,373.263641 
	C1803.182983,373.263641 1806.945435,373.263611 1810.707764,373.263611 
	C1819.036621,373.263641 1827.372803,373.471069 1835.691040,373.173645 
	C1839.678345,373.031097 1840.774414,374.258392 1840.756836,378.222870 
	C1840.608398,411.704010 1840.672119,445.186035 1840.672241,478.667816 
	C1840.672241,480.622131 1840.672363,482.576447 1840.672363,485.075928 
	C1851.272583,485.075928 1861.386230,485.075928 1872.000000,485.075928 
z"/>
<path fill="#1E3F66" opacity="1.000000" stroke="none" 
	d="
M1098.368408,516.217896 
	C1098.149780,517.713318 1098.069702,518.850708 1097.992798,520.414917 
	C1096.606323,520.985474 1095.216675,521.129395 1093.122437,520.854431 
	C1090.609009,520.289612 1088.800415,520.018005 1086.991577,520.016235 
	C1054.827637,519.984497 1022.663635,519.985596 990.499756,519.979614 
	C990.393677,518.327759 990.195618,516.676025 990.195007,515.024109 
	C990.178223,469.727936 990.261475,424.431427 990.067627,379.136078 
	C990.046448,374.182892 991.569153,373.004028 996.260132,373.167786 
	C1006.406372,373.521973 1016.579529,373.507599 1026.728271,373.199951 
	C1031.056519,373.068695 1031.930786,374.617279 1031.913940,378.610840 
	C1031.771851,412.082764 1031.833130,445.555603 1031.833252,479.028137 
	C1031.833252,480.831787 1031.833252,482.635437 1031.833252,484.994202 
	C1054.082520,484.994202 1075.970703,484.994202 1098.506958,484.994202 
	C1098.506958,495.645721 1098.506958,505.752808 1098.368408,516.217896 
z"/>
<path fill="#1F4067" opacity="1.000000" stroke="none" 
	d="
M876.108521,373.268311 
	C887.547729,373.268372 898.499329,373.268372 909.942078,373.268372 
	C909.942078,410.772766 909.942078,447.674469 909.942078,485.079773 
	C932.346619,485.079773 954.256104,485.079773 976.530273,485.079773 
	C976.530273,497.287933 976.530273,508.990479 976.530273,521.016479 
	C940.730652,521.016479 905.145325,521.016479 869.160645,521.016479 
	C869.160645,471.968292 869.160645,422.924500 869.160645,373.268280 
	C871.388000,373.268280 873.504517,373.268280 876.108521,373.268311 
z"/>
<path fill="#204168" opacity="1.000000" stroke="none" 
	d="
M663.571899,224.669250 
	C673.566650,208.064331 687.615051,197.464020 706.484558,194.622040 
	C730.113403,191.063217 752.471924,198.452438 764.645447,219.286942 
	C765.132324,220.120300 765.499329,221.023712 766.039368,222.135773 
	C757.002808,228.577591 748.128540,234.903732 738.844360,241.522034 
	C735.634338,234.623535 731.576599,229.156509 724.357727,226.941635 
	C711.636169,223.038391 700.192932,227.964081 695.046692,240.678055 
	C689.616455,254.093552 689.495422,267.772888 697.633301,280.310333 
	C707.804565,295.980621 728.190002,294.737335 736.959778,278.244904 
	C737.335754,277.537811 737.742737,276.847137 738.415527,275.650085 
	C747.577515,281.126495 756.571533,286.371399 765.346069,291.961029 
	C766.175903,292.489624 766.285645,295.527832 765.611511,296.815399 
	C761.061584,305.505066 754.076172,311.931396 745.320129,316.115845 
	C699.808044,337.865631 662.919800,306.769775 655.935059,268.406799 
	C653.142639,253.069931 656.106445,238.636703 663.571899,224.669250 
z"/>
<path fill="#214268" opacity="1.000000" stroke="none" 
	d="
M1244.015381,322.138824 
	C1239.886108,322.138824 1236.253540,322.138824 1232.045898,322.138824 
	C1232.045898,289.962372 1232.045898,258.241638 1232.045898,225.960175 
	C1219.583618,225.960175 1207.684692,225.960175 1195.143311,225.960175 
	C1195.143311,215.800934 1195.082886,206.191330 1195.255371,196.585892 
	C1195.269531,195.797485 1196.764038,194.602264 1197.755249,194.363998 
	C1199.331909,193.985046 1201.063965,194.248215 1202.730347,194.248169 
	C1235.059204,194.247314 1267.388428,194.306961 1299.716675,194.169449 
	C1303.563599,194.153107 1304.999878,195.040619 1304.852295,199.151367 
	C1304.537354,207.914520 1304.755859,216.696823 1304.755859,225.775085 
	C1292.247437,225.775085 1280.460083,225.775085 1268.197754,225.775085 
	C1268.197754,257.824249 1268.197754,289.558868 1268.197754,322.138824 
	C1260.003296,322.138824 1252.257690,322.138824 1244.015381,322.138824 
z"/>
<path fill="#1F4067" opacity="1.000000" stroke="none" 
	d="
M843.970398,436.000000 
	C843.970398,464.612579 843.970398,492.725159 843.970398,521.085083 
	C830.132385,521.085083 816.874268,521.085083 803.294250,521.085083 
	C803.294250,471.985352 803.294250,423.057861 803.294250,373.699585 
	C816.576172,373.699585 829.939819,373.699585 843.970398,373.699585 
	C843.970398,394.316803 843.970398,414.908386 843.970398,436.000000 
z"/>
<path fill="#204168" opacity="1.000000" stroke="none" 
	d="
M1047.044434,194.249023 
	C1055.677856,194.249069 1063.819214,194.249069 1072.391113,194.249069 
	C1072.391113,236.857162 1072.391113,279.061432 1072.391113,321.702271 
	C1060.805298,321.702271 1049.115723,321.702271 1037.112793,321.702271 
	C1037.112793,279.415771 1037.112793,237.180069 1037.112793,194.248993 
	C1040.333496,194.248993 1043.442993,194.248993 1047.044434,194.249023 
z"/>
<path fill="#224269" opacity="1.000000" stroke="none" 
	d="
M990.571045,520.331848 
	C1022.663635,519.985596 1054.827637,519.984497 1086.991577,520.016235 
	C1088.800415,520.018005 1090.609009,520.289612 1092.714355,520.731567 
	C1092.036011,521.156067 1091.061157,521.396362 1090.085938,521.396973 
	C1058.201050,521.416748 1026.316162,521.421814 994.431396,521.382751 
	C993.168091,521.381226 991.905396,520.927246 990.571045,520.331848 
z"/>
<path fill="#F4F5F5" opacity="1.000000" stroke="none" 
	d="
M1467.403564,435.181213 
	C1465.015259,438.935303 1461.908203,440.142761 1457.881226,440.040161 
	C1450.443970,439.850708 1442.998535,439.986023 1435.270264,439.986023 
	C1435.270264,429.876312 1435.270264,420.152161 1435.270264,410.001770 
	C1443.938477,410.001770 1452.701538,409.406494 1461.335205,410.207306 
	C1467.267090,410.757568 1471.357422,420.475861 1469.809448,428.314728 
	C1469.366211,430.559052 1468.384888,432.697052 1467.403564,435.181213 
z"/>
<path fill="#F4F5F5" opacity="1.000000" stroke="none" 
	d="
M1323.239258,412.610901 
	C1328.371582,418.877014 1329.239746,428.378876 1325.401123,434.760223 
	C1323.407715,438.073761 1320.706787,440.131470 1316.490356,440.033875 
	C1308.872070,439.857513 1301.246826,439.983948 1293.282471,439.983948 
	C1293.282471,429.833160 1293.282471,419.981750 1293.282471,409.824127 
	C1301.531372,409.824127 1309.635010,409.678802 1317.725708,409.937897 
	C1319.497559,409.994629 1321.223145,411.492432 1323.239258,412.610901 
z"/>
<path fill="#EFF0F2" opacity="1.000000" stroke="none" 
	d="
M1159.607910,464.635193 
	C1155.953003,464.648285 1157.422729,462.795135 1157.828735,461.318970 
	C1161.675903,447.332092 1165.509888,433.341583 1170.318848,419.198273 
	C1174.280029,434.078033 1178.241089,448.957764 1182.415527,464.638489 
	C1174.542114,464.638489 1167.292969,464.638489 1159.607910,464.635193 
z"/>
<path fill="#EFF0F2" opacity="1.000000" stroke="none" 
	d="
M1707.945435,451.936951 
	C1711.091309,440.548767 1714.191528,429.567169 1717.567261,417.609985 
	C1721.828491,433.668488 1725.856934,448.849854 1729.978516,464.381866 
	C1721.493408,464.381866 1713.416138,464.381866 1704.659180,464.381866 
	C1705.784546,460.201447 1706.842163,456.272461 1707.945435,451.936951 
z"/>
<path fill="#F2F2F3" opacity="1.000000" stroke="none" 
	d="
M1845.942139,225.906982 
	C1850.106567,226.485443 1854.390015,226.063416 1857.333984,227.849411 
	C1863.572510,231.633942 1863.903076,244.720230 1858.428711,249.667816 
	C1857.379150,250.616531 1855.851318,251.552124 1854.520264,251.587433 
	C1847.419312,251.775772 1840.310547,251.676163 1832.981812,251.676163 
	C1832.981812,242.938065 1832.981812,234.696533 1832.981812,225.906982 
	C1837.233276,225.906982 1841.343872,225.906982 1845.942139,225.906982 
z"/>
<path fill="#F2F2F3" opacity="1.000000" stroke="none" 
	d="
M975.658691,249.838593 
	C972.508423,250.656357 969.666931,251.563095 966.788757,251.700439 
	C961.362244,251.959381 955.914612,251.775192 950.189209,251.775192 
	C950.189209,243.098343 950.189209,234.872833 950.189209,226.004547 
	C957.276733,226.004547 964.526184,225.604172 971.704590,226.145538 
	C976.476196,226.505417 980.380554,233.184998 979.596741,239.533646 
	C979.171265,242.980026 977.216125,246.237534 975.658691,249.838593 
z"/>
<path fill="#F4F5F5" opacity="1.000000" stroke="none" 
	d="
M1384.543457,232.455017 
	C1395.724121,247.132462 1395.808594,262.700836 1388.625977,278.405304 
	C1384.578613,287.254303 1376.952637,291.809601 1366.806763,291.073853 
	C1357.133179,290.372345 1350.708130,284.804840 1347.087158,276.414337 
	C1341.924316,264.450867 1342.000610,252.028534 1347.284912,240.128128 
	C1354.290161,224.352554 1371.114502,220.946152 1384.543457,232.455017 
z"/>
<path fill="#F2F2F3" opacity="1.000000" stroke="none" 
	d="
M1487.039795,225.903305 
	C1489.358398,225.903351 1491.191162,225.986969 1493.014038,225.887146 
	C1497.698730,225.630600 1502.443970,225.908768 1504.458374,230.878708 
	C1506.838867,236.751907 1507.071899,242.967377 1503.560181,248.585129 
	C1502.642456,250.053436 1500.373291,251.408951 1498.649048,251.508942 
	C1492.569580,251.861450 1486.457397,251.646027 1480.147949,251.646027 
	C1480.147949,242.967606 1480.147949,234.727509 1480.147949,225.903305 
	C1482.351440,225.903305 1484.450439,225.903305 1487.039795,225.903305 
z"/>
</svg>