<?xml version="1.0" encoding="UTF-8"?><svg id="Layer_1" xmlns="http://www.w3.org/2000/svg" viewBox="0 0 512 512"><defs><style>.cls-1{fill:#fff;}</style></defs><path class="cls-1" d="m0,0h512v512H0c0-170.67,0-341.33,0-512Zm40,256.66c0,36.83.03,73.65-.02,110.48-.02,10.66,3.74,18.8,13.55,24.15,14.3,7.79,28.32,16.11,42.41,24.28,24.79,14.37,49.56,28.8,74.33,43.21,21.66,12.61,43.25,25.35,65,37.81,6.57,3.76,13.18,8.97,21.27,7.21,6.2-1.35,12.37-3.91,17.91-7.05,27.89-15.84,55.58-32.02,83.31-48.13,32.49-18.87,64.84-37.97,97.46-56.61,10.76-6.15,16.4-14.88,16.41-27.06.11-74.15.16-148.3.06-222.45-.01-8.37-2.79-15.72-10.87-20.17-11.4-6.28-22.65-12.84-33.95-19.3-25.13-14.39-50.28-28.74-75.37-43.2-27.5-15.85-54.86-31.96-82.45-47.65-8.33-4.74-17.79-5.02-26.01-.4-28.67,16.1-57,32.79-85.42,49.34-34.73,20.23-69.37,40.59-104.13,60.77-8.89,5.16-13.4,12.8-13.44,22.8-.15,37.32-.06,74.65-.06,111.98Z"/><path d="m40,256.66c0-37.33-.09-74.65.06-111.98.04-10,4.55-17.64,13.44-22.8,34.76-20.17,69.4-40.54,104.13-60.77,28.41-16.55,56.75-33.24,85.42-49.34,8.22-4.61,17.68-4.34,26.01.4,27.59,15.69,54.95,31.8,82.45,47.65,25.09,14.46,50.24,28.81,75.37,43.2,11.3,6.47,22.55,13.02,33.95,19.3,8.08,4.45,10.86,11.79,10.87,20.17.11,74.15.05,148.3-.06,222.45-.02,12.18-5.65,20.91-16.41,27.06-32.61,18.65-64.97,37.74-97.46,56.61-27.73,16.11-55.43,32.29-83.31,48.13-5.54,3.15-11.71,5.71-17.91,7.05-8.09,1.76-14.7-3.45-21.27-7.21-21.75-12.46-43.34-25.2-65-37.81-24.77-14.42-49.54-28.84-74.33-43.21-14.09-8.17-28.11-16.49-42.41-24.28-9.81-5.34-13.56-13.49-13.55-24.15.05-36.83.02-73.65.02-110.48Zm352.77-78.68c-36.88-64.73-115.64-97.72-192.55-69.82-62.55,22.68-112.04,88.6-100.96,169.89,9.16,67.23,61.68,127.37,142.3,135.65,64.49,6.62,124.07-30.09,150.36-78.76-.17-.27-.27-.66-.52-.8-15.58-9.08-31.32-17.9-46.66-27.38-3.56-2.2-4.59-1.42-6.29,1.4-10.32,17.09-25.12,28.88-43.12,37.26-18.38,8.55-37.63,11.05-57.15,7.33-24.09-4.59-44.14-16.83-59.38-36.46-18.98-24.44-24.99-51.91-18.61-81.93,4.59-21.6,16-39.68,32.87-53.64,19.71-16.31,42.51-23.7,68.55-21.95,16.04,1.08,30.84,5.11,44.21,13.47,7.93,4.96,15.01,11.51,21.76,18.08,5.22,5.08,9.33,11.31,14.09,17.21,16.86-9.74,33.98-19.64,51.11-29.54Z"/><path class="cls-1" d="m392.77,177.98c-17.12,9.9-34.25,19.8-51.11,29.54-4.75-5.9-8.86-12.13-14.09-17.21-6.75-6.57-13.82-13.12-21.76-18.08-13.36-8.35-28.17-12.39-44.21-13.47-26.04-1.76-48.84,5.63-68.55,21.95-16.87,13.96-28.28,32.04-32.87,53.64-6.38,30.02-.37,57.49,18.61,81.93,15.24,19.63,35.29,31.87,59.38,36.46,19.52,3.72,38.78,1.22,57.15-7.33,18-8.37,32.79-20.16,43.12-37.26,1.7-2.81,2.73-3.6,6.29-1.4,15.33,9.48,31.07,18.3,46.66,27.38.25.14.35.53.52.8-26.29,48.67-85.87,85.38-150.36,78.76-80.62-8.27-133.14-68.41-142.3-135.65-11.07-81.29,38.42-147.2,100.96-169.89,76.92-27.89,155.67,5.09,192.55,69.82Z"/></svg>