<?xml version="1.0" encoding="UTF-8"?><svg id="Layer_1" xmlns="http://www.w3.org/2000/svg" viewBox="0 0 512 512"><defs><style>.cls-1{fill:#fff;}.cls-2{fill:#262324;}.cls-3{fill:#fefeff;}.cls-4{fill:#fefefe;}</style></defs><path class="cls-2" d="m275,512h-40c-.66-.34-1.29-.89-1.98-.98-9.81-1.38-19.73-2.18-29.42-4.15-19.43-3.94-38.12-10.27-56.1-18.75-19.86-9.36-38.72-20.36-54.91-35.2-12.86-11.79-25.68-23.84-36.89-37.15-15.19-18.04-26.8-38.57-35.92-60.43-8.87-21.26-15.11-43.18-17.78-66.1C1.51,285.14.67,281.08,0,277c0-14,0-28,0-42,.67-4.08,1.2-8.19,2.02-12.24,2.77-13.62,4.76-27.47,8.65-40.77,11.03-37.73,30.58-70.86,56.89-99.96,12.29-13.6,26.3-25.41,41.27-35.93,21.08-14.82,43.84-26.57,68.64-33.76,13.3-3.85,27-6.37,40.56-9.29,5.93-1.28,11.98-2.05,17.97-3.04,13,0,26,0,39,0,2.4.67,4.76,1.53,7.2,1.97,11.62,2.07,23.37,3.52,34.87,6.1,43.58,9.77,81,31.35,113.58,61.36,10.39,9.57,19.86,20.35,28.56,31.51,16.86,21.62,29.7,45.63,38.57,71.61,5.38,15.76,9.42,31.88,11.28,48.51.56,5.03,1.93,9.96,2.93,14.94v41c-.67,2.07-1.6,4.09-1.95,6.21-1.84,11.04-2.76,22.3-5.42,33.13-5.75,23.43-14.44,45.79-26.54,66.79-15.4,26.73-35,49.97-58.58,69.71-19.92,16.68-42.09,30.01-66.15,39.94-21.39,8.83-43.53,14.92-66.64,17.27-3.93.4-7.82,1.29-11.72,1.95Zm-10.73-92.91c.89,6.58,1.79,13.35,2.74,20.11.97,6.91,1.93,13.83,3.12,20.71.12.72,1.8,1.72,2.68,1.65,4.03-.34,8.04-.99,12.05-1.56,24.41-3.49,46.92-11.25,66.23-27.41,14.01-11.72,24.54-25.9,31.74-42.37,5.76-13.19,10.33-26.93,14.88-40.6,7.45-22.38,14.39-44.93,21.65-67.38,11.67-36.09,23.41-72.17,35.15-108.24,3.19-9.8,6.49-19.57,9.9-29.82-20.39,0-40.04-.05-59.7.13-1.23.01-3.18,1.67-3.55,2.93-1.94,6.63-3.45,13.39-5.17,20.09-5.64,22.01-11.32,44.01-16.97,66.02-3.69,14.36-7.33,28.74-11.02,43.1-4.38,17.05-8.8,34.09-13.2,51.13l-.85.04c-14.77-61.08-29.54-122.17-44.27-183.13h-63.65c.12,1.3.03,2.32.32,3.23,3.46,10.91,7.05,21.77,10.45,32.69,7.9,25.43,15.63,50.91,23.57,76.33,8.41,26.93,17,53.81,25.49,80.72,5.38,17.05,10.73,34.11,16.01,51.19.38,1.22.55,3.17-.13,3.93-6.6,7.38-13.58,14.5-23.41,17.39-11.24,3.3-22.64,6.08-34.05,9.11Zm-48.79-108.26c-3.23,1.86-6.13,3.52-9.01,5.2-14.43,8.38-29.51,13.36-46.55,10.02-11.58-2.27-20.18-8.31-26.03-18.45-7.2-12.48-9.31-26.35-9.69-40.33-.3-11.14.96-22.34,1.89-33.48.93-11.11,4.2-21.55,9.84-31.27,6.25-10.77,15.55-17.01,27.72-18.42,18.01-2.09,34.46,2.53,49.14,13.16,2.51,1.81,3.6,1.19,5.27-1.16,6.9-9.69,13.83-19.36,21.23-28.67,2.47-3.11,1.51-4.66-.84-6.44-19.63-14.84-41.56-23.77-66.33-23.83-11.73-.03-23.82.43-35.14,3.18-20.93,5.09-38.48,16.68-51.59,33.97-17.28,22.79-24.24,49.32-25.16,77.37-.38,11.69,1.09,23.59,2.97,35.19,3.71,22.92,12.87,43.26,29.8,59.88,16.95,16.64,37.69,24.78,60.61,26.93,12.16,1.14,24.69-.42,36.93-1.81,17.06-1.93,32.02-9.51,45.67-19.66,5.49-4.08,5.4-4.33,1.5-9.9-7.36-10.51-14.79-20.96-22.23-31.49Z"/><path class="cls-1" d="m512,236c-1-4.98-2.37-9.92-2.93-14.94-1.86-16.63-5.9-32.75-11.28-48.51-8.87-25.98-21.72-49.99-38.57-71.61-8.7-11.16-18.17-21.94-28.56-31.51-32.58-30.01-70-51.59-113.58-61.36-11.5-2.58-23.25-4.03-34.87-6.1-2.44-.43-4.8-1.3-7.2-1.97,78.92,0,157.83,0,237,0v236Z"/><path class="cls-1" d="m275,512c3.91-.66,7.79-1.55,11.72-1.95,23.1-2.35,45.25-8.45,66.64-17.27,24.06-9.93,46.22-23.26,66.15-39.94,23.57-19.74,43.17-42.98,58.58-69.71,12.1-20.99,20.78-43.36,26.54-66.79,2.66-10.83,3.59-22.09,5.42-33.13.35-2.12,1.29-4.14,1.95-6.21v235h-237Z"/><path class="cls-1" d="m236,0c-5.99,1-12.04,1.77-17.97,3.04-13.56,2.92-27.26,5.44-40.56,9.29-24.8,7.19-47.56,18.94-68.64,33.76-14.97,10.52-28.98,22.33-41.27,35.93-26.3,29.1-45.85,62.23-56.89,99.96-3.89,13.3-5.88,27.15-8.65,40.77C1.2,226.81.67,230.92,0,235c0-78.25,0-156.5,0-235h236Z"/><path class="cls-1" d="m0,277c.67,4.08,1.51,8.14,1.99,12.24,2.67,22.92,8.92,44.84,17.78,66.1,9.12,21.87,20.73,42.39,35.92,60.43,11.21,13.31,24.03,25.37,36.89,37.15,16.2,14.84,35.06,25.84,54.91,35.2,17.98,8.48,36.67,14.81,56.1,18.75,9.69,1.96,19.61,2.77,29.42,4.15.69.1,1.32.64,1.98.98H0c0-78.33,0-156.67,0-235Z"/><path class="cls-4" d="m264.27,419.09c11.41-3.03,22.81-5.8,34.05-9.11,9.83-2.89,16.81-10.01,23.41-17.39.68-.76.5-2.72.13-3.93-5.27-17.08-10.63-34.14-16.01-51.19-8.49-26.91-17.07-53.79-25.49-80.72-7.94-25.42-15.67-50.9-23.57-76.33-3.39-10.93-6.99-21.79-10.45-32.69-.29-.91-.2-1.93-.32-3.23h63.65c14.74,60.96,29.51,122.05,44.27,183.13l.85-.04c4.4-17.04,8.82-34.08,13.2-51.13,3.69-14.36,7.34-28.73,11.02-43.1,5.65-22.01,11.33-44.01,16.97-66.02,1.72-6.7,3.23-13.46,5.17-20.09.37-1.26,2.32-2.92,3.55-2.93,19.65-.18,39.31-.13,59.7-.13-3.4,10.24-6.71,20.01-9.9,29.82-11.74,36.07-23.48,72.14-35.15,108.24-7.26,22.45-14.2,44.99-21.65,67.38-4.55,13.68-9.12,27.42-14.88,40.6-7.2,16.47-17.72,30.65-31.74,42.37-19.32,16.15-41.82,23.91-66.23,27.41-4.01.57-8.02,1.23-12.05,1.56-.88.07-2.56-.94-2.68-1.65-1.19-6.88-2.15-13.8-3.12-20.71-.95-6.76-1.84-13.53-2.74-20.11Z"/><path class="cls-3" d="m215.48,310.83c7.44,10.53,14.87,20.99,22.23,31.49,3.9,5.57,3.99,5.82-1.5,9.9-13.65,10.15-28.61,17.73-45.67,19.66-12.24,1.39-24.77,2.95-36.93,1.81-22.91-2.15-43.66-10.29-60.61-26.93-16.93-16.63-26.09-36.96-29.8-59.88-1.88-11.6-3.35-23.49-2.97-35.19.92-28.05,7.88-54.58,25.16-77.37,13.11-17.29,30.66-28.88,51.59-33.97,11.32-2.75,23.4-3.21,35.14-3.18,24.77.06,46.7,8.99,66.33,23.83,2.35,1.78,3.31,3.33.84,6.44-7.39,9.31-14.33,18.98-21.23,28.67-1.67,2.35-2.77,2.97-5.27,1.16-14.68-10.63-31.13-15.25-49.14-13.16-12.17,1.41-21.47,7.65-27.72,18.42-5.64,9.72-8.91,20.16-9.84,31.27-.93,11.14-2.19,22.35-1.89,33.48.38,13.98,2.49,27.84,9.69,40.33,5.85,10.14,14.45,16.18,26.03,18.45,17.04,3.34,32.12-1.64,46.55-10.02,2.89-1.68,5.78-3.33,9.01-5.2Z"/></svg>