<?xml version="1.0" encoding="UTF-8"?><svg id="Layer_1" xmlns="http://www.w3.org/2000/svg" viewBox="0 0 512 512"><defs><style>.cls-1{fill:#272425;}.cls-2{fill:#fff;}.cls-3{fill:#262324;}.cls-4{fill:#3a393a;}.cls-5{fill:#434345;}.cls-6{fill:#272324;}.cls-7{fill:#fefefe;}</style></defs><path class="cls-2" d="m0,0h512v512H0V0Zm235.2,290.99l.8.84h23v-42.6q0-14.36,14.24-14.24c4.59.04,7.64,2.94,7.76,7.59.36,14.76.65,29.51.96,44.27.03,1.61,0,3.22,0,4.91h23.04c0-18.17.12-36.12-.11-54.06-.04-3.26-.89-6.88-2.49-9.68-4.77-8.35-12.62-10.96-21.94-12.27-15.64-2.21-30.33,1.29-45.26,4.37v70.87Zm-146.2-110.83c-.27.28-.55.56-.82.83v34.72c-1.75.1-3.02.23-4.29.24-5.82.04-11.78-.74-17.44.22-13.32,2.26-22.48,10.14-27.42,22.8-3.48,8.93-3.95,18.21-1.76,27.33,2,8.32,6.27,15.68,13.93,20.31,7.59,4.59,15.99,7.28,24.81,7.24,9.49-.04,18.99-1.01,28.45-1.95,7.07-.7,7.68-1.68,7.68-8.69,0-32.46,0-64.91,0-97.37v-5.68h-23.13Zm302.64,54.91c2.42-5.7,4.7-11.05,7.26-17.1-2.8,0-4.34.26-5.75-.04-15-3.23-30.13-2.75-45.13-.78-9.6,1.26-18.67,5.36-25.11,12.71-9.47,10.81-12.21,23.95-8.81,37.86,3.65,14.89,13.9,25.72,31.72,25.22,5.62-.16,11.21-.95,17.23-1.49-.75,6.74-1.18,13.38-8.3,17.36-7.69,4.3-15.81,3.75-23.86,2.5-5.26-.82-10.31-2.99-15.9-4.7,0,6.69-.19,12.68.15,18.64.07,1.31,1.79,3.16,3.15,3.65,12.73,4.66,26.11,4.73,38.82,1.68,12.67-3.03,23.01-10.79,26.28-24.61,1.53-6.47,2.47-13.21,2.61-19.85.36-16.94.12-33.89.12-51.06h5.52Zm5.28,19.08c-.29,16.99,5.57,29.41,19.77,36.64,8.04,4.09,16.79,5.05,26.03,3.37,11.47-2.09,20.79-7,26.68-17.16,6.34-10.95,7.17-23,4.41-35.01-1.86-8.09-5.96-15.07-13.26-20.26-10-7.12-21.15-7.48-32.31-6.48-8.4.75-16.4,4.51-21.89,11.23-6.77,8.3-10,18.14-9.43,27.68Zm-173.89,36.87c0-19.23.23-37.87-.09-56.49-.17-9.98-4.59-15.52-14.05-17.95-10.98-2.82-22.23-2.4-32.92,1.08-12.91,4.2-12.81,4.67-11.94,15.9.17,2.15.91,4.26,1.47,6.75,9.59-5.42,19.56-6.97,30.05-6.39,4.08.23,5.78,1.77,5.45,5.77-.11,1.3-.02,2.61-.02,4.16-5.92,1.09-11.63,2.04-17.3,3.19-14.07,2.84-25.27,10.06-23.82,27.33.69,8.18,5.09,14.99,13.68,17.53,16.61,4.92,33.05.76,49.47-.87Zm-96.21-74.24c-.13,1.31-.33,2.43-.35,3.55-.5,22.07-.87,44.14-1.54,66.2-.22,7.33-2.56,14.18-8.25,19.16-4.17,3.66-8.87,6.73-13.34,10.06,5.09,2.48,10.23,5.09,15.47,7.48,2.25,1.03,5.47,2.94,6.94,2.11,5.03-2.82,10.06-6.12,14.04-10.25,7.73-8.03,9.74-18.74,10.02-29.25.59-22.93.18-45.89.18-69.06h-23.17Zm23.08-36.54h-23.7v23.45h23.7v-23.45Z"/><path class="cls-1" d="m391.64,235.08h-5.52c0,17.17.24,34.12-.12,51.06-.14,6.64-1.08,13.38-2.61,19.85-3.26,13.82-13.61,21.58-26.28,24.61-12.72,3.04-26.1,2.98-38.82-1.68-1.36-.5-3.07-2.35-3.15-3.65-.34-5.96-.15-11.95-.15-18.64,5.59,1.7,10.64,3.88,15.9,4.7,8.05,1.25,16.18,1.8,23.86-2.5,7.11-3.98,7.55-10.62,8.3-17.36-6.02.54-11.61,1.33-17.23,1.49-17.82.5-28.07-10.33-31.72-25.22-3.41-13.91-.66-27.05,8.81-37.86,6.44-7.35,15.51-11.45,25.11-12.71,15-1.97,30.13-2.45,45.13.78,1.41.3,2.95.04,5.75.04-2.57,6.05-4.84,11.4-7.26,17.1Zm-29.24-1.25c-9.43.98-18.04,2.06-22.26,10.52-4.09,8.22-3.89,17.28,1.71,24.67,5.44,7.17,13.48,5.36,20.54,3.61v-38.8Z"/><path class="cls-6" d="m89,180.16h23.13v5.68c0,32.46,0,64.91,0,97.37,0,7.01-.6,7.99-7.68,8.69-9.46.94-18.96,1.9-28.45,1.95-8.81.04-17.21-2.64-24.81-7.24-7.65-4.63-11.92-11.99-13.93-20.31-2.19-9.12-1.73-18.4,1.76-27.33,4.94-12.66,14.1-20.54,27.42-22.8,5.66-.96,11.62-.18,17.44-.22,1.27,0,2.54-.14,4.29-.24,0-11.82,0-23.27,0-34.72.27-.28.55-.56.82-.83Zm-1.18,54.88c-8.7.36-18.2-2.74-23.73,6.91-4.82,8.41-4.91,17.47.3,25.52,5.54,8.57,14.77,6.65,23.43,6.36v-38.79Z"/><path class="cls-1" d="m396.92,254.16c-.57-9.54,2.66-19.38,9.43-27.68,5.49-6.73,13.48-10.48,21.89-11.23,11.16-1,22.31-.63,32.31,6.48,7.3,5.19,11.4,12.17,13.26,20.26,2.76,12.01,1.93,24.06-4.41,35.01-5.88,10.16-15.2,15.07-26.68,17.16-9.24,1.69-17.99.72-26.03-3.37-14.2-7.22-20.07-19.64-19.77-36.64Zm54.22.53c-.37-.11-.75-.21-1.12-.32,0-1.99.03-3.98,0-5.98-.1-6.36-5.85-13.44-11.65-14.37-7.37-1.18-12.6,2.63-15.52,10.19-2.54,6.59-2.13,13.08-.49,19.54,1.32,5.19,4.41,9.74,9.88,11.06,5.78,1.4,11.73.21,14.65-5.4,2.31-4.44,2.9-9.79,4.26-14.73Z"/><path class="cls-6" d="m235.2,290.99v-70.87c14.93-3.07,29.62-6.57,45.26-4.37,9.32,1.32,17.17,3.92,21.94,12.27,1.6,2.81,2.45,6.42,2.49,9.68.23,17.94.11,35.89.11,54.06h-23.04c0-1.69.03-3.3,0-4.91-.31-14.76-.61-29.52-.96-44.27-.11-4.65-3.16-7.55-7.76-7.59q-14.24-.12-14.24,14.24v42.6h-23c-.27-.28-.53-.56-.8-.84Z"/><path class="cls-1" d="m223.03,291.02c-16.42,1.64-32.85,5.79-49.47.87-8.59-2.54-12.99-9.36-13.68-17.53-1.46-17.27,9.74-24.49,23.82-27.33,5.67-1.14,11.38-2.1,17.3-3.19,0-1.55-.09-2.86.02-4.16.33-3.99-1.37-5.54-5.45-5.77-10.49-.58-20.46.97-30.05,6.39-.56-2.49-1.31-4.6-1.47-6.75-.87-11.22-.97-11.7,11.94-15.9,10.69-3.48,21.93-3.9,32.92-1.08,9.46,2.43,13.87,7.97,14.05,17.95.32,18.63.09,37.26.09,56.49Zm-21.04-31.68c-6.08,1.65-11.73,2.56-16.76,4.85-2.05.93-4.01,4.98-3.74,7.35.34,2.94,2.74,5.84,6.92,5.51,3.14-.25,6.36.27,9.45-.19,1.48-.22,3.82-1.79,3.94-2.92.45-4.56.19-9.2.19-14.6Z"/><path class="cls-1" d="m126.83,216.78h23.17c0,23.17.41,46.13-.18,69.06-.27,10.51-2.29,21.22-10.02,29.25-3.98,4.13-9,7.43-14.04,10.25-1.47.82-4.69-1.09-6.94-2.11-5.24-2.39-10.38-5-15.47-7.48,4.47-3.34,9.16-6.41,13.34-10.06,5.69-4.99,8.03-11.83,8.25-19.16.67-22.06,1.04-44.13,1.54-66.2.03-1.12.22-2.24.35-3.55Z"/><path class="cls-3" d="m149.91,180.25v23.45h-23.7v-23.45h23.7Z"/><path class="cls-4" d="m89,180.16c-.27.28-.55.56-.82.83.27-.28.55-.56.82-.83Z"/><path class="cls-5" d="m235.2,290.99c.27.28.53.56.8.84-.27-.28-.53-.56-.8-.84Z"/><path class="cls-7" d="m362.4,233.83v38.8c-7.06,1.75-15.11,3.56-20.54-3.61-5.6-7.39-5.8-16.45-1.71-24.67,4.21-8.46,12.82-9.54,22.26-10.52Z"/><path class="cls-7" d="m87.83,235.04v38.79c-8.66.29-17.89,2.21-23.43-6.36-5.21-8.05-5.12-17.11-.3-25.52,5.54-9.65,15.04-6.55,23.73-6.91Z"/><path class="cls-7" d="m451.14,254.69c-1.36,4.94-1.95,10.28-4.26,14.73-2.92,5.61-8.87,6.8-14.65,5.4-5.47-1.33-8.57-5.87-9.88-11.06-1.64-6.46-2.05-12.95.49-19.54,2.92-7.56,8.15-11.37,15.52-10.19,5.81.93,11.56,8.01,11.65,14.37.03,1.99,0,3.98,0,5.98.37.11.75.21,1.12.32Z"/><path class="cls-7" d="m202,259.34c0,5.4.27,10.03-.19,14.6-.11,1.14-2.45,2.71-3.94,2.92-3.09.45-6.31-.06-9.45.19-4.18.34-6.58-2.57-6.92-5.51-.27-2.37,1.69-6.42,3.74-7.35,5.03-2.29,10.67-3.2,16.76-4.85Z"/></svg>