<?xml version="1.0" encoding="UTF-8"?><svg id="Layer_1" xmlns="http://www.w3.org/2000/svg" viewBox="0 0 512 256"><defs><style>.cls-1{fill:#dfdddd;}.cls-2{fill:#fff;}.cls-3{fill:#242021;}.cls-4{fill:#fbfcfd;}.cls-5{fill:#fdfefe;}.cls-6{fill:#cac8c8;}.cls-7{fill:#f9f9fa;}.cls-8{fill:#f5f5f5;}.cls-9{fill:#656364;}.cls-10{fill:#262324;}.cls-11{fill:#282425;}.cls-12{fill:#181515;}.cls-13{fill:#fefeff;}.cls-14{fill:#aeabab;}.cls-15{fill:#2a2627;}.cls-16{fill:#fafafb;}.cls-17{fill:#e9e7e7;}.cls-18{fill:#fbfcfc;}.cls-19{fill:#9a9799;}.cls-20{fill:#edecec;}.cls-21{fill:#f8f8f8;}.cls-22{fill:#231f20;}.cls-23{fill:#2d292a;}</style></defs><path class="cls-2" d="m512,256H0V0h512v256Zm-348.27-36.29c3.07-.08,6.14-.08,9.2-.25,2.47-.14,4.93-.43,7.39-.74,2.77-.35,5.52-1.1,8.28-1.14,3.63-.05,6.99-.99,10.33-2.17,3.8-1.35,7.61-2.22,11.55-.52.2.08.59-.03.77-.19,1.51-1.42,3.4-2.02,5.35-2.45,2.71-.6,5.45-1.09,8.16-1.7,1.43-.32,2.42-.94,2.64-2.75.33-2.63-.58-4.25-3.44-4.3-2-.04-4,.04-6,0-1.6-.03-3.24.02-4.8-.31-1.06-.22-2-1.02-3.09-1.61-1.96,2.48-4.63,2.85-7.65,2.16-1.78-.41-3.57-.79-5.38-.96-1.69-.16-3.41,0-5.12-.04-.65-.02-1.34-.1-1.95-.33-.61-.23-1.05-.65-.44-1.41.91-1.13,1.77-2.31,2.62-3.49.72-1.01,1.47-2.02,2.05-3.11.62-1.16.36-1.8-.9-2.2-1.51-.48-3.13-.47-4.43.45-1.89,1.33-3.61,2.89-5.4,4.36-.17.15-.33.3-.5.46-1.11,1.17-2.28,2.29-3.32,3.52-.71.83-1.6.95-2.47.73-4.5-1.11-9.03-2.15-13.46-3.5-11.4-3.47-21.58-9.23-30.77-16.78-4.67-3.83-8.33-8.61-12.21-13.17-4.03-4.73-7.95-9.58-10.58-15.23-1.95-4.19-3.54-8.59-4.91-13.01-1.27-4.11-2.15-8.35-2.96-12.58-.57-2.97-.74-6.01-1.05-9.03-.44-4.33-.87-8.65-1.24-12.99-.24-2.79-.36-5.59-.51-8.39-.18-3.25-.64-6.53-.4-9.76.24-3.29,2.02-4.93,5.19-4.1,2.69.71,5.37,1.49,8.03,2.34,1.78.57,3.53.9,5.38.44,1.12-.28,1.49-.8.84-1.77-.84-1.26-1.72-2.69-2.95-3.44-2.66-1.63-5.52-2.96-8.37-4.26-2.11-.96-4.27-1.92-6.52-2.44-2.57-.59-4.87-1.58-6.98-3.12-1.96-1.42-4.06-2.57-6.48-2.95-.71-.11-1-.37-1.05-1.09-.11-1.47-.97-2.55-2.29-3.01-1.57-.54-3.24-.76-4.86-1.18-2.12-.55-4.28-1-6.31-1.79-1.85-.72-1.82-.97-1.51-2.93.42-2.65-.35-3.53-3.03-3.51-2.21.01-4.41.01-6.62,0-1.47-.01-2.47-.79-3.05-2.09-.61-1.34.13-2.42.48-3.61.68-2.34.38-4.65-2.01-5.78-2.5-1.18-5.03-1.14-7.36.56-.93.68-1.43,1.63-1.36,2.8.13,2.25,1.43,3.81,3.13,5.11,2.46,1.88,2.53,3.36.23,5.45-.34.31-.7.59-1.05.88-1.35,1.11-2.69,2.23-4.06,3.31-.81.63-.88,1.21-.25,2.05,2.36,3.1.43,8.43-4.08,9.12-2.49.38-4.85,1.16-5.73,4.01-.47,1.54-.06,2.48,1.53,3.05,0,.31.01.62.02.93-2.74,1.36-5.31,2.96-7.15,5.49-2.32,3.19-3.61,6.67-1.77,10.47,3.47,7.17,5.32,14.83,7.13,22.5,1.35,5.74,2.72,11.46,4.83,16.98,2.82,7.38,6.1,14.54,9.79,21.53,4.98,9.42,11.36,17.89,17.85,26.28,4.49,5.81,10.33,10.15,16.1,14.51,8.87,6.69,18.55,11.97,29.24,15.23,3.5,1.07,7.04,2.03,10.62,2.82,3.2.71,6.45,1.18,9.7,1.66,2.31.34,4.63.57,6.95.77,3.24.28,6.48.49,9.72.72.22.09.44.26.66.27,4.03.09,8.06.15,12.09.22Zm267.31-72.8c-.01-.19-.03-.35-.03-.51-.04-16.59-.08-33.17-.13-49.76,0-1.77-.14-3.55-.12-5.32.04-3.69.37-7.4.15-11.07-.16-2.68-1.24-3.6-3.49-3.23-.59.1-1.14.48-1.69.77-4.01,2.1-8.01,4.2-12.02,6.3-.92.48-1.93.84-2.72,1.47-1.5,1.19-1.32,2.56.38,3.42,1.11.56,2.29.97,3.42,1.51,2.62,1.26,4.29,3.3,4.68,6.2.27,2.04.39,4.12.39,6.19.02,17.34.02,34.67-.02,52.01,0,4.15-.05,8.3-.34,12.44-.18,2.53-.88,4.75-4.14,5.66-.97.27-1.98.74-2.74,1.39-1.6,1.37-1.09,3.31.93,3.89.42.12.88.24,1.31.2,2.83-.22,5.65-.56,8.48-.72,3.07-.16,6.15-.22,9.22-.22,2.91,0,5.82.17,8.72.16.61,0,1.5-.26,1.79-.71.88-1.34-.03-3.18-1.61-3.5-1.64-.33-3.28-.63-4.93-.92-3.52-.63-5.45-2.78-5.53-6.33-.06-2.67-.05-5.33.02-8,.04-1.45.53-2.8,1.73-3.7,1.3-.97,2.63-1.91,4.04-2.7,1.29-.72,2.63-.64,3.48.88.56,1.02,1.27,1.95,1.88,2.94,4.78,7.65,10.28,14.75,16.42,21.36,1.06,1.15,2.3,1.83,3.93,1.73,3.35-.2,6.7-.32,10.04-.52,1.77-.11,3.53-.32,5.29-.51,2.17-.23,2.97-1.24,2.64-3.32-.24-1.51-.74-1.91-2.94-1.91-4.14,0-7.68-1.51-10.64-4.27-2.86-2.66-5.73-5.35-8.25-8.32-4.22-4.98-8.14-10.22-11.12-16.08-.33-.64-.26-1,.21-1.49,3.47-3.63,7.22-6.91,11.59-9.42,3.42-1.96,6.95-3.59,11.02-3.72,1.38-.05,2.78-.41,4.13-.8,1.16-.34,1.51-1.28,1.27-2.9-.14-.96-.81-1.44-1.72-1.52-1.24-.11-2.48-.19-3.72-.2-4.67-.04-9.33.02-14-.07-3.72-.07-7.44-.33-11.16-.47-1.19-.05-1.74.58-1.9,1.77-.19,1.42.69,2.58,3.01,2.98,1.3.22,2.62.52,3.81,1.06,1.38.62,1.56,1.64.67,2.85-.61.83-1.32,1.62-2.12,2.28-4.78,3.96-9.6,7.86-14.38,11.81-.92.76-1.86,1.24-3.2.91Zm-236.37-37.05h-.06c0-5.17-.02-10.33,0-15.5.01-2.41.71-3.12,3.13-3.1,3.81.02,7.63.11,11.44.23,3.64.12,7.27.32,10.91.49,3.47.16,5.9,2,7.59,4.88.86,1.46,1.47,3.08,2.3,4.55.43.77,1,1.59,1.72,2.04,1.38.87,2.96-.04,3.05-1.63.1-1.73.18-3.46.25-5.19.03-.66-.06-1.34.02-1.99.3-2.69.7-5.36.96-8.06.18-1.89-.11-2.14-2.03-2.11-3.94.07-7.88.17-11.81.26-3.69.08-7.38.17-11.06.25-3.98.08-7.97.23-11.95.22-4.36,0-8.72-.1-13.07-.23-4.05-.12-8.1-.3-12.14-.51-.96-.05-1.37.38-1.6,1.19-.29,1.06-.11,2.01.83,2.66.78.54,1.61,1.02,2.47,1.45,4.41,2.19,6.36,5.83,6.36,10.65,0,18.33.02,36.67-.02,55,0,3.63-.22,7.26-.45,10.89-.21,3.34-2.41,5.95-5.57,6.85-.71.2-1.45.28-2.15.49-1.18.36-1.74,1.25-1.55,2.33.19,1.08,1.02,1.83,2.16,1.76,2.02-.11,4.03-.43,6.04-.45,4.91-.06,9.81-.04,14.72,0,1.65.01,3.3.14,4.94.31,2.39.23,4.75.37,7.1-.3,1.25-.36,1.64-1.1,1.54-2.3-.09-1.14-.86-1.55-1.8-1.73-2.35-.44-4.71-.8-7.05-1.27-3.63-.74-4.99-2.31-5.26-5.98-.03-.46-.05-.92-.05-1.37,0-9.5,0-19,0-28.5,0-2.48.02-2.54,2.44-2.5,4.44.08,8.88.17,13.31.38,2.06.1,4.22.41,5.46,2.33.98,1.52,1.69,3.21,2.42,4.87.44,1,.6,2.12,1.02,3.13.48,1.14,1.3,1.44,2.7,1.13,1.09-.24,1.55-.91,1.56-2.06.05-5.23.06-10.47.28-15.7.12-2.82.58-5.63.95-8.44.19-1.39-.33-2.25-1.71-2.51-2.06-.39-3.06.25-3.53,2.28-.34,1.5-.67,3-1,4.49-.38,1.74-1.29,2.71-3.06,2.94-1.99.25-4.01.4-6.01.5-4.17.2-8.35.36-12.52.48-1.91.06-2.22-.29-2.23-2.23-.01-5.12,0-10.25,0-15.37Zm139.5,28.48c.13,0,.27,0,.4-.01-.18-2.22-.27-4.46-.57-6.67-.53-3.93-2.47-6.86-6.26-8.46-3.58-1.52-7.36-1.5-11.04-1.12-5.3.55-10.24,2.55-14.88,5.17-2.36,1.33-4.69,2.71-6.41,4.89-1.18,1.5-1.22,3.12-.42,4.78.78,1.62,2.21,2.31,3.91,2.3,3.13-.01,5.75-1.19,7.56-3.82,1.23-1.78,2.3-3.66,3.56-5.41,1.11-1.55,2.68-2.32,4.64-2,.4.06.8.25,1.19.24,3.77-.09,6.88,2.97,7.35,6.37.37,2.64.44,5.33.54,8,.1,2.76-.89,4.18-3.53,4.9-4.15,1.13-8.36,2.03-12.46,3.31-4.44,1.38-8.86,2.83-12.41,6.12-3.18,2.95-4.89,6.23-4.15,10.78.89,5.45,5.82,10.58,11.27,11.03,4.22.35,8.33-.24,12.26-1.85,2.65-1.09,5.26-2.26,7.89-3.4,1.04-.45,1.89-.31,2.66.59.84.98,1.71,1.94,2.68,2.79,1.17,1.02,2.52,1.85,4.15,1.58,3.84-.64,7.22-2.41,10.43-4.51.83-.54,1.63-1.16,2.35-1.84.8-.76.69-1.71.29-2.66-.35-.83-.99-.99-1.82-.94-1.94.12-3.89.14-5.82.27-1.47.1-2.42-.6-2.9-1.88-.34-.9-.59-1.88-.62-2.83-.06-1.53.13-3.06.13-4.6.02-7.04,0-14.07,0-21.11Zm-55.87,39.33c0,.05.01.1.02.15.51-.11,1.02-.29,1.54-.32,1.27-.07,1.88-.7,1.9-1.96.02-1.35-.46-2-1.75-2.31-1.43-.34-2.89-.58-4.3-.99-2.55-.74-4.84-1.93-5.7-4.66-.4-1.28-.55-2.68-.57-4.02-.12-9.38-.22-18.76-.23-28.15-.02-17.54.03-35.08.06-52.61,0-.4.19-.81.16-1.21-.09-1.15-.13-2.31-.4-3.42-.21-.86-.92-1.44-1.9-1.19-1.14.29-2.33.56-3.37,1.08-3.91,1.92-7.78,3.93-11.65,5.92-.88.45-1.84.85-2.57,1.48-1.43,1.23-1.29,2.5.33,3.46.92.55,1.97.88,2.92,1.39,2.08,1.11,3.57,2.62,4.32,5.02.95,3.06.92,6.14.92,9.25,0,20.46.02,40.91-.03,61.37,0,3.48-.83,5.95-4.68,7.15-.76.24-1.5.75-2.1,1.29-.73.65-.89,1.49-.45,2.47.41.9,1.06,1.23,1.98,1.14.69-.07,1.38-.21,2.07-.24,4.04-.18,8.08-.46,12.13-.48,3.8-.02,7.6.25,11.4.39Zm97.38,1.29c4.11.25,8.12-.22,11.93-1.72,8.91-3.51,11.66-11.23,9.49-19.27-.99-3.66-3.53-6.35-6.79-8.16-3.95-2.19-8.09-4.05-12.12-6.1-2.52-1.27-5.1-2.45-7.46-3.98-2.1-1.37-3-3.59-2.7-6.14.26-2.23,1.35-3.87,3.57-4.68,3.02-1.12,6.16-.92,9.18-.48,3.76.55,6.62,2.91,8.96,5.85.67.85,1.24,1.78,1.9,2.63,1.03,1.34,3.51,1.44,4.63.19.19-.21.29-.62.24-.9-.65-3.42-1.37-6.82-2.01-10.24-.27-1.44-1.21-2.19-2.49-2.38-4.04-.6-8.09-1.21-12.17-1.54-2.07-.17-4.18.25-6.27.44-3.78.33-7.12,1.77-10.06,4.15-4.8,3.89-6.05,10.16-4.39,15.73,1.13,3.8,3.81,6.34,7.12,8.17,3.85,2.13,7.83,4.02,11.77,5.97,2.65,1.31,5.24,2.7,7.44,4.74,3.24,2.98,2.87,9.52-2.5,10.97-2.52.68-5.04.88-7.7.61-6.05-.61-10.77-3.27-14.21-8.26-.49-.72-1-1.45-1.62-2.05-.94-.91-2.18-.73-2.8.42-.33.62-.59,1.37-.58,2.06,0,2.9.11,5.8.21,8.7.05,1.36.88,2.44,2.21,2.8,5.64,1.53,11.32,2.82,17.21,2.48Z"/><path class="cls-3" d="m183.48,197c1.79-1.46,3.51-3.03,5.4-4.36,1.3-.92,2.92-.93,4.43-.45,1.26.4,1.52,1.04.9,2.2-.58,1.09-1.33,2.1-2.05,3.11-.84,1.19-1.7,2.36-2.62,3.49-.61.76-.17,1.18.44,1.41.61.23,1.29.32,1.95.33,1.71.04,3.43-.12,5.12.04,1.81.17,3.6.56,5.38.96,3.01.69,5.69.32,7.65-2.16,1.09.59,2.03,1.39,3.09,1.61,1.55.32,3.19.28,4.8.31,2,.04,4-.04,6,0,2.86.06,3.77,1.67,3.44,4.3-.22,1.81-1.21,2.42-2.64,2.75-2.71.61-5.45,1.11-8.16,1.7-1.95.43-3.84,1.03-5.35,2.45-.17.16-.57.27-.77.19-3.94-1.69-7.74-.82-11.55.52-3.34,1.18-6.69,2.12-10.33,2.17-2.76.04-5.51.79-8.28,1.14-2.45.31-4.92.6-7.39.74-3.06.17-6.14.18-9.2.25,0-.49,0-.98,0-1.46,2.06-.33,4.12-.66,6.17-.99.01-.15.03-.3.04-.45-1.58-.27-3.16-.68-4.75-.77-1.6-.09-3.22.23-4.82.2-2.38-.04-4.82.04-7.12-.45-1.6-.34-3.19-.79-4.75-.46-3.38.72-6.75.39-10.1.1-2.54-.22-5.05-.74-7.57-1.19-1.79-.32-3.61-.6-5.31-1.19-3.16-1.08-6.26-2.34-9.36-3.59-.86-.35-1.61-.96-2.41-1.45.2-.28.56-.56.55-.83,0-.24-.54-.72-.63-.68-.51.27-.96.66-1.43,1.01-.41-.03-.86.04-1.21-.11-1.43-.6-2.86-1.23-4.24-1.93-2.44-1.23-4.82-2.58-7.28-3.76-1.12-.53-2.37-.79-3.56-1.17-.06.15-.11.3-.17.46,3.98,2.91,8.56,4.77,12.96,6.97-.06.13-.12.25-.18.38-2.27-.95-4.54-1.9-6.81-2.85-2.55-1.2-4.82-3.04-7.63-3.66-.07.14-.15.28-.22.43l7.3,4.07c4.41,1.81,8.77,3.76,13.24,5.39,3.06,1.11,6.26,1.9,9.44,2.61,2.59.58,5.25.81,7.88,1.22,2.5.39,4.99.86,7.49,1.19,3.01.4,6.03.67,9.04,1.03.99.12,1.98.32,2.97.48-.09.32-.17.65-.26.97-3.24-.24-6.48-.44-9.72-.72-2.32-.2-4.65-.43-6.95-.77-3.24-.48-6.5-.95-9.7-1.66-3.57-.79-7.12-1.75-10.62-2.82-10.68-3.26-20.36-8.54-29.24-15.23-5.77-4.35-11.61-8.7-16.1-14.51-6.49-8.39-12.87-16.86-17.85-26.28-3.69-6.98-6.96-14.15-9.79-21.53-2.11-5.52-3.47-11.25-4.83-16.98-1.81-7.67-3.67-15.33-7.13-22.5-1.84-3.8-.54-7.28,1.77-10.47,1.84-2.53,4.41-4.12,7.15-5.49,2.49-.9,5.24-1.16,7.69-2.91-1.92-.38-3.27.4-4.68,1.02-.96.42-2.02.64-3.03.96-1.59-.56-2.01-1.5-1.53-3.05.88-2.85,3.24-3.63,5.73-4.01,4.51-.68,6.44-6.01,4.08-9.12-.64-.84-.56-1.42.25-2.05,1.37-1.08,2.71-2.2,4.06-3.31.35-.29.71-.57,1.05-.88,2.3-2.09,2.23-3.58-.23-5.45-1.7-1.3-3-2.86-3.13-5.11-.07-1.16.43-2.12,1.36-2.8,2.33-1.7,4.86-1.74,7.36-.56,2.39,1.13,2.69,3.44,2.01,5.78-.34,1.18-1.08,2.26-.48,3.61.59,1.29,1.58,2.07,3.05,2.09,2.21.02,4.41.02,6.62,0,2.68-.02,3.45.86,3.03,3.51-.31,1.96-.34,2.21,1.51,2.93,2.03.79,4.19,1.24,6.31,1.79,1.61.42,3.29.64,4.86,1.18,1.33.46,2.18,1.54,2.29,3.01.06.72.34.98,1.05,1.09,2.42.38,4.53,1.53,6.48,2.95,2.11,1.53,4.4,2.53,6.98,3.12,2.24.52,4.41,1.48,6.52,2.44,2.85,1.3,5.71,2.63,8.37,4.26,1.23.75,2.11,2.19,2.95,3.44.65.97.28,1.48-.84,1.77-1.85.47-3.6.14-5.38-.44-2.65-.85-5.33-1.63-8.03-2.34-3.17-.83-4.95.8-5.19,4.1-.24,3.23.22,6.5.4,9.76.15,2.8.28,5.6.51,8.39.37,4.33.8,8.66,1.24,12.99.31,3.01.48,6.06,1.05,9.03.81,4.23,1.69,8.48,2.96,12.58,1.36,4.42,2.96,8.82,4.91,13.01,2.63,5.65,6.55,10.5,10.58,15.23,3.88,4.56,7.55,9.34,12.21,13.17,9.19,7.54,19.38,13.3,30.77,16.78,4.43,1.35,8.96,2.39,13.46,3.5.88.22,1.77.1,2.47-.73,1.04-1.23,2.21-2.35,3.32-3.52.32.61.71,1.16,1.51.78.22-.11.33-.46.48-.7-.5-.18-.99-.36-1.49-.54Zm-60.85-.64c-.67.13-1.36.22-2.01.44-.13.04-.1.58-.14.89.79-.08,1.69.5,2.33-.42.5-.09.99-.17,1.49-.26-.5.83-.22,1.35.61,1.73.68.31,1.3.74,1.99,1.02.34.14.81.16,1.16.04,1.63-.56,2.61-.29,3.62,1.12.46.64.87,1.32,1.35,1.95.77,1.01,1.76,1.24,2.83.57.59-.37,1.08-.9,1.61-1.37.61-.54,1.21-1.1,1.81-1.65.07.07.14.15.21.22-.62.88-1.24,1.75-1.87,2.63.11.09.22.19.33.28.79-.43,1.6-.81,2.36-1.3,2.36-1.51,4.96-1.69,7.53-.99,2.84.77,5.59,1.87,8.36,2.87,1.31.48,2.54,1.19,3.88,1.58,2.54.74,5.12,1.41,7.71,1.94,2.11.42,4.01-.3,5.76-1.68-.97-.54-1.94-.91-2.94-1.22-2.46-.75-4.93-1.45-7.38-2.21-.93-.29-1.58-.86-.99-2.03-.54,0-.98-.09-1.37.01-2.67.75-5.07-.26-7.17-1.57-2.05-1.28-3.72-3.14-5.58-4.72-.45-.38-.94-.78-1.48-.98-2.55-.96-5.18-1.73-7.68-2.79-4.73-2.01-9-4.69-11.94-9.09-.5-.75-1.07-1.47-.63-2.53.12-.28-.2-.85-.47-1.16-1.7-1.99-3.52-3.89-5.16-5.94-3.24-4.03-5.2-9.02-9.22-12.48-.39-.34-.84-.6-1.47-1.04-.05.69-.07.94-.09,1.19-.02.24-.05.49-.11,1.05-1.11-2.78-2.08-5.25-5.38-5.31-.23-1.43.57-2.25,1.62-2.94.56-.37,1.31-.81.62-1.54-1.01-1.08-1.18-2.41-1.5-3.73-.3-1.28-.7-2.54-1.03-3.82-.75-2.89-1.5-5.77-2.23-8.66-.47-1.86-.91-3.73-1.37-5.63-1.94.77-2.45,1.6-2.73,4.07-.07-.04-.18-.07-.2-.13-.58-1.66-.11-3.23.49-4.76.05-.13.55-.07.83-.13.35-.08.85-.08,1.03-.31,1.05-1.33.44-2.87-1.19-3.18-.1-.02-.18-.16-.27-.25.11,0,.23.02.34.03.19-1.88.42-3.76.52-5.64.03-.47-.35-.97-.56-1.45-.21-.48-.63-.94-.62-1.41.03-3.02.26-6.05.2-9.07-.03-1.37.24-3.17-1.91-3.42.24-.73.53-1.37.65-2.05.55-3.08.92-6.15.61-9.33-.36-3.63-2.18-4.81-5.34-3.14-.32.17-.7.24-1.06.31-2.68.51-5.37.97-8.04,1.52-.84.17-1.64.56-2.78.96,1.3.88,2.28,1.54,3.26,2.21-.48.29-.81.35-1.12.28-1.86-.44-3.7-.94-5.57-1.34-.27-.06-.81.17-.89.39-.72,1.85-2.08,2.61-3.99,2.19-.72-.16-1.48-.16-2.23-.23.67.85,1.03,1.49.16,2.27-2.23,1.99-4.89,2.72-7.79,2.46-1.76-.16-2.63.63-2.03,2.37.48,1.39,1.19,2.69,1.83,4.03.81,1.71.73,2.54-.73,3.7-.53.42-1.33.64-2.03.68-3.14.19-3.66.55-4.78,3.5-.09.25-.56.53-.83.5-1.14-.1-1.39.61-1.1,1.39.42,1.13,1.05,2.2,1.69,3.23.17.27.79.52,1.06.42,1.43-.55,2.65.01,3.91.52.94.99,1.88,1.98,2.82,2.97.09.47.26.95.26,1.42.02,2,0,4-.03,6,0,.28-.18.66-.39.81-.14.1-.62-.04-.76-.22-.73-.99-1.61-1.95-2.01-3.07-.3-.86-.57-2.09.67-2.78,1.27-.7,1.3-.82.45-1.95-.35-.46-.72-.92-1.15-1.31-1.06-.97-1.92-.99-2.93.03-1,1-1.89,2.11-2.85,3.15-.49.54-.26.81.25,1.16,1.03.7,2.06,1.42,3,2.24,1.72,1.49,1.65,2.14-.2,3.41-.05.03-.04.15-.09.36.72.31,1.5.55,2.18.97,2.04,1.25,2.75,3.34,3.36,5.49.2.7.41,1.42.78,2.03.58.94,1.74,1.05,2.59.45.79-.56,1.64-1.04,2.57-1.62-2.1-2.04-4.37-4.24-6.64-6.44l.26-.38h3.05c-.13-1.18-.22-2.2-.37-3.22-.31-2.03.18-2.81,2.08-3.33-.11,1.85-.26,3.74-.3,5.62-.01.47.22,1.28.48,1.34.47.12,1.16-.07,1.58-.37.78-.55,1.45-1.24,2.13-1.92,1.22-1.24,1.37-1.24,2.46.18.63.83,1.32,1.62,1.88,2.49.43.68.85,1.45.96,2.22.06.46-.45,1.4-.78,1.43-.94.1-1.94-.07-2.88-.3-.78-.19-1.49-.61-2.24-.93-.1.16-.21.32-.31.49,1.25,1.18,2.45,2.43,3.77,3.53,1.95,1.64,3.08,3.55,3.02,6.22-.02.96.63,2.01,1.19,2.88.26.4,1.04.59,1.6.64.66.05,1.34-.16,1.88-.23.49.83.88,1.5,1.28,2.16.13,0,.25,0,.38-.01.24-1,.49-2,.73-3.02,2.06-.23,4.08,1.1,4.83,3.21.33.94.62,1.9,1.06,2.79.21.43.71.71,1.07,1.06.11-.09.22-.18.34-.27.17-2.38-1.41-4.21-2.23-6.65.49.36.78.52,1,.75.69.72,1.38,1.44,2.03,2.2.86,1.01,1.87,1.95,2.48,3.11,1.29,2.43.48,3.91-1.94,4.47-.98.23-2,.27-3.06.4,1.32,1.13,2.49,2.29,3.83,3.23,1.16.82,2.44,1.74,3.79,1.99,3.13.58,4.65,2.71,5.75,5.3.3.71.29,1.97-.15,2.47-.43.48-1.71.6-2.42.34-1.77-.65-3.41-1.64-5.13-2.44-1.52-.71-2.98-1.74-5.1-1.08,1.39.84,2.53,1.67,3.79,2.26,4.55,2.12,9.18,4.06,13.69,6.26,3.99,1.95,7.97,3.98,11.1,7.28,1.63,1.72,3.3,3.4,4.94,5.12.12.12.12.36.24.76-2.45.12-4.78.52-7.02-.56-.56-.27-1.02-.77-1.53-1.16.42-.46.85-.91,1.27-1.37.05-.06.07-.15.17-.38-1.83-.28-3.61-.56-5.44-.84,0,1.57.95,3.28,2.14,3.84,2.44,1.14,4.97,1.95,7.7,2.09,1.56.08,3.11.32,4.98.52-.44.69-.71,1.08-.95,1.48-.25.41-.47.83-.7,1.25-.35.12-.7.24-1.04.36Zm9.59,16.54c.37.02.73.05,1.1.07.02-.1.04-.2.06-.3-.38-.21-.77-.43-1.15-.64-1.48-.42-2.96-.88-4.45-1.27-1.44-.38-2.89-.71-4.34-1.03-1.75-.39-3.51-.75-5.26-1.12-.06.2-.11.4-.17.6,2.74.92,5.44,1.97,8.23,2.72,1.94.53,3.99.65,5.99.96Zm-85.74-81.43c-.47-3.37-1.97-6.29-3.93-9.01-.17.01-.33.02-.5.03.05.23.08.47.14.69.5,1.75,1.01,3.5,1.52,5.26l-.46-.25c-.72-1.2-1.41-2.43-2.18-3.59-.16-.25-.63-.29-1.25-.54.3.97.44,1.65.71,2.26,1.65,3.76,3.27,7.53,5.04,11.23.89,1.86,2.06,3.58,3.1,5.37.66.75,1.33,1.5,1.99,2.25l.37-.31c-.5-.98-1-1.96-1.5-2.94-1.27-3.17-1.94-6.59-4.02-9.41.08.01.15,0,.22-.04.07.05.14.08.23.08.24.04.47.08.71.11-.06-.39-.12-.79-.18-1.18Zm13-57.57c2.94-.22,5.84-.24,8.57,1.76-.1-.49-.17-.69-.16-.88.03-.66-.16-1.64.19-1.9.76-.57,1.31.26,1.8.81.16.18.26.43.42.62.69.83,1.29,1.75,2.1,2.44,1.29,1.1,3.03.42,3.3-1.25.16-.97.17-1.97.26-3.2.86.76,1.71,1.51,2.56,2.26.12-.09.25-.17.37-.26-.31-.61-.52-1.32-.96-1.81-.8-.88-1.22-1.67-.38-2.77.42-.55.11-.99-.55-.99-.95,0-1.93-.04-2.83.19-4.99,1.25-9.96,2.57-14.94,3.87-3.19.93-6.52,1.4-9.54,3.01.36.25.75.47,1.08.4.7-.14,1.36-.46,2.05-.64,2.22-.57,4.45-1.11,6.67-1.66Zm-25.06,26.12c.18-.07.36-.13.54-.2,0-.61.12-1.25-.02-1.82-.41-1.73-.15-3.39.28-5.07.72-2.82,3.61-4.23,5.94-2.8-.33.14-.62.25-.91.38-1.73.79-2.23,2.37-.86,3.66,1.3,1.22,2.88,2.24,4.5,2.96,1.56.7,2.56-.25,2.57-2.02,0-.28.03-.55.05-.82,2.16-.22,4.24-.44,6.5-.67-.12.85-.19,1.43-.29,2.16,1.1-.25,2.11-.35,3-.72,2.97-1.24,5.93-2.52,8.84-3.92,3.09-1.49,6.25-2.58,9.73-2.43.58.03,1.18.07,1.74-.02,3.43-.55,6.89-1,10.28-1.75,3.54-.78,7.09-1.68,10.51-2.88,2.84-1,4.97-3,5.55-6.19.23-1.24-.33-2.91-1.79-2.92-5.72-.07-11.42.15-17.08,1.01-6.55,1-12.87,2.87-19.21,4.72-4.06,1.18-8.21,2.04-12.32,3.06-1.45.36-2.88.77-4.33,1.15-.04.17-.09.34-.13.51,1.1.74,2.2,1.48,3.35,2.26-.69.43-1.2.75-1.89,1.18.84.56,1.55.98,2.2,1.48.27.2.64.65.57.84-.12.33-.51.67-.85.78-1.88.61-5.91-.9-6.87-2.65-.37-.68-.57-1.58-.48-2.34.09-.75-.19-.82-.67-.72-2.86.6-5.73,1.18-8.2,2.91-2.2,1.55-3.32,3.87-2.57,6.13.55,1.65,1.53,3.16,2.32,4.74Zm43.08,84.24c-1.62-.02-2.92-1.16-3.92-2.73-.65-1.02-1.18-2.11-1.87-3.09-.3-.42-.86-.87-1.34-.92-1.87-.19-3.04-1.25-3.8-2.81-.6-1.24-1.19-2.53-1.52-3.86-.65-2.55-2.05-4.48-4.18-5.97-.44-.31-.76-.85-1.04-1.34-.65-1.1-1.15-2.3-1.88-3.34-.86-1.22-2-2.24-2.85-3.47-1.52-2.21-3.02-4.45-4.33-6.79-1.43-2.56-2.64-5.24-3.93-7.88-.16-.32-.29-.66-.43-.98-.15.13-.31.27-.46.4.04.37.01.76.14,1.09.65,1.69,1.25,3.4,2.02,5.04,2.68,5.7,6.15,10.93,9.72,16.11,1.55,2.26,3.22,4.46,4.52,6.86,2.68,4.97,5.66,9.73,9.68,13.72,3.18,3.16,6.57,6.11,9.91,9.1,1.6,1.43,3.52,2.27,5.71,2.35,1.21.04,1.46-.37.81-1.41-1.31-2.08-3.11-3.52-5.56-4.11-.57-.14-1.15-.47-1.58-.87-1-.94-1.95-1.94-2.82-3-.4-.49-.56-1.18-.98-2.09Zm-3.8-19.5c1.27,2.03,12.51,8.06,14.14,7.83-.64-.56-1.2-1.03-1.72-1.54-.25-.25-.65-.67-.57-.88.58-1.69-.69-2.42-1.66-3.27-.7-.61-1.36-1.16-1.2-2.25.03-.24-.43-.61-.73-.83-.81-.57-1.65-1.08-2.48-1.61.06-.12.11-.23.17-.35h2.7c-.92-.75-1.69-1.37-2.7-2.19,1.4-.69,2.5-1.22,3.85-1.89-.4-.24-.49-.33-.61-.37-2.39-.66-4.79-1.33-7.19-1.94-.32-.08-.79.14-1.09.36-.43.32-.75.77-1.12,1.17-.09-.05-.18-.11-.27-.16.03.5.07,1,.11,1.62h-2.16c1.18,1.14,2.09,2.01,3.14,3.01-.79.22-1.17.32-1.7.47,1.67,1.38,3.22,2.66,4.76,3.93-.07.08-.14.16-.21.24-1.15-.46-2.3-.92-3.46-1.38Zm3.95-11.07c.15-.14.3-.27.44-.41-.17-.6-.22-1.28-.54-1.78-.64-.97-1.4-1.86-2.17-2.73-.91-1.02-1.71-2.06-1.92-3.48-.18-1.24-.47-2.47-.76-3.69-.38-1.58-.83-1.83-2.39-1.45.37.8.83,1.59,1.09,2.44.17.58.27,1.66.03,1.79-.56.29-1.4.3-2.04.12-1.22-.36-2.36-.96-3.55-1.41-.72-.27-1.48-.52-2.24-.62-1.19-.16-1.62.45-1.11,1.49.42.86,1.01,1.65,1.31,2.54.32.95.98,1.33,1.81,1.7,2.54,1.13,5.04,2.34,7.56,3.5,1.49.68,2.99,1.33,4.49,1.99Zm2.79,23.39c.88,2.27,2.77,2.98,4.64,3.83,2.6,1.19,5.2,1.39,7.89.54.39-.12.68-.58,1.01-.89-.32-.33-.57-.83-.96-.98-2.25-.82-4.51-1.66-6.82-2.3-1.85-.51-3.76-.95-5.76-.21Zm-11.03-111.36c.37,0,.54.03.69,0,.37-.1.73-.23,1.1-.36-.24-.31-.41-.71-.72-.92-.58-.4-1.19-.77-1.85-1.01-1.51-.54-3.04-1.02-4.58-1.47-.43-.13-1.13-.25-1.34-.02-.26.27-.31.96-.17,1.38.8,2.51,2.3,4.53,4.69,5.7.62.3,1.61.28,2.21-.03.32-.16.2-1.25.2-1.93,0-.39-.13-.78-.22-1.34Zm127.08,140.34c-2.96-.4-5.62-.79-8.28-1.1-1.74-.21-3.5-.43-5.25-.4-1.28.02-2.57.36-3.81.72-.39.11-.62.76-.92,1.17.47.18.93.49,1.41.51,2.56.14,5.12.19,7.68.29,1.9.07,3.81.28,5.7.21,1.13-.04,2.45.02,3.48-1.4ZM50.61,46.97c1.98,0,3.68-.01,5.38,0,.73,0,1.01-.25,1.01-1.04,0-1.21-.67-1.98-1.61-2.48-1.13-.61-2.33-.69-3.51.08-2.07,1.35-2.5,4.53-.78,5.76-.15-.71-.31-1.45-.51-2.33Zm92.88,160.26l.4.4c.54-.21,1.1-.41,1.63-.65.57-.26,1.04-.47,1.29.42.22.81.85.73,1.45.42,1.38-.71,1.73-1.6,1.32-3.32-.41-1.75-.94-2.01-2.49-1.06-.88.53-1.74,1.14-2.46,1.86-.51.51-.77,1.28-1.14,1.93ZM53.08,104.19c.76,1.23,1.66,1.84,2.73,1.5,1.08-.34,2.07-1.03,3.02-1.68.1-.07-.2-1.18-.55-1.37-1.97-1.09-4.18-.47-6.25-.96-.04.14-.07.29-.11.43,1.36.59,2.72,1.18,4.07,1.78-.03.1-.06.2-.1.3h-2.82Zm40.64,73.22c-.06.15-.11.3-.17.44,2.73,2.27,5.33,4.83,9.76,3.96-.46-.46-.7-.86-1.05-1.02-1.6-.75-3.22-1.48-4.86-2.14-1.2-.48-2.46-.84-3.69-1.25Zm-30.58-109.44c-.06-1.01-1.02-2.06-1.98-1.97-1.38.13-2.76.39-4.1.76-1.5.41-2.94,1-4.56,1.57.31.33.4.52.53.55.17.04.38-.02.55-.09,2.11-.88,4.33-.89,6.57-.81.99.03,1.99,0,2.98,0Zm45.66,112.26c-2.26-.83-4.35-1.71-6.52-2.33-1.02-.29-2.18-.05-3.52-.05,3.24,2.17,8.61,3.45,10.04,2.38Zm104.64,25.84c.15,1.12,1.02,1.18,1.74,1.14,2.21-.1,4.42-.3,6.63-.5.48-.04.94-.25,1.41-.38-3.25-.93-6.47-.53-9.78-.26Zm-101.5-124.99c1.78,1.37,3.33,2.57,4.89,3.77.47-2.75-1.26-4.2-4.89-3.77Zm39.38,127.12c1.04-.77,2.08-1.51,3.09-2.31.19-.15.37-.63.28-.74-.18-.22-.6-.45-.81-.38-.83.29-1.66.62-2.41,1.07-.89.53-1.01,1.3-.14,2.35Zm-51.41-20.2c.57,1.6,3.95,3.18,6.16,2.77-1.89-1.6-3.87-2.3-6.16-2.77Zm-5.17-12.02c.06-.18.12-.35.18-.53-1.73-.64-3.45-1.29-5.18-1.93l-.17.44c1.31,1.74,3.17,2.04,5.17,2.01Zm5.5,7.28c-.04.18-.09.36-.13.53,1.51.72,2.76,2.3,4.71,1.58l.18-.56c-1.59-.52-3.17-1.04-4.76-1.55Zm-51.06-78.01c-.76-1.24-1.72-.68-2.49-.74-.3-.02-.64.39-.97.61.58.45,1.12,1.2,1.74,1.26.51.05,1.11-.7,1.71-1.13Zm15.99-48.21c-2.28-1.01-4.13-.55-4.08.92,1.36,0,2.74.15,4.08-.92Zm101.45,152.02c-2.15-.15-3.57.9-3.52,2.48,1.6-.15,2.46-1.25,3.52-2.48ZM48.54,117.91c.12-.14.25-.28.37-.42-.3-.49-.49-1.18-.93-1.42-.49-.27-1.25-.28-1.82-.13-.66.17-.75.78-.09,1.1.78.38,1.64.58,2.47.86Zm1.03-4.13c-1.24-1.15-2.6-1.12-4.13-.99,1.93,1.79,3.1,2.08,4.13.99Zm-8.4,5.05c.85-1.26.37-2.06-.13-2.78-.19-.28-.7-.33-1.06-.49-.11.5-.43,1.09-.27,1.47.26.61.85,1.09,1.45,1.8Zm113.28,88.72c-1.65.21-2.52.91-2.63,2.05,1.6.34,2.31-.19,2.63-2.05Zm-66.63-51.08c.33-1.36-.4-1.74-1.08-1.93-.46-.13-1.03.13-1.56.22-.01.18-.02.36-.04.54.85.37,1.69.74,2.67,1.17Zm71.07,50.75c-1.33-.45-2.22.1-2.58,1.62,1.28.26,2.22-.33,2.58-1.62Zm-104.04-73.21c.71,1.58,1.57,1.85,2.56.94.16-.14.26-.42.25-.63,0-.11-.3-.3-.47-.3-.74-.03-1.48-.01-2.34-.01Zm57.02,62.43c-.85-.98-1.71-1.39-2.87-1.14.18,1.31,1.19,1.76,2.87,1.14Zm-45.59-38.26c1.23.71,2.25,1.29,3.37,1.93-.13-1.44-1.6-2.31-3.37-1.93Zm93.67,50.82c-1.6.11-2.09.69-1.75,2.06.8-.5,1.93-.61,1.75-2.06Zm-98.04-54.77c.75,1.09,1.38,2.02,2.8,1.99-.56-1.16-1.2-2.05-2.8-1.99Zm21.02,19.98c.04-.21.07-.41.11-.62-.87-.14-1.74-.29-2.62-.39-.12-.01-.41.27-.39.34.08.24.25.63.41.64.83.06,1.66.03,2.49.03Zm21.7,28.53c.38-.43.63-.71.88-1-.32-.24-.63-.64-.98-.68-.26-.03-.57.4-.86.63.28.31.56.61.95,1.05Zm-.58-8.91c.87,1.58,1.47,1.71,2.87.68-1-.24-1.77-.42-2.87-.68Zm-41.51-33.39c.04,1.32,1.05,2.18,2.45,2.17-.96-.85-1.71-1.51-2.45-2.17Zm32.19,34.06v.72c.58,0,1.18.09,1.73-.01.32-.06.58-.43.86-.66-.07-.13-.13-.25-.2-.38-.8.11-1.6.23-2.39.34Zm23.24,4.94l-.03.23c1.16.11,2.32.23,3.48.34.02-.19.03-.38.05-.57h-3.5ZM39.35,97.27c-.45.37-.89.74-1.34,1.1.32.2.64.55.97.56,1,.03.79-.68.37-1.66Zm93.77,111.05c.06.16.13.31.19.47.58.33,1.14.32,1.48-.37.11-.22-.04-.56-.08-.85-.53.25-1.06.51-1.59.76ZM52.39,107.29c-.63-.37-.95-.71-1.26-.69-.24.01-.61.44-.64.71-.02.19.42.61.66.62.3.01.62-.3,1.24-.64Zm110.73,101.63c-.08-.13-.16-.25-.24-.38-.6.39-1.2.77-1.8,1.16.09.14.18.29.27.43.96.22,1.4-.43,1.77-1.21Zm-33.24-26.2c.17.05.34.09.5.14.2-.39.53-.79.54-1.18,0-.27-.46-.54-.72-.81l-.32.12v1.74Zm-43.61.6c-.07.1-.13.2-.2.29.5.67,1.04,1.27,1.95,1.09l.22-.44c-.66-.31-1.31-.63-1.97-.94Zm114.82,22.85l-.54-.62c-.35.3-.71.61-1.06.91.18.18.45.53.51.5.39-.22.73-.52,1.08-.79Zm-104.74-17.11c-.09.11-.19.22-.28.33.46.28.89.63,1.38.81.16.06.48-.29.73-.45-.22-.18-.42-.44-.67-.53-.36-.12-.77-.12-1.16-.17Z"/><path class="cls-22" d="m431.04,146.91c1.34.32,2.28-.16,3.2-.91,4.79-3.95,9.61-7.85,14.38-11.81.79-.66,1.5-1.45,2.12-2.28.9-1.21.71-2.23-.67-2.85-1.19-.54-2.51-.84-3.81-1.06-2.33-.4-3.21-1.56-3.01-2.98.16-1.19.71-1.82,1.9-1.77,3.72.14,7.44.4,11.16.47,4.66.09,9.33.03,14,.07,1.24,0,2.48.1,3.72.2.91.08,1.58.56,1.72,1.52.24,1.61-.1,2.56-1.27,2.9-1.34.39-2.74.75-4.13.8-4.07.13-7.6,1.76-11.02,3.72-4.37,2.51-8.13,5.78-11.59,9.42-.47.49-.54.85-.21,1.49,2.98,5.86,6.9,11.1,11.12,16.08,2.52,2.97,5.39,5.66,8.25,8.32,2.96,2.76,6.5,4.27,10.64,4.27,2.2,0,2.7.4,2.94,1.91.33,2.07-.48,3.09-2.64,3.32-1.76.18-3.52.4-5.29.51-3.35.21-6.7.32-10.04.52-1.63.1-2.87-.58-3.93-1.73-6.14-6.61-11.64-13.7-16.42-21.36-.62-.99-1.32-1.93-1.88-2.94-.84-1.53-2.19-1.6-3.48-.88-1.41.79-2.74,1.73-4.04,2.7-1.2.9-1.69,2.25-1.73,3.7-.07,2.67-.09,5.33-.02,8,.08,3.56,2.01,5.7,5.53,6.33,1.64.29,3.29.59,4.93.92,1.58.32,2.5,2.16,1.61,3.5-.29.45-1.18.71-1.79.71-2.91,0-5.82-.16-8.72-.16-3.08,0-6.15.05-9.22.22-2.83.15-5.65.49-8.48.72-.43.03-.89-.08-1.31-.2-2.02-.59-2.53-2.53-.93-3.89.76-.65,1.77-1.12,2.74-1.39,3.26-.92,3.96-3.13,4.14-5.66.29-4.13.33-8.29.34-12.44.04-17.34.04-34.67.02-52.01,0-2.06-.12-4.14-.39-6.19-.38-2.9-2.06-4.94-4.68-6.2-1.12-.54-2.31-.95-3.42-1.51-1.7-.86-1.88-2.24-.38-3.42.8-.63,1.81-.99,2.72-1.47,4.01-2.1,8.01-4.21,12.02-6.3.55-.29,1.1-.68,1.69-.77,2.25-.36,3.33.55,3.49,3.23.22,3.67-.11,7.38-.15,11.07-.02,1.77.11,3.55.12,5.32.05,16.59.09,33.17.13,49.76,0,.16.02.32.03.51Z"/><path class="cls-22" d="m194.67,109.86c0,5.12,0,10.25,0,15.37,0,1.93.31,2.28,2.23,2.23,4.18-.12,8.35-.28,12.52-.48,2.01-.1,4.02-.24,6.01-.5,1.77-.22,2.68-1.19,3.06-2.94.33-1.5.66-3,1-4.49.47-2.03,1.47-2.67,3.53-2.28,1.38.26,1.9,1.12,1.71,2.51-.37,2.81-.83,5.62-.95,8.44-.22,5.23-.23,10.47-.28,15.7-.01,1.15-.46,1.82-1.56,2.06-1.4.31-2.23.02-2.7-1.13-.42-1.01-.59-2.13-1.02-3.13-.73-1.66-1.44-3.36-2.42-4.87-1.24-1.92-3.4-2.24-5.46-2.33-4.43-.21-8.87-.31-13.31-.38-2.42-.04-2.44.02-2.44,2.5,0,9.5,0,19,0,28.5,0,.46.02.92.05,1.37.28,3.67,1.63,5.25,5.26,5.98,2.34.47,4.71.82,7.05,1.27.94.18,1.71.59,1.8,1.73.09,1.2-.3,1.94-1.54,2.3-2.36.67-4.72.54-7.1.3-1.64-.16-3.29-.29-4.94-.31-4.91-.04-9.81-.07-14.72,0-2.02.03-4.03.34-6.04.45-1.14.06-1.98-.69-2.16-1.76-.19-1.08.37-1.97,1.55-2.33.7-.21,1.44-.29,2.15-.49,3.17-.89,5.36-3.51,5.57-6.85.23-3.62.44-7.26.45-10.89.04-18.33.02-36.67.02-55,0-4.82-1.95-8.46-6.36-10.65-.85-.42-1.68-.91-2.47-1.45-.94-.65-1.13-1.6-.83-2.66.22-.8.64-1.24,1.6-1.19,4.05.21,8.09.4,12.14.51,4.36.13,8.71.23,13.07.23,3.98,0,7.97-.14,11.95-.22,3.69-.08,7.38-.17,11.06-.25,3.94-.09,7.88-.18,11.81-.26,1.91-.04,2.21.21,2.03,2.11-.26,2.69-.66,5.37-.96,8.06-.07.66,0,1.33-.02,1.99-.07,1.73-.15,3.46-.25,5.19-.09,1.58-1.67,2.49-3.05,1.63-.72-.45-1.28-1.27-1.72-2.04-.84-1.48-1.44-3.09-2.3-4.55-1.7-2.88-4.12-4.72-7.59-4.88-3.64-.17-7.27-.37-10.91-.49-3.81-.12-7.63-.21-11.44-.23-2.42-.02-3.11.69-3.13,3.1-.03,5.17,0,10.33,0,15.5h.06Z"/><path class="cls-22" d="m334.16,138.34c0,7.04.01,14.07,0,21.11,0,1.53-.2,3.07-.13,4.6.04.95.28,1.94.62,2.83.48,1.28,1.43,1.98,2.9,1.88,1.94-.13,3.88-.16,5.82-.27.83-.05,1.47.11,1.82.94.4.95.51,1.9-.29,2.66-.72.68-1.52,1.3-2.35,1.84-3.22,2.1-6.6,3.87-10.43,4.51-1.63.27-2.98-.56-4.15-1.58-.97-.85-1.84-1.81-2.68-2.79-.77-.9-1.63-1.04-2.66-.59-2.63,1.14-5.24,2.31-7.89,3.4-3.93,1.61-8.05,2.2-12.26,1.85-5.45-.45-10.39-5.59-11.27-11.03-.74-4.55.97-7.83,4.15-10.78,3.55-3.29,7.98-4.74,12.41-6.12,4.1-1.27,8.32-2.18,12.46-3.31,2.64-.72,3.64-2.14,3.53-4.9-.1-2.67-.17-5.36-.54-8-.47-3.4-3.58-6.46-7.35-6.37-.39,0-.79-.17-1.19-.24-1.97-.32-3.53.45-4.64,2-1.26,1.75-2.34,3.64-3.56,5.41-1.82,2.63-4.44,3.81-7.56,3.82-1.7,0-3.13-.68-3.91-2.3-.8-1.66-.76-3.28.42-4.78,1.72-2.18,4.05-3.56,6.41-4.89,4.64-2.63,9.58-4.62,14.88-5.17,3.68-.38,7.46-.4,11.04,1.12,3.79,1.6,5.73,4.53,6.26,8.46.3,2.21.39,4.45.57,6.67-.13,0-.27,0-.4.01Zm-10.19,22.08s-.08,0-.12,0c0-1.83.07-3.67-.02-5.5-.09-1.95-.67-2.6-2.63-2.38-2.52.28-5.03.79-7.47,1.44-3.19.85-6.18,2.18-8.54,4.65-3.56,3.73-1.88,10.64,2.46,12.25,2.2.82,4.42.67,6.63.59,2.7-.09,5.28-.87,7.61-2.29.85-.52,1.57-1.17,1.62-2.34.1-2.14.3-4.28.46-6.42Z"/><path class="cls-22" d="m278.29,177.67c-3.8-.14-7.6-.41-11.4-.39-4.04.02-8.09.29-12.13.48-.69.03-1.38.17-2.07.24-.92.09-1.57-.24-1.98-1.14-.44-.97-.28-1.82.45-2.47.61-.54,1.34-1.05,2.1-1.29,3.85-1.2,4.67-3.67,4.68-7.15.06-20.46.03-40.91.03-61.37,0-3.11.03-6.19-.92-9.25-.75-2.4-2.25-3.91-4.32-5.02-.95-.51-2-.84-2.92-1.39-1.62-.96-1.76-2.23-.33-3.46.74-.63,1.69-1.03,2.57-1.48,3.88-1.99,7.74-4,11.65-5.92,1.05-.51,2.23-.79,3.37-1.08.98-.25,1.69.33,1.9,1.19.27,1.11.31,2.27.4,3.42.03.4-.16.81-.16,1.21-.03,17.54-.08,35.08-.06,52.61,0,9.38.11,18.76.23,28.15.02,1.35.17,2.75.57,4.02.87,2.73,3.15,3.92,5.7,4.66,1.41.41,2.87.66,4.3.99,1.29.3,1.77.96,1.75,2.31-.02,1.26-.63,1.89-1.9,1.96-.52.03-1.02.21-1.54.32,0-.05-.01-.1-.02-.15Z"/><path class="cls-22" d="m375.68,178.96c-5.89.34-11.57-.95-17.21-2.48-1.33-.36-2.17-1.44-2.21-2.8-.1-2.9-.2-5.8-.21-8.7,0-.69.25-1.44.58-2.06.62-1.15,1.86-1.34,2.8-.42.62.6,1.13,1.33,1.62,2.05,3.44,5,8.16,7.65,14.21,8.26,2.65.27,5.18.07,7.7-.61,5.36-1.45,5.74-7.98,2.5-10.97-2.21-2.03-4.79-3.42-7.44-4.74-3.94-1.95-7.93-3.84-11.77-5.97-3.31-1.83-5.98-4.37-7.12-8.17-1.66-5.57-.41-11.85,4.39-15.73,2.94-2.38,6.28-3.81,10.06-4.15,2.09-.18,4.21-.6,6.27-.44,4.07.33,8.12.94,12.17,1.54,1.28.19,2.22.94,2.49,2.38.64,3.42,1.36,6.82,2.01,10.24.05.28-.05.69-.24.9-1.12,1.25-3.6,1.15-4.63-.19-.66-.86-1.22-1.79-1.9-2.63-2.34-2.94-5.2-5.3-8.96-5.85-3.02-.44-6.16-.64-9.18.48-2.21.82-3.3,2.45-3.57,4.68-.3,2.55.59,4.77,2.7,6.14,2.35,1.53,4.94,2.71,7.46,3.98,4.04,2.04,8.17,3.91,12.12,6.1,3.25,1.8,5.8,4.5,6.79,8.16,2.17,8.04-.58,15.76-9.49,19.27-3.81,1.5-7.82,1.97-11.93,1.72Z"/><path class="cls-12" d="m150.98,219.22c.09-.32.17-.65.26-.97,4.16,0,8.32,0,12.48,0,0,.49,0,.98,0,1.46-4.03-.07-8.06-.14-12.09-.22-.22,0-.44-.17-.66-.27Z"/><path class="cls-1" d="m37.96,79.32c1.01-.31,2.07-.53,3.03-.96,1.41-.62,2.76-1.4,4.68-1.02-2.45,1.75-5.19,2.01-7.69,2.91,0-.31-.01-.62-.02-.93Z"/><path class="cls-1" d="m183.48,197c.5.18.99.36,1.49.54-.16.24-.26.59-.48.7-.8.38-1.18-.17-1.51-.78.17-.15.33-.3.5-.46Z"/><path class="cls-13" d="m59.42,120.01c-1.25-.51-2.48-1.07-3.91-.52-.27.11-.9-.15-1.06-.42-.64-1.03-1.27-2.1-1.69-3.23-.29-.77-.04-1.49,1.1-1.39.27.02.73-.26.83-.5,1.13-2.95,1.64-3.31,4.78-3.5.7-.04,1.5-.26,2.03-.68,1.46-1.16,1.54-1.99.73-3.7-.63-1.33-1.34-2.64-1.83-4.03-.61-1.74.26-2.53,2.03-2.37,2.9.26,5.56-.48,7.79-2.46.88-.78.52-1.43-.16-2.27.74.07,1.5.07,2.23.23,1.9.42,3.27-.33,3.99-2.19.09-.22.63-.45.89-.39,1.86.41,3.71.9,5.57,1.34.3.07.64.01,1.12-.28-.98-.66-1.96-1.33-3.26-2.21,1.14-.4,1.94-.78,2.78-.96,2.67-.55,5.36-1.01,8.04-1.52.36-.07.74-.14,1.06-.31,3.16-1.67,4.98-.49,5.34,3.14.31,3.17-.05,6.24-.61,9.33-.12.67-.41,1.31-.65,2.05,2.15.25,1.88,2.06,1.91,3.42.06,3.02-.17,6.05-.2,9.07,0,.47.42.94.62,1.41.21.48.58.98.56,1.45-.11,1.88-.34,3.76-.52,5.64-.11,0-.23-.02-.34-.03.09.09.17.23.27.25,1.63.31,2.24,1.86,1.19,3.18-.18.23-.67.23-1.03.31-.28.06-.78,0-.83.13-.6,1.54-1.07,3.1-.49,4.76.02.06.13.09.2.13.27-2.47.79-3.31,2.73-4.07.46,1.9.9,3.77,1.37,5.63.73,2.89,1.48,5.78,2.23,8.66.33,1.28.72,2.54,1.03,3.82.31,1.32.48,2.65,1.5,3.73.69.73-.06,1.17-.62,1.54-1.06.69-1.85,1.51-1.62,2.94,3.3.06,4.28,2.53,5.38,5.31.06-.56.08-.81.11-1.05.02-.25.04-.49.09-1.19.62.44,1.08.7,1.47,1.04,4.01,3.47,5.97,8.45,9.22,12.48,1.64,2.04,3.46,3.94,5.16,5.94.27.31.59.88.47,1.16-.44,1.05.13,1.77.63,2.53,2.93,4.4,7.2,7.08,11.94,9.09,2.5,1.06,5.13,1.83,7.68,2.79.54.2,1.03.6,1.48.98,1.86,1.58,3.54,3.44,5.58,4.72,2.1,1.31,4.5,2.32,7.17,1.57.38-.11.82-.01,1.37-.01-.59,1.17.06,1.73.99,2.03,2.45.77,4.93,1.46,7.38,2.21,1,.3,1.98.68,2.94,1.22-1.75,1.38-3.65,2.11-5.76,1.68-2.6-.52-5.17-1.2-7.71-1.94-1.33-.39-2.56-1.11-3.88-1.58-2.77-1-5.52-2.11-8.36-2.87-2.57-.69-5.17-.51-7.53.99-.75.48-1.57.87-2.36,1.3-.11-.09-.22-.19-.33-.28.62-.88,1.24-1.75,1.87-2.63-.07-.07-.14-.15-.21-.22-.6.55-1.2,1.11-1.81,1.65-.52.47-1.02,1-1.61,1.37-1.07.67-2.06.45-2.83-.57-.48-.63-.89-1.31-1.35-1.95-1.01-1.41-1.99-1.68-3.62-1.12-.35.12-.82.09-1.16-.04-.69-.28-1.31-.71-1.99-1.02-.84-.38-1.12-.9-.61-1.73.22-.16.44-.31.8-.57-.66-.2-1.04-.32-1.42-.44.23-.42.46-.84.7-1.25.24-.4.51-.79.95-1.48-1.87-.2-3.42-.44-4.98-.52-2.73-.14-5.26-.95-7.7-2.09-1.19-.55-2.14-2.27-2.14-3.84,1.83.28,3.61.56,5.44.84-.1.23-.12.32-.17.38-.42.46-.85.92-1.27,1.37.51.39.96.89,1.53,1.16,2.23,1.08,4.57.67,7.02.56-.12-.39-.12-.63-.24-.76-1.64-1.71-3.31-3.4-4.94-5.12-3.13-3.3-7.11-5.33-11.1-7.28-4.51-2.2-9.15-4.14-13.69-6.26-1.26-.59-2.41-1.43-3.79-2.26,2.12-.66,3.58.37,5.1,1.08,1.72.8,3.36,1.79,5.13,2.44.71.26,1.99.14,2.42-.34.44-.49.45-1.75.15-2.47-1.1-2.58-2.62-4.71-5.75-5.3-1.34-.25-2.62-1.17-3.79-1.99-1.33-.94-2.51-2.1-3.83-3.23,1.06-.13,2.08-.17,3.06-.4,2.42-.56,3.22-2.04,1.94-4.47-.61-1.15-1.62-2.1-2.48-3.11-.65-.76-1.34-1.48-2.03-2.2-.22-.23-.51-.39-1-.75.82,2.44,2.4,4.27,2.23,6.65-.11.09-.22.18-.34.27-.37-.35-.87-.63-1.07-1.06-.43-.89-.73-1.85-1.06-2.79-.75-2.11-2.77-3.45-4.83-3.21-.25,1.01-.49,2.01-.73,3.02-.13,0-.25,0-.38.01-.39-.66-.78-1.33-1.28-2.16-.54.08-1.22.29-1.88.23-.56-.05-1.34-.24-1.6-.64-.56-.87-1.21-1.92-1.19-2.88.06-2.67-1.07-4.58-3.02-6.22-1.32-1.1-2.52-2.35-3.77-3.53.1-.16.21-.32.31-.49.74.32,1.46.75,2.24.93.94.23,1.94.4,2.88.3.33-.03.84-.97.78-1.43-.11-.77-.53-1.54-.96-2.22-.55-.88-1.24-1.67-1.88-2.49-1.08-1.42-1.24-1.41-2.46-.18-.67.68-1.35,1.37-2.13,1.92-.43.3-1.11.49-1.58.37-.27-.07-.5-.88-.48-1.34.05-1.88.2-3.77.3-5.62-1.9.52-2.39,1.3-2.08,3.33.15,1.01.24,2.04.37,3.22h-3.05l-.26.38c2.27,2.2,4.54,4.4,6.64,6.44-.94.59-1.79,1.06-2.57,1.62-.85.61-2.02.49-2.59-.45-.37-.61-.58-1.33-.78-2.03-.61-2.15-1.32-4.24-3.36-5.49-.68-.41-1.46-.66-2.18-.97.05-.21.04-.33.09-.36,1.85-1.28,1.92-1.92.2-3.41-.94-.82-1.97-1.54-3-2.24-.51-.35-.75-.62-.25-1.16.96-1.04,1.85-2.15,2.85-3.15,1.01-1.01,1.88-.99,2.93-.03.43.39.8.85,1.15,1.31.85,1.13.82,1.25-.45,1.95-1.23.68-.97,1.92-.67,2.78.4,1.12,1.28,2.08,2.01,3.07.13.18.62.32.76.22.22-.15.39-.53.39-.81.04-2,.05-4,.03-6,0-.48-.17-.95-.26-1.42.36-.26.71-.53,1.07-.79.7.21,1.53.76,2.08.56.95-.35.96-1.43.86-2.37-.17-1.54-2.54-3.42-4.41-3.51.4.65.8,1.31,1.21,1.97-.09.11-.18.23-.26.34-.98-.42-1.97-.84-2.95-1.27-.05.1-.1.19-.15.29.18.21.36.41.54.62-.26.4-.53.79-.79,1.19Zm21.56,14.03l.03-.03h-.05c-.09-.84-.02-1.59.86-2.09.17-.1.25-.8.09-.99-1.69-2.06-3.41-4.09-5.18-6.08-.31-.35-.91-.46-1.37-.67.84,2.1,1.62,4.02,2.39,5.95-.2.1-.4.19-.6.29-1.2-2.28-2.4-4.56-3.73-7.1-.04.48-.11.73-.06.95.35,1.44.59,2.93,1.15,4.28.79,1.89,1.81,3.69,2.81,5.49.13.24,1.01.39,1.15.23.81-.93,1.61-.93,2.51-.21Zm10.86-.5c1.38-1.75,1.41-2.69.33-4.31-.19-.29-.16-.77-.14-1.15.04-.73.24-1.47.18-2.19-.03-.32-.51-.62-.82-.89-.37-.34-.95-.57-1.12-.98-.26-.61-.25-1.33-.35-2.01l-.34-.17c-.27.34-.67.65-.78,1.04-1.14,4,.1,8.36,3.04,10.67Zm2.13-37.97c-2.67,2.46-3.2,8.11-.93,10.29,2.61-1.86,2.4-4.89,3.16-7.5-1.45,1.07-.8,3.29-2.28,4.55-.79-2.6,1.38-4.87.05-7.34Zm-28.67,16.53c.54,1.55,1.22,2.87,2.82,3.45,1.63.59,3.24,1.24,4.87,1.82.2.07.48-.11.98-.24-2.72-2.4-5.32-4.33-8.68-5.03Zm7.36-2.76c.42-.35.73-.6,1.04-.86-.31-.24-.6-.51-.92-.72-.79-.52-1.59-1.03-2.4-1.53-.24-.14-.51-.22-.88-.38.42,1.39-.16,2.89,1.34,3.69,1.12.6,2.17,1.32,3.26,1.99.07-.09.14-.18.21-.27-.56-.65-1.12-1.31-1.64-1.91Zm-10.23,4.46c.72,2.79,4.36,5.28,6.1,4.39-1.39-2.23-3.86-2.89-6.1-4.39Zm58.34,64.28c-.45-2.63-2.01-4.33-3.74-6.13-.1,2.29,1.64,5.16,3.74,6.13Zm-53.35-66.65c.09.15.17.39.25.39,2.67-.04,4.71,1.86,7.28,2.41-1-1.52-5.8-3.29-7.54-2.8Zm36.03,40.1c.13-.04.25-.08.38-.11.39-2.08-.09-3.61-1.62-4.17.45,1.57.85,2.93,1.24,4.29Zm-31.43-23.73c-.16.83-.02,1.55.84,1.91.13.06.66-.37.63-.48-.17-.74-.39-1.52-1.48-1.43Zm2.39-23.44c-.17.02-.35.04-.52.06-.07.42-.29.91-.15,1.24.14.32.66.47,1.01.7.13-.11.25-.23.38-.34-.24-.55-.48-1.11-.72-1.66Zm38.66,62.83c.13-.11.26-.21.38-.32-.49-1.4-.83-1.74-1.95-1.71.58.75,1.08,1.39,1.57,2.02Z"/><path class="cls-5" d="m34.43,100.02c-.79-1.57-1.77-3.08-2.32-4.74-.75-2.26.37-4.58,2.57-6.13,2.46-1.73,5.34-2.31,8.2-2.91.48-.1.77-.03.67.72-.09.75.11,1.66.48,2.34.96,1.75,4.99,3.25,6.87,2.65.35-.11.73-.45.85-.78.07-.19-.3-.63-.57-.84-.65-.5-1.35-.92-2.2-1.48.68-.43,1.2-.75,1.89-1.18-1.16-.78-2.26-1.52-3.35-2.26.04-.17.09-.34.13-.51,1.44-.39,2.88-.79,4.33-1.15,4.11-1.02,8.26-1.87,12.32-3.06,6.34-1.84,12.66-3.72,19.21-4.72,5.66-.86,11.36-1.09,17.08-1.01,1.46.02,2.02,1.68,1.79,2.92-.58,3.19-2.71,5.19-5.55,6.19-3.42,1.21-6.96,2.1-10.51,2.88-3.39.75-6.85,1.2-10.28,1.75-.57.09-1.16.05-1.74.02-3.49-.16-6.64.94-9.73,2.43-2.9,1.4-5.87,2.67-8.84,3.92-.89.37-1.9.46-3,.72.1-.73.18-1.31.29-2.16-2.26.23-4.34.45-6.5.67-.02.27-.05.55-.05.82,0,1.77-1.01,2.71-2.57,2.02-1.63-.73-3.21-1.75-4.5-2.96-1.37-1.29-.87-2.87.86-3.66.29-.13.58-.24.91-.38-2.34-1.44-5.22-.03-5.94,2.8-.43,1.68-.69,3.34-.28,5.07.14.58.02,1.21.02,1.82-.18.07-.36.13-.54.2Zm27.57-8.58c-.18-2.03-1.29-3.11-2.65-4.02-1.06-.7-1.93-.6-2.78.28-.58.61-.56,1,.32,1.35,1.15.45,2.24,1.05,3.35,1.58.51.24,1.03.47,1.77.81Zm24.97-10.95c1.66-.2,2.11-.57,1.71-1.91-.24-.81-.86-1.61-1.52-2.14-.31-.25-1.53-.02-1.65.27-.34.82-.58,1.86-.36,2.68.13.49,1.18.74,1.82,1.1Zm-10.21.87c-.02-.16-.05-.31-.07-.47-3.18-1.1-8.73-.09-10.18,2.02.57-.16,1.01-.21,1.37-.4,1.6-.8,3.21-.84,4.98-.59,1.25.18,2.59-.35,3.9-.56Zm-12.72,4.89c-.96-1.81-2.71-2.24-4.05-1.06.7,1.61,2.26,2.03,4.05,1.06Zm29.95-8.5c-.58-1.22-1.36-.95-3.11,1.14,1.15-.42,2.08-.76,3.11-1.14Z"/><path class="cls-21" d="m77.5,184.26c.41.91.58,1.6.98,2.09.87,1.06,1.82,2.06,2.82,3,.43.4,1.01.73,1.58.87,2.45.59,4.25,2.03,5.56,4.11.65,1.04.4,1.45-.81,1.41-2.18-.07-4.1-.91-5.71-2.35-3.35-2.99-6.73-5.94-9.91-9.1-4.02-3.99-6.99-8.75-9.68-13.72-1.3-2.4-2.96-4.61-4.52-6.86-3.56-5.17-7.03-10.41-9.72-16.11-.77-1.64-1.38-3.35-2.02-5.04-.13-.33-.1-.73-.14-1.09.15-.13.31-.27.46-.4.14.33.27.66.43.98,1.3,2.63,2.5,5.32,3.93,7.88,1.31,2.34,2.81,4.58,4.33,6.79.85,1.23,1.99,2.25,2.85,3.47.73,1.04,1.24,2.24,1.88,3.34.29.49.6,1.03,1.04,1.34,2.13,1.49,3.54,3.42,4.18,5.97.34,1.33.92,2.62,1.52,3.86.76,1.56,1.93,2.63,3.8,2.81.48.05,1.04.49,1.34.92.7.98,1.23,2.07,1.87,3.09,1,1.58,2.31,2.71,3.92,2.73Z"/><path class="cls-7" d="m163.72,218.25c-4.16,0-8.32,0-12.48,0-.99-.16-1.97-.36-2.97-.48-3.01-.36-6.03-.63-9.04-1.03-2.51-.33-4.99-.8-7.49-1.19-2.63-.41-5.29-.64-7.88-1.22-3.19-.71-6.38-1.49-9.44-2.61-4.47-1.63-8.83-3.58-13.24-5.39.18-.28.37-.56.55-.84,2.27.95,4.54,1.9,6.81,2.85.06-.13.12-.25.18-.38-4.39-2.19-8.97-4.06-12.96-6.97.06-.15.11-.3.17-.46,1.19.38,2.44.63,3.56,1.17,2.46,1.18,4.84,2.53,7.28,3.76,1.39.7,2.81,1.33,4.24,1.93.36.15.81.08,1.21.11.45.33.8.94,1.51.5.8.49,1.55,1.1,2.41,1.45,3.1,1.26,6.2,2.51,9.36,3.59,1.71.58,3.53.86,5.31,1.19,2.51.46,5.03.98,7.57,1.19,3.36.29,6.72.62,10.1-.1,1.56-.33,3.15.13,4.75.46,2.3.49,4.74.41,7.12.45,1.61.03,3.23-.29,4.82-.2,1.59.09,3.17.5,4.75.77-.01.15-.03.3-.04.45-2.06.33-4.12.66-6.17.99Z"/><path class="cls-16" d="m73.7,164.76c1.15.46,2.3.92,3.46,1.38.07-.08.14-.16.21-.24-1.54-1.27-3.09-2.55-4.76-3.93.52-.14.9-.25,1.7-.47-1.05-1.01-1.96-1.88-3.14-3.01h2.16c-.04-.63-.07-1.12-.11-1.62.09.05.18.11.27.16.37-.4.7-.85,1.12-1.17.3-.22.77-.44,1.09-.36,2.41.6,4.8,1.28,7.19,1.94.11.03.21.12.61.37-1.35.66-2.45,1.2-3.85,1.89,1.01.82,1.77,1.44,2.7,2.19h-2.7c-.06.12-.11.23-.17.35.83.53,1.67,1.05,2.48,1.61.3.21.77.59.73.83-.16,1.1.5,1.64,1.2,2.25.97.85,2.24,1.57,1.66,3.27-.07.21.32.63.57.88.52.51,1.08.97,1.72,1.54-1.63.22-12.87-5.8-14.14-7.83Z"/><path class="cls-18" d="m77.65,153.69c-1.5-.66-3-1.31-4.49-1.99-2.52-1.16-5.02-2.37-7.56-3.5-.83-.37-1.48-.76-1.81-1.7-.31-.89-.9-1.68-1.31-2.54-.51-1.05-.08-1.65,1.11-1.49.76.1,1.51.35,2.24.62,1.19.44,2.34,1.05,3.55,1.41.64.19,1.48.17,2.04-.12.25-.13.15-1.21-.03-1.79-.25-.85-.72-1.63-1.09-2.44,1.56-.38,2.01-.13,2.39,1.45.29,1.22.58,2.45.76,3.69.21,1.42,1.01,2.46,1.92,3.48.77.87,1.53,1.76,2.17,2.73.33.5.37,1.18.54,1.78-.15.14-.3.27-.44.41Z"/><path class="cls-4" d="m59.23,72.78c4.98-1.3,9.95-2.62,14.94-3.87.91-.23,1.89-.19,2.83-.19.66,0,.97.44.55.99-.84,1.1-.42,1.89.38,2.77.45.49.65,1.2.96,1.81-.12.09-.25.17-.37.26-.85-.75-1.7-1.5-2.56-2.26-.09,1.23-.1,2.23-.26,3.2-.27,1.66-2.01,2.35-3.3,1.25-.81-.69-1.41-1.61-2.1-2.44-.16-.19-.26-.43-.42-.62-.49-.55-1.04-1.38-1.8-.81-.35.26-.16,1.24-.19,1.9,0,.19.07.38.16.88-2.73-2-5.63-1.97-8.57-1.76-.08-.37-.17-.75-.25-1.12Z"/><path class="cls-21" d="m45.5,132.5c2.08,2.82,2.75,6.25,4.02,9.41-.29.33-.57.66-.86,1-1.04-1.78-2.22-3.51-3.1-5.37-1.77-3.7-3.38-7.48-5.04-11.23-.27-.61-.41-1.29-.71-2.26.61.25,1.08.3,1.25.54.77,1.17,1.46,2.39,2.18,3.59l-.09.74c.08.03.16.06.24.09.1-.19.21-.39.31-.58-.51-1.75-1.02-3.5-1.52-5.26-.06-.23-.09-.46-.14-.69.17-.01.33-.02.5-.03,1.96,2.72,3.47,5.64,3.93,9.01-.17.36-.35.71-.52,1.07-.09,0-.16-.03-.23-.08-.24-.24-.49-.49-.73-.73-.13-.39-.26-.77-.39-1.16-.15.09-.3.18-.45.27.27.31.54.61.81.92.18.25.36.5.54.75Zm-1.28-2.76s.07.04.11.05c-.03-.02-.07-.04-.1-.06-.04-.19-.08-.39-.11-.58-.1.05-.2.1-.29.15.13.15.27.29.4.44Z"/><path class="cls-4" d="m80.44,177.08c2-.75,3.91-.31,5.76.21,2.31.64,4.57,1.48,6.82,2.3.39.14.65.64.96.98-.33.3-.62.76-1.01.89-2.69.85-5.3.65-7.89-.54-1.87-.86-3.77-1.57-4.64-3.83Z"/><path class="cls-18" d="m69.41,65.72c.1.56.23.95.22,1.34,0,.67.11,1.77-.2,1.93-.6.31-1.6.33-2.21.03-2.39-1.17-3.89-3.18-4.69-5.7-.13-.42-.09-1.11.17-1.38.22-.22.91-.1,1.34.02,1.54.45,3.07.93,4.58,1.47.65.24,1.27.61,1.85,1.01.31.21.48.61.72.92-.36.12-.73.26-1.1.36-.15.04-.32,0-.69,0Z"/><path class="cls-5" d="m196.49,206.06c-1.03,1.42-2.35,1.36-3.48,1.4-1.89.07-3.8-.14-5.7-.21-2.56-.1-5.12-.16-7.68-.29-.48-.03-.94-.34-1.41-.51.3-.4.53-1.06.92-1.17,1.24-.36,2.53-.7,3.81-.72,1.75-.03,3.51.2,5.25.4,2.67.31,5.33.7,8.28,1.1Z"/><path class="cls-16" d="m50.61,46.97c.19.89.35,1.62.51,2.33-1.73-1.23-1.3-4.41.78-5.76,1.17-.77,2.37-.69,3.51-.08.93.5,1.6,1.27,1.61,2.48,0,.78-.28,1.04-1.01,1.04-1.7-.02-3.41,0-5.38,0Z"/><path class="cls-7" d="m143.49,207.23c.37-.65.63-1.42,1.14-1.93.72-.72,1.58-1.33,2.46-1.86,1.56-.95,2.08-.69,2.49,1.06.4,1.72.06,2.61-1.32,3.32-.61.31-1.23.39-1.45-.42-.24-.9-.71-.68-1.29-.42-.53.24-1.08.43-1.63.65l-.4-.4Z"/><path class="cls-8" d="m132.22,212.89c-2-.31-4.05-.43-5.99-.96-2.78-.76-5.49-1.8-8.23-2.72.06-.2.11-.4.17-.6,1.75.37,3.51.73,5.26,1.12,1.45.32,2.9.65,4.34,1.03,1.49.39,2.97.84,4.45,1.27,0,.29,0,.58,0,.87Z"/><path class="cls-8" d="m53.08,104.19h2.82c.03-.1.06-.2.1-.3-1.36-.59-2.72-1.18-4.07-1.78.04-.14.07-.29.11-.43,2.07.49,4.28-.13,6.25.96.35.19.65,1.3.55,1.37-.95.65-1.94,1.34-3.02,1.68-1.07.34-1.97-.27-2.73-1.5Z"/><path class="cls-8" d="m93.72,177.41c1.23.41,2.48.77,3.69,1.25,1.64.66,3.26,1.39,4.86,2.14.35.16.58.56,1.05,1.02-4.43.86-7.04-1.69-9.76-3.96.06-.15.11-.3.17-.44Z"/><path class="cls-8" d="m63.14,67.98c-1,0-1.99.03-2.98,0-2.23-.07-4.45-.06-6.57.81-.17.07-.38.13-.55.09-.13-.03-.22-.22-.53-.55,1.61-.56,3.06-1.16,4.56-1.57,1.34-.37,2.72-.63,4.1-.76.96-.09,1.92.97,1.98,1.97Z"/><path class="cls-20" d="m108.81,180.23c-1.44,1.07-6.8-.21-10.04-2.38,1.34,0,2.51-.24,3.52.05,2.17.62,4.26,1.5,6.52,2.33Z"/><path class="cls-16" d="m213.45,206.07c3.31-.27,6.52-.67,9.78.26-.47.13-.93.34-1.41.38-2.21.2-4.42.4-6.63.5-.71.03-1.58-.03-1.74-1.14Z"/><path class="cls-17" d="m59.23,72.78c.08.37.17.75.25,1.12-2.22.55-4.45,1.09-6.67,1.66-.69.18-1.35.5-2.05.64-.33.06-.71-.15-1.08-.4,3.02-1.6,6.36-2.07,9.54-3.01Z"/><path class="cls-8" d="m111.95,81.08c3.63-.43,5.36,1.02,4.89,3.77-1.56-1.2-3.11-2.4-4.89-3.77Z"/><path class="cls-1" d="m101.73,205.5c-.18.28-.37.56-.55.84l-7.3-4.07c.07-.14.15-.28.22-.43,2.82.62,5.08,2.45,7.63,3.66Z"/><path class="cls-21" d="m151.34,208.21c-.87-1.05-.75-1.82.14-2.35.75-.45,1.58-.78,2.41-1.07.22-.07.64.16.81.38.09.11-.09.59-.28.74-1.01.8-2.05,1.54-3.09,2.31Z"/><path class="cls-8" d="m99.93,188c2.29.47,4.27,1.17,6.16,2.77-2.21.41-5.59-1.17-6.16-2.77Z"/><path class="cls-20" d="m94.75,175.98c-1.99.03-3.86-.28-5.17-2.01l.17-.44c1.73.64,3.45,1.29,5.18,1.93-.06.18-.12.35-.18.53Z"/><path class="cls-17" d="m63.31,122.19c-.36.26-.71.53-1.07.79-.94-.99-1.88-1.98-2.82-2.97.26-.4.53-.79.79-1.19,1.03,1.12,2.06,2.24,3.09,3.37Z"/><path class="cls-20" d="m100.25,183.27c1.59.52,3.17,1.04,4.76,1.55l-.18.56c-1.95.72-3.2-.86-4.71-1.58.04-.18.09-.36.13-.53Z"/><path class="cls-21" d="m49.19,105.26c-.61.43-1.2,1.19-1.71,1.13-.62-.06-1.16-.81-1.74-1.26.32-.22.66-.63.97-.61.77.06,1.73-.5,2.49.74Z"/><path class="cls-8" d="m65.19,57.05c-1.34,1.07-2.72.92-4.08.92-.04-1.47,1.8-1.93,4.08-.92Z"/><path class="cls-1" d="m166.63,209.07c-1.06,1.22-1.92,2.32-3.52,2.48-.05-1.58,1.37-2.62,3.52-2.48Z"/><path class="cls-21" d="m48.54,117.91c-.83-.28-1.69-.48-2.47-.86-.66-.33-.57-.93.09-1.1.57-.15,1.33-.14,1.82.13.44.24.63.93.93,1.42-.12.14-.25.28-.37.42Z"/><path class="cls-8" d="m49.57,113.78c-1.04,1.09-2.2.8-4.13-.99,1.53-.13,2.89-.16,4.13.99Z"/><path class="cls-8" d="m41.17,118.83c-.6-.72-1.19-1.19-1.45-1.8-.16-.38.16-.97.27-1.47.36.16.87.22,1.06.49.49.72.98,1.52.13,2.78Z"/><path class="cls-20" d="m154.45,207.55c-.32,1.86-1.02,2.39-2.63,2.05.11-1.14.97-1.84,2.63-2.05Z"/><path class="cls-17" d="m87.82,156.47c-.98-.43-1.82-.8-2.67-1.17.01-.18.02-.36.04-.54.52-.09,1.09-.35,1.56-.22.68.19,1.41.57,1.08,1.93Z"/><path class="cls-1" d="m158.89,207.22c-.36,1.3-1.3,1.89-2.58,1.62.36-1.52,1.25-2.08,2.58-1.62Z"/><path class="cls-1" d="m54.85,134.01c.86,0,1.61-.02,2.34.01.17,0,.46.19.47.3,0,.21-.1.48-.25.63-.99.91-1.85.63-2.56-.94Z"/><path class="cls-1" d="m48.67,142.91c.29-.33.57-.66.86-1l1.5,2.94-.37.31c-.66-.75-1.33-1.5-1.99-2.25Z"/><path class="cls-6" d="m111.86,196.44c-1.68.61-2.69.16-2.87-1.14,1.16-.24,2.03.16,2.87,1.14Z"/><path class="cls-1" d="m122.8,197.27c-.64.92-1.54.34-2.33.42.04-.31.01-.84.14-.89.65-.22,1.34-.31,2.01-.44.06.3.12.61.17.91Z"/><path class="cls-17" d="m66.28,158.18c1.77-.38,3.24.49,3.37,1.93-1.12-.64-2.14-1.23-3.37-1.93Z"/><path class="cls-1" d="m159.95,209c.18,1.46-.95,1.56-1.75,2.06-.34-1.38.15-1.95,1.75-2.06Z"/><path class="cls-6" d="m113.74,208c-.7.44-1.06-.17-1.51-.5.47-.35.92-.74,1.43-1.01.08-.04.62.43.63.68,0,.27-.35.55-.55.83Z"/><path class="cls-6" d="m61.91,154.23c1.6-.06,2.24.83,2.8,1.99-1.42.03-2.05-.9-2.8-1.99Z"/><path class="cls-6" d="m82.92,174.21c-.83,0-1.66.03-2.49-.03-.16-.01-.33-.4-.41-.64-.02-.07.26-.35.39-.34.88.1,1.75.25,2.62.39-.04.21-.07.41-.11.62Z"/><path class="cls-1" d="m104.63,202.74c-.4-.44-.67-.74-.95-1.05.29-.23.6-.66.86-.63.35.04.65.44.98.68-.25.28-.5.57-.88,1Z"/><path class="cls-6" d="m104.05,193.83c1.1.26,1.87.44,2.87.68-1.4,1.04-2,.91-2.87-.68Z"/><path class="cls-6" d="m62.53,160.44c.75.66,1.49,1.32,2.45,2.17-1.41.02-2.41-.84-2.45-2.17Z"/><path class="cls-1" d="m94.72,194.5c.8-.11,1.6-.23,2.39-.34.07.13.13.25.2.38-.28.23-.54.6-.86.66-.56.1-1.15.02-1.72.01v-.72Z"/><path class="cls-19" d="m117.96,199.44h3.5c-.02.19-.03.38-.05.57-1.16-.11-2.32-.23-3.48-.34l.03-.23Z"/><path class="cls-1" d="m39.35,97.27c.41.98.62,1.69-.37,1.66-.33,0-.64-.36-.97-.56.45-.37.89-.74,1.34-1.1Z"/><path class="cls-14" d="m133.11,208.32c.53-.25,1.06-.51,1.59-.76.03.29.18.63.08.85-.34.7-.9.7-1.48.37-.06-.16-.13-.31-.19-.47Z"/><path class="cls-1" d="m52.39,107.29c-.62.34-.93.65-1.24.64-.24,0-.69-.43-.66-.62.03-.28.4-.7.64-.71.31-.01.63.32,1.26.69Z"/><path class="cls-6" d="m163.12,208.92c-.37.78-.81,1.43-1.77,1.21-.09-.14-.18-.29-.27-.43.6-.39,1.2-.77,1.8-1.16.08.13.16.25.24.38Z"/><path class="cls-17" d="m129.89,182.72v-1.74l.32-.12c.26.27.72.54.72.81,0,.4-.34.79-.54,1.18-.17-.05-.34-.09-.5-.14Z"/><path class="cls-19" d="m86.28,183.33c.66.31,1.31.63,1.97.94l-.22.44c-.91.19-1.45-.41-1.95-1.09.07-.1.13-.2.2-.29Z"/><path class="cls-6" d="m201.1,206.18c-.36.27-.7.57-1.08.79-.06.03-.34-.32-.51-.5.35-.3.71-.61,1.06-.91l.54.62Z"/><path class="cls-17" d="m96.36,189.07c.39.05.79.05,1.16.17.25.09.45.35.67.53-.25.16-.57.51-.73.45-.49-.19-.93-.53-1.38-.81.09-.11.19-.22.28-.33Z"/><path class="cls-9" d="m122.8,197.27c-.06-.3-.12-.61-.17-.91.35-.12.7-.24,1.04-.36.38.12.76.23,1.42.44-.36.26-.58.41-.8.57-.5.09-.99.17-1.49.26Z"/><path class="cls-1" d="m132.22,212.89c0-.29,0-.58,0-.87.38.21.77.43,1.15.64-.02.1-.04.2-.06.3-.37-.02-.73-.05-1.1-.07Z"/><path class="cls-8" d="m45.96,132.53c.17-.36.35-.71.52-1.07.06.39.12.79.18,1.18-.24-.04-.47-.08-.71-.11Z"/><path class="cls-8" d="m44.99,131.72l.73.73c-.07.04-.14.06-.22.04-.18-.25-.36-.5-.54-.75l.03-.03Z"/><path class="cls-8" d="m43.7,128.43c-.1.19-.21.39-.31.58-.08-.03-.16-.06-.24-.09l.09-.74.46.25Z"/><path class="cls-8" d="m42.55,122.45c-.17.01-.33.02-.5.03.17-.01.33-.02.5-.03Z"/><path class="cls-2" d="m323.98,160.41c-.16,2.14-.37,4.28-.46,6.42-.05,1.18-.77,1.82-1.62,2.34-2.33,1.42-4.92,2.19-7.61,2.29-2.21.08-4.43.22-6.63-.59-4.34-1.61-6.02-8.52-2.46-12.25,2.36-2.47,5.35-3.8,8.54-4.65,2.45-.66,4.96-1.16,7.47-1.44,1.96-.22,2.54.43,2.63,2.38.08,1.83.02,3.67.02,5.5.04,0,.08,0,.12,0Z"/><path class="cls-11" d="m80.99,134.04c-.9-.73-1.7-.72-2.51.21-.14.16-1.02,0-1.15-.23-1.01-1.79-2.02-3.59-2.81-5.49-.56-1.35-.8-2.84-1.15-4.28-.05-.22.02-.47.06-.95,1.33,2.54,2.53,4.82,3.73,7.1.2-.1.4-.19.6-.29-.77-1.92-1.55-3.85-2.39-5.95.46.22,1.05.32,1.37.67,1.77,1.99,3.49,4.02,5.18,6.08.16.19.09.89-.09.99-.88.5-.95,1.25-.86,2.1l.03.03Z"/><path class="cls-3" d="m91.84,133.53c-2.94-2.32-4.18-6.68-3.04-10.67.11-.39.51-.69.78-1.04l.34.17c.1.68.09,1.4.35,2.01.18.41.75.65,1.12.98.3.28.79.57.82.89.06.72-.14,1.46-.18,2.19-.02.39-.06.86.14,1.15,1.08,1.62,1.05,2.56-.33,4.31Z"/><path class="cls-10" d="m93.97,95.56c1.33,2.48-.84,4.75-.05,7.34,1.48-1.26.83-3.48,2.28-4.55-.76,2.61-.55,5.64-3.16,7.5-2.28-2.19-1.74-7.83.93-10.29Z"/><path class="cls-23" d="m63.31,122.19c-1.03-1.12-2.06-2.24-3.09-3.37-.18-.21-.36-.41-.54-.62.05-.1.1-.19.15-.29.98.42,1.97.84,2.95,1.27.09-.11.18-.23.26-.34-.41-.66-.81-1.33-1.21-1.97,1.87.09,4.24,1.96,4.41,3.51.1.94.09,2.02-.86,2.37-.55.2-1.38-.35-2.08-.56Z"/><path class="cls-15" d="m65.3,112.09c3.36.7,5.96,2.63,8.68,5.03-.5.13-.79.31-.98.24-1.63-.58-3.24-1.24-4.87-1.82-1.6-.57-2.29-1.89-2.82-3.45Z"/><path class="cls-10" d="m72.67,109.33c.52.61,1.08,1.26,1.64,1.91-.07.09-.14.18-.21.27-1.08-.67-2.14-1.39-3.26-1.99-1.5-.8-.92-2.3-1.34-3.69.37.16.64.24.88.38.81.5,1.61,1.01,2.4,1.53.32.21.61.48.92.72-.31.26-.62.52-1.04.86Z"/><path class="cls-23" d="m62.44,113.79c2.23,1.5,4.7,2.16,6.1,4.39-1.74.89-5.37-1.61-6.1-4.39Z"/><path class="cls-23" d="m120.78,178.07c-2.1-.98-3.84-3.84-3.74-6.13,1.73,1.8,3.29,3.5,3.74,6.13Z"/><path class="cls-22" d="m67.43,111.42c1.73-.48,6.54,1.28,7.54,2.8-2.57-.55-4.62-2.45-7.28-2.41-.08,0-.16-.24-.25-.39Z"/><path class="cls-22" d="m103.46,151.52c-.39-1.36-.79-2.72-1.24-4.29,1.53.56,2.01,2.09,1.62,4.17-.13.04-.25.08-.38.11Z"/><path class="cls-23" d="m72.03,127.79c1.08-.09,1.3.69,1.48,1.43.03.11-.5.54-.63.48-.86-.36-1.01-1.08-.84-1.91Z"/><path class="cls-23" d="m74.42,104.35c.24.55.48,1.11.72,1.66-.13.11-.25.23-.38.34-.35-.23-.87-.38-1.01-.7-.14-.33.08-.82.15-1.24.17-.02.35-.04.52-.06Z"/><path class="cls-10" d="m113.07,167.18c-.5-.64-.99-1.28-1.57-2.02,1.12-.03,1.46.31,1.95,1.71-.13.11-.26.21-.38.32Z"/><polygon class="cls-11" points="80.97 134.01 81.02 134 80.99 134.04 80.97 134.01"/><path class="cls-10" d="m62,91.43c-.74-.34-1.25-.57-1.77-.81-1.12-.53-2.21-1.13-3.35-1.58-.88-.35-.9-.74-.32-1.35.85-.89,1.72-.99,2.78-.28,1.37.91,2.48,1.99,2.65,4.02Z"/><path class="cls-10" d="m86.97,80.49c-.64-.36-1.69-.61-1.82-1.1-.22-.82.02-1.86.36-2.68.12-.29,1.34-.52,1.65-.27.66.54,1.28,1.33,1.52,2.14.4,1.34-.04,1.72-1.71,1.91Z"/><path class="cls-23" d="m76.76,81.36c-1.3.21-2.65.74-3.9.56-1.77-.25-3.38-.22-4.98.59-.37.18-.8.24-1.37.4,1.45-2.11,7.01-3.11,10.18-2.02.02.16.05.31.07.47Z"/><path class="cls-15" d="m64.04,86.25c-1.79.97-3.35.55-4.05-1.06,1.34-1.18,3.09-.75,4.05,1.06Z"/><path class="cls-22" d="m93.99,77.75c-1.02.37-1.96.72-3.11,1.14,1.74-2.09,2.52-2.35,3.11-1.14Z"/><path class="cls-8" d="m44.96,131.75c-.27-.31-.54-.61-.81-.92.15-.09.3-.18.45-.27.13.39.26.77.39,1.16,0,0-.03.03-.03.03Z"/><path class="cls-8" d="m44.22,129.74c-.13-.15-.27-.29-.4-.44.1-.05.2-.1.29-.15.04.19.08.39.11.58,0,0,0,0,0,0Z"/><path class="cls-8" d="m44.23,129.73s.07.04.1.06c-.04-.02-.07-.04-.11-.05,0,0,0,0,0,0Z"/></svg>