<?xml version="1.0" encoding="UTF-8"?><svg id="Layer_1" xmlns="http://www.w3.org/2000/svg" viewBox="0 0 512 512"><defs><style>.cls-1{fill:#fff;}.cls-2{fill:#222021;}.cls-3{fill:#181616;}.cls-4{fill:#100e0f;}.cls-5{fill:#110f10;}</style></defs><path class="cls-1" d="m49.01,512H0c0-170.64,0-341.28,0-512h512v512h-29.84c.19-.25.35-.7.56-.73,13.41-1.37,20.9-9.54,24.45-21.78,3.94-13.61,3.88-27.51,2.02-41.47-2.9-21.66-14.32-30.18-33.82-29.84-7.04.12-14.04,2.66-21.12,4.1,0-12.29-.13-25.12.08-37.95.06-3.86-.96-5.44-5.03-5.25-5.99.28-12.02.34-18-.01-4.4-.26-5.24,1.55-5.23,5.52.12,40,.07,80.01.08,120.01,0,1.43.16,2.85.25,4.39,4.92,0,9.43-.25,13.9.08,4.06.3,7.09-.28,7.24-4.97,6.76,2.72,13.18,5.31,19.61,7.89h-96.03c7.19-2.49,14.39-4.97,21.79-7.53.44,1.11,1.08,2.71,1.74,4.36h19.19c0-3.11,0-6.05,0-8.99,0-24.65,0-49.31-.04-73.96,0-2.16.8-5.05-2.97-5.06-8.12-.02-16.23,0-24.91,0v5.88c0,17.32-.31,34.66.18,51.97.16,5.54-2.33,7.85-6.67,9.05-3.1.86-6.43.87-9.67,1.25-5.16.6-9.66-3.59-9.59-9.61.19-17.82.1-35.65-.1-53.47-.02-1.69-1.57-4.79-2.52-4.83-8.41-.38-16.84-.22-25.43-.22,0,23.19-.32,45.66.2,68.11.15,6.58,3.21,13.02,9.2,16.77,4.2,2.63,9.05,4.23,13.6,6.28h-151.05c2.39-.66,4.85-1.14,7.13-2.06,1.13-.46,2.7-1.7,2.74-2.65.25-6.07.13-12.16.13-18.3-3.53,0-6.36.02-9.19,0-7.14-.07-10.2-2.9-10.47-10.07-.19-5.15-.04-10.32-.05-15.48,0-6.42,0-12.85,0-19.45,5.68,0,10.68.22,15.65-.14,1.42-.1,3.83-1.8,3.89-2.88.36-6.57.18-13.18.18-20.13h-20.08v-25.39h-26.4c-.3.57-.58.86-.58,1.15-.07,6.99-.18,13.98-.11,20.96.03,2.7-.57,3.89-3.65,4.6-11.25,2.6-11.2,2.81-11.2,14.64,0,1.17.09,2.34-.02,3.49-.26,2.87,1.07,3.84,3.82,3.72,3.59-.15,7.18-.04,11.07-.04,0,13.31.43,25.96-.13,38.56-.51,11.45,5.69,24.5,18.04,27.43,2.11.5,4.15,1.34,6.22,2.02h-118.04c.82-.33,1.61-.84,2.46-.97,8.38-1.32,16.41-3.65,23.45-8.53,1.19-.82,2.35-2.67,2.36-4.06.15-20.33.06-40.67.15-61,.01-3.31-1.36-4.38-4.49-4.36-13,.08-26.01.12-39.01-.03-3.15-.03-4.06,1.13-3.97,4.1.16,5.5.14,11,.01,16.5-.09,3.78,1.5,5.47,5.3,5.37,4.61-.12,9.22-.03,13.97-.03,0,3.94.08,7.26-.02,10.59-.14,4.77,1.4,11.52-1.09,13.78-2.88,2.61-9.37,1.08-14.25,1.67-13.97,1.68-23.06-9.86-25.79-20.59-3.09-12.14-3.11-24.47-.97-36.69,3.38-19.3,12.7-26.29,30.7-26.56,8.54-.13,17.1,2.04,25.68,2.92,1.13.12,3.19-.95,3.47-1.88,1.47-4.75,2.43-9.66,3.7-14.47,1.65-6.22,1.11-7.32-5.09-9.45-.61-.21-1.31-.15-1.92-.36-11.84-3.99-24.11-3.26-36.25-2.88-18.55.59-33.24,8.23-41.58,25.55-10.65,22.13-11.02,45.32-6.11,68.84,3.82,18.29,13.12,32.31,31.71,38.52,4.47,1.49,9.03,2.69,13.56,4.02Zm67.03-90.88l-.76.86c-.07,27.66-.11,55.32-.23,82.98-.01,2.97,1.04,4.17,4.11,4.09,6.5-.17,13.01-.23,19.5.02,3.66.14,4.65-1.38,4.54-4.71-.16-4.99-.04-10-.04-15,0-21.33.01-42.66-.02-64,0-2.03.76-4.8-2.68-4.76-8.14.08-16.27.33-24.41.51Zm106.13-169.4c.14.09-.48-.55-1.22-.72-8.8-2.06-17.76-3.58-26.4-6.15-13.84-4.12-24.87-12.54-33.3-24.23-9.42-13.06-12.79-28.24-14.09-43.84-1.64-19.76,2.9-37.96,15.94-53.5.69-.82,1.15-2.26.99-3.3-.57-3.84-1.38-7.64-2.21-11.43-2.32-10.5.4-20.33,4.01-30.02.25-.68,1.29-1.54,1.95-1.53,3.45.03,6.97-.05,10.34.59,12.12,2.28,22.39,8.79,32.89,14.78,1.27.73,3.16.82,4.67.6,8.53-1.24,17-3.54,25.55-3.85,16.91-.6,33.9-.9,50.53,3.64,2.86.78,6.42.49,9.24-.5,3.12-1.09,5.65-3.78,8.65-5.36,10.01-5.26,19.94-10.85,31.91-10.02,2.49.17,3.74.42,4.82,3.39,4.68,12.9,4.47,25.8,1.67,38.95-.35,1.66.27,4.1,1.37,5.41,8.63,10.28,13.44,22.24,14.5,35.4.97,12.13.13,24.3-2.82,36.24-5.58,22.59-18.63,38.85-40.73,46.79-10.62,3.81-21.74,6.22-32.37,9.19,6.66,7.75,9.94,17.55,10.02,28.44.12,15.83.06,31.66.17,47.48.06,8.61,4.32,11.86,12.42,8.76,9.4-3.58,19.05-7.04,27.59-12.2,11.5-6.94,22.86-14.57,32.84-23.5,18.37-16.43,32.31-36.37,41.65-59.37,10.14-24.97,14.73-50.69,12.58-77.77-1.32-16.68-4.55-32.77-10.29-48.34-8.68-23.53-22.49-43.93-40.3-61.4-14-13.73-30.2-24.5-48.16-32.77-16.97-7.81-34.7-12.79-53.08-14.39-13.29-1.16-26.85-.16-40.23.84-19.9,1.49-38.35,8.2-56.08,17.22-22.3,11.34-40.72,27.18-55.88,46.94-25.65,33.45-37.93,71.11-35.17,113.31.66,10.03,1.88,20.15,4.12,29.94,6.88,30.17,21.5,56.41,42.77,78.77,6.88,7.23,14.67,13.74,22.69,19.71,13.79,10.26,28.97,18.15,45.34,23.63,5.36,1.79,12.93-1.12,12.21-8.9-.83-8.92-.18-17.98-.21-26.98,0-1.22-.24-2.44-.3-3.03-7.29.46-14.13,1.08-20.97,1.28-14,.41-31.28-8.95-37.16-24.95-2.71-7.36-9.02-13.48-14.1-19.85-1.86-2.33-5.07-3.53-7.23-5.69-1.19-1.19-1.47-3.3-2.16-5,1.48-.49,2.94-1.33,4.45-1.43,12.36-.81,20.41,6.17,27.55,15.11,4.38,5.48,8.55,11.53,14.08,15.61,10.53,7.78,22.38,5.74,33.87,1.61,1.23-.44,2.37-2.02,2.93-3.34,2.74-6.48,5.28-13.04,8.16-20.27Zm69.8,257.61c7.98,0,15.44-.2,22.88.08,4.31.16,5.41-1.57,5.34-5.58-.2-11.32-.07-22.65-.07-33.98,0-28.48-.08-56.97.09-85.45.03-4.25-1.33-5.51-5.42-5.32-6.15.29-12.33.2-18.49.03-3.28-.09-4.32,1.13-4.29,4.38.14,13.16.06,26.32.06,39.48,0,1.58,0,3.16,0,4.5h-37.69c0-14.37-.22-28.35.12-42.32.12-5.03-1.65-6.38-6.33-6.07-5.14.34-10.35.4-15.48-.01-5.03-.4-6.54,1.24-6.51,6.37.21,39.31.11,78.62.11,117.93v5.96c8.2,0,15.83-.19,23.44.08,3.87.14,4.76-1.34,4.72-4.94-.17-15.16-.07-30.31-.07-45.47,0-1.76,0-3.53,0-5.38h37.59v55.71Zm-162.95-126.35c-8.99,0-16.26,6.91-15.98,15.18.27,7.94,7.79,14.82,16.19,14.83,8.1.01,14.84-5.93,14.82-13.07-.04-12.17-4.27-16.93-15.03-16.94Z"/><path class="cls-4" d="m49.01,512c-4.52-1.33-9.09-2.53-13.56-4.02-18.59-6.21-27.89-20.23-31.71-38.52-4.91-23.52-4.55-46.71,6.11-68.84,8.33-17.32,23.02-24.96,41.58-25.55,12.14-.38,24.41-1.11,36.25,2.88.61.21,1.31.15,1.92.36,6.2,2.13,6.74,3.24,5.09,9.45-1.28,4.81-2.23,9.72-3.7,14.47-.29.93-2.35,2-3.47,1.88-8.58-.89-17.14-3.05-25.68-2.92-18,.28-27.32,7.26-30.7,26.56-2.14,12.22-2.12,24.55.97,36.69,2.73,10.73,11.83,22.26,25.79,20.59,4.88-.59,11.38.94,14.25-1.67,2.49-2.26.95-9.01,1.09-13.78.1-3.32.02-6.65.02-10.59-4.75,0-9.36-.09-13.97.03-3.8.1-5.39-1.59-5.3-5.37.13-5.5.15-11-.01-16.5-.09-2.96.83-4.13,3.97-4.1,13,.14,26.01.11,39.01.03,3.13-.02,4.5,1.05,4.49,4.36-.09,20.33,0,40.67-.15,61-.01,1.38-1.18,3.23-2.36,4.06-7.04,4.88-15.07,7.21-23.45,8.53-.85.13-1.64.64-2.46.97h-24.01Z"/><path class="cls-4" d="m467.15,512c-6.43-2.59-12.86-5.18-19.61-7.89-.15,4.69-3.18,5.27-7.24,4.97-4.47-.33-8.98-.08-13.9-.08-.09-1.54-.25-2.97-.25-4.39-.01-40,.04-80.01-.08-120.01-.01-3.97.83-5.78,5.23-5.52,5.98.35,12.01.3,18,.01,4.07-.19,5.09,1.39,5.03,5.25-.21,12.83-.08,25.66-.08,37.95,7.08-1.44,14.08-3.98,21.12-4.1,19.5-.34,30.93,8.18,33.82,29.84,1.87,13.96,1.93,27.86-2.02,41.47-3.54,12.24-11.04,20.41-24.45,21.78-.21.02-.38.47-.56.73h-15.01Zm-13.32-47.35c0,4.33,0,8.66,0,12.99,0,8.66,2.45,11.11,11.41,11.35,1.66.05,3.33.01,5,0,5.31-.02,10.29-3.53,10.79-8.78.8-8.52,1.77-17.21.9-25.65-1.15-11.08-7.42-14.38-16.91-13.5-2.69.25-5.5.91-7.87,2.13-1.48.76-3.05,2.87-3.15,4.47-.38,5.64-.15,11.31-.15,16.98Z"/><path class="cls-4" d="m355.11,512c-4.56-2.06-9.4-3.66-13.6-6.28-5.99-3.75-9.05-10.19-9.2-16.77-.52-22.45-.2-44.93-.2-68.11,8.6,0,17.03-.16,25.43.22.95.04,2.5,3.14,2.52,4.83.21,17.82.3,35.65.1,53.47-.06,6.02,4.43,10.21,9.59,9.61,3.23-.38,6.57-.39,9.67-1.25,4.35-1.21,6.83-3.52,6.67-9.05-.5-17.31-.18-34.64-.18-51.97v-5.88c8.68,0,16.8-.02,24.91,0,3.77.01,2.97,2.9,2.97,5.06.05,24.65.04,49.31.04,73.96,0,2.94,0,5.88,0,8.99h-19.19c-.66-1.65-1.3-3.25-1.74-4.36-7.4,2.56-14.6,5.04-21.79,7.53h-16.01Z"/><path class="cls-4" d="m191.06,512c-2.07-.68-4.1-1.52-6.22-2.02-12.35-2.93-18.55-15.98-18.04-27.43.56-12.61.13-25.26.13-38.56-3.89,0-7.49-.11-11.07.04-2.76.12-4.09-.85-3.82-3.72.11-1.16.02-2.33.02-3.49,0-11.83-.05-12.04,11.2-14.64,3.07-.71,3.68-1.9,3.65-4.6-.08-6.99.04-13.98.11-20.96,0-.29.28-.57.58-1.15h26.4v25.39h20.08c0,6.95.18,13.56-.18,20.13-.06,1.07-2.47,2.78-3.89,2.88-4.96.36-9.97.14-15.65.14,0,6.6,0,13.03,0,19.45,0,5.16-.15,10.33.05,15.48.27,7.17,3.33,10,10.47,10.07,2.83.03,5.66,0,9.19,0,0,6.14.12,12.22-.13,18.3-.04.94-1.61,2.19-2.74,2.65-2.28.92-4.75,1.4-7.13,2.06h-13Z"/><path class="cls-3" d="m222.16,251.72c-2.88,7.22-5.42,13.79-8.16,20.27-.56,1.32-1.69,2.9-2.93,3.34-11.49,4.14-23.33,6.17-33.87-1.61-5.53-4.08-9.7-10.12-14.08-15.61-7.13-8.94-15.19-15.92-27.55-15.11-1.51.1-2.97.94-4.45,1.43.69,1.7.97,3.8,2.16,5,2.15,2.16,5.37,3.36,7.23,5.69,5.07,6.37,11.39,12.48,14.1,19.85,5.88,16,23.16,25.36,37.16,24.95,6.84-.2,13.68-.82,20.97-1.28.06.6.29,1.82.3,3.03.03,9-.62,18.06.21,26.98.72,7.77-6.85,10.69-12.21,8.9-16.37-5.48-31.55-13.36-45.34-23.63-8.02-5.97-15.81-12.48-22.69-19.71-21.27-22.36-35.88-48.61-42.77-78.77-2.23-9.79-3.46-19.9-4.12-29.94-2.76-42.2,9.53-79.87,35.17-113.31,15.16-19.77,33.58-35.6,55.88-46.94,17.73-9.02,36.18-15.73,56.08-17.22,13.37-1,26.94-2,40.23-.84,18.37,1.6,36.11,6.58,53.08,14.39,17.97,8.27,34.16,19.03,48.16,32.77,17.81,17.47,31.62,37.87,40.3,61.4,5.74,15.57,8.97,31.66,10.29,48.34,2.15,27.09-2.44,52.8-12.58,77.77-9.34,22.99-23.28,42.93-41.65,59.37-9.98,8.93-21.34,16.56-32.84,23.5-8.55,5.16-18.2,8.61-27.59,12.2-8.11,3.09-12.36-.15-12.42-8.76-.11-15.83-.05-31.66-.17-47.48-.09-10.89-3.37-20.69-10.02-28.44,10.62-2.97,21.75-5.38,32.37-9.19,22.1-7.94,35.15-24.2,40.73-46.79,2.95-11.94,3.79-24.11,2.82-36.24-1.06-13.15-5.86-25.11-14.5-35.4-1.1-1.3-1.72-3.75-1.37-5.41,2.8-13.16,3-26.05-1.67-38.95-1.08-2.98-2.34-3.22-4.82-3.39-11.97-.82-21.9,4.76-31.91,10.02-3,1.58-5.53,4.27-8.65,5.36-2.82.98-6.38,1.27-9.24.5-16.64-4.53-33.62-4.24-50.53-3.64-8.55.3-17.02,2.61-25.55,3.85-1.51.22-3.4.13-4.67-.6-10.5-5.99-20.76-12.5-32.89-14.78-3.37-.63-6.89-.55-10.34-.59-.66,0-1.69.85-1.95,1.53-3.61,9.69-6.32,19.52-4.01,30.02.84,3.79,1.64,7.59,2.21,11.43.15,1.04-.3,2.48-.99,3.3-13.04,15.55-17.58,33.74-15.94,53.5,1.29,15.6,4.67,30.77,14.09,43.84,8.43,11.69,19.47,20.1,33.3,24.23,8.64,2.58,17.6,4.1,26.4,6.15.74.17,1.36.81,1.22.72Z"/><path class="cls-4" d="m291.96,509.33v-55.71h-37.59c0,1.85,0,3.61,0,5.38,0,15.16-.1,30.32.07,45.47.04,3.6-.85,5.07-4.72,4.94-7.61-.27-15.25-.08-23.44-.08v-5.96c0-39.31.09-78.62-.11-117.93-.03-5.13,1.49-6.77,6.51-6.37,5.13.41,10.34.36,15.48.01,4.68-.31,6.45,1.04,6.33,6.07-.33,13.97-.12,27.95-.12,42.32h37.69c0-1.35,0-2.92,0-4.5,0-13.16.08-26.32-.06-39.48-.04-3.25,1-4.47,4.29-4.38,6.16.17,12.34.26,18.49-.03,4.09-.19,5.45,1.07,5.42,5.32-.17,28.48-.09,56.97-.09,85.45,0,11.33-.13,22.66.07,33.98.07,4.01-1.03,5.74-5.34,5.58-7.44-.28-14.89-.08-22.88-.08Z"/><path class="cls-4" d="m116.03,421.12c8.14-.18,16.27-.43,24.41-.51,3.44-.03,2.68,2.74,2.68,4.76.03,21.33.02,42.66.02,64,0,5-.12,10,.04,15,.11,3.33-.88,4.85-4.54,4.71-6.49-.25-13-.19-19.5-.02-3.07.08-4.13-1.12-4.11-4.09.12-27.66.17-55.32.23-82.98.25-.29.51-.57.76-.86Z"/><path class="cls-5" d="m129.01,382.98c10.76,0,14.99,4.77,15.03,16.94.02,7.14-6.71,13.08-14.82,13.07-8.41-.01-15.92-6.89-16.19-14.83-.29-8.27,6.99-15.19,15.98-15.18Z"/><path class="cls-2" d="m116.04,421.12c-.25.29-.51.57-.76.86.25-.29.51-.57.76-.86Z"/><path class="cls-1" d="m453.83,464.65c0-5.66-.23-11.34.15-16.98.11-1.6,1.68-3.71,3.15-4.47,2.37-1.22,5.18-1.88,7.87-2.13,9.49-.88,15.76,2.42,16.91,13.5.88,8.44-.09,17.13-.9,25.65-.5,5.25-5.48,8.76-10.79,8.78-1.67,0-3.33.04-5,0-8.95-.25-11.41-2.7-11.41-11.35,0-4.33,0-8.66,0-12.99Z"/></svg>