<?xml version="1.0" encoding="UTF-8"?><svg id="Layer_1" xmlns="http://www.w3.org/2000/svg" viewBox="0 0 512 512"><defs><style>.cls-1{fill:#fff;}</style></defs><path d="m0,512V0h512v512H0Zm342.25-113.08c-11.95,6.96-23.68,13.95-35.59,20.62-2.81,1.58-3.14,3.13-1.5,5.38,4.52,6.18,8.71,12.68,13.84,18.31,15.06,16.52,35.01,24.07,56.37,26.41,18.36,2.02,37.1,1.11,54.57-6.64,17.21-7.63,30.89-19.06,36.88-37.54,3.46-10.66,3.84-21.64,2.67-33-.92-8.87-2.92-16.87-7.61-24.27-9.16-14.46-22.82-23.67-37.68-31.08-13.19-6.58-26.99-11.9-40.28-18.29-7.93-3.82-15.21-8.78-17.59-18.21-2.03-8.04,1.49-19.13,7.52-22.59,10.87-6.24,22.08-5.7,32.26.85,5.64,3.63,9.78,9.61,14.64,14.58,10.54-6.84,21.57-14.19,32.84-21.17,3.01-1.86,2.86-2.89,1.06-5.59-11.58-17.42-26.13-29.84-47.86-33.05-16-2.36-31.46-2.5-46.82,2.85-12.19,4.24-22.17,11.44-29.94,21.75-11.91,15.79-14.35,33.74-10.77,52.47,2.64,13.8,9.03,26.35,19.85,35.55,15.17,12.89,33.64,20.09,51.75,27.79,9.39,3.99,18.9,7.83,26.27,15.41,8.34,8.57,7.04,25.3-3.12,31.43-4.82,2.91-10.32,5.31-15.81,6.35-11.79,2.24-23.34,1.01-33.92-5.48-9.31-5.7-15.9-13.98-22.05-22.83Zm-111.74-163.59c0,2.21,0,4.02,0,5.82-.06,50.32,0,100.63-.29,150.95-.05,7.95-.71,16.17-2.86,23.77-2.39,8.45-10.12,11.93-18.34,12.99-10.73,1.38-20.17-1.61-26.91-10.6-3.18-4.24-5.88-8.84-8.91-13.45-12.29,7.45-24.54,14.8-36.63,22.4-.82.52-1.14,3.37-.5,4.4,3.76,6.05,7.26,12.42,11.97,17.68,14.38,16.05,33.45,22.31,54.27,23.52,7.76.45,15.72-.68,23.46-1.93,13.8-2.22,25.79-8.79,35.31-18.73,12.01-12.54,15.93-28.72,16.9-45.55.6-10.45.4-20.96.4-31.44,0-45.32-.04-90.64-.09-135.96,0-1.26-.22-2.51-.34-3.87h-47.44Z"/><path class="cls-1" d="m342.25,398.92c6.15,8.85,12.74,17.13,22.05,22.83,10.59,6.49,22.13,7.71,33.92,5.48,5.49-1.04,10.99-3.44,15.81-6.35,10.16-6.12,11.46-22.86,3.12-31.43-7.37-7.57-16.88-11.42-26.27-15.41-18.11-7.7-36.58-14.9-51.75-27.79-10.83-9.2-17.22-21.75-19.85-35.55-3.58-18.73-1.14-36.68,10.77-52.47,7.77-10.31,17.75-17.5,29.94-21.75,15.36-5.35,30.82-5.21,46.82-2.85,21.73,3.21,36.28,15.64,47.86,33.05,1.8,2.7,1.94,3.73-1.06,5.59-11.27,6.98-22.3,14.33-32.84,21.17-4.86-4.97-9-10.94-14.64-14.58-10.17-6.55-21.39-7.09-32.26-.85-6.03,3.46-9.56,14.55-7.52,22.59,2.39,9.43,9.67,14.39,17.59,18.21,13.28,6.39,27.09,11.72,40.28,18.29,14.86,7.41,28.52,16.63,37.68,31.08,4.69,7.4,6.69,15.4,7.61,24.27,1.18,11.36.79,22.35-2.67,33-5.99,18.48-19.67,29.91-36.88,37.54-17.48,7.75-36.21,8.65-54.57,6.64-21.37-2.35-41.31-9.9-56.37-26.41-5.14-5.63-9.32-12.13-13.84-18.31-1.64-2.25-1.31-3.8,1.5-5.38,11.91-6.67,23.64-13.66,35.59-20.62Z"/><path class="cls-1" d="m230.51,235.33h47.44c.13,1.36.34,2.62.34,3.87.05,45.32.1,90.64.09,135.96,0,10.48.2,20.99-.4,31.44-.97,16.83-4.9,33.01-16.9,45.55-9.52,9.94-21.52,16.51-35.31,18.73-7.74,1.25-15.69,2.38-23.46,1.93-20.81-1.21-39.89-7.47-54.27-23.52-4.71-5.26-8.22-11.63-11.97-17.68-.64-1.03-.32-3.88.5-4.4,12.09-7.6,24.34-14.95,36.63-22.4,3.03,4.61,5.73,9.21,8.91,13.45,6.74,8.99,16.18,11.98,26.91,10.6,8.22-1.06,15.94-4.53,18.34-12.99,2.15-7.59,2.81-15.82,2.86-23.77.29-50.32.23-100.63.29-150.95,0-1.81,0-3.61,0-5.82Z"/></svg>