<?xml version="1.0" encoding="UTF-8"?><svg id="Layer_1" xmlns="http://www.w3.org/2000/svg" viewBox="0 0 512 512"><defs><style>.cls-1{fill:#fff;}.cls-2{fill:#262324;}.cls-3{fill:#272324;}</style></defs><path class="cls-1" d="m294,0h218v512h-245c5.62-1.12,11.32-1.94,16.84-3.42,22.36-6.01,41.82-17.28,58.33-33.46,16.42-16.1,32.63-32.42,48.84-48.72,10.84-10.9,11.46-24.38,6.5-35.12-8.09-17.54-33.33-22.12-47.83-7.5-16.08,16.21-32.37,32.2-48.37,48.49-6.52,6.64-13.76,12.12-22.33,15.65-18.79,7.73-37.16,6.93-55.37-2.44-11.76-6.05-19.95-16.13-29.16-24.88-25.59-24.28-50.43-49.35-75.51-74.18-14.11-13.96-21.83-30.45-21.04-50.8.48-12.45,4.72-23.34,12.59-32.37,13.26-15.22,27.38-29.69,41.2-44.43,7.03-7.5,14.21-14.88,21.27-22.35,5.24-5.54,10.8-10.83,15.52-16.79,8.59-10.83,19.12-18.6,32.33-22.67,10.68-3.29,21.43-4.52,32.7-3.18,12.8,1.52,24.63,4.97,34.78,13.02,11.02,8.74,21.77,17.81,32.72,26.65,13.34,10.77,26.75,21.44,40.14,32.15,6.19,4.95,12.66,8.75,21.15,8.48,12.56-.39,24.36-8.03,27.64-20.18,3.03-11.23,1.8-23.88-9.85-32.42-3.94-2.89-7.58-6.19-11.36-9.3-8.09-6.67-16.14-13.39-24.28-19.99-11.3-9.16-22.75-18.14-34.01-27.34-10.97-8.97-22.65-16.82-36.01-21.63-8.8-3.17-17.96-5.32-27.32-8.03,14.35-15.27,28.72-30.36,42.86-45.67,12.04-13.04,10.06-34.47-4.95-43.99-3.46-2.2-7.34-3.75-11.03-5.59Zm40.05,332.25c36.31,0,72.62.03,108.92-.01,19.86-.02,34.03-18.06,28.09-38.1-3.79-12.81-15.2-20.8-29.73-20.8-70.95-.02-141.9-.02-212.85.02-2.48,0-4.98.25-7.43.66-18.61,3.08-28.17,21.81-22.89,37.89,4.1,12.5,14.64,20.54,29.46,20.44,35.47-.25,70.95-.08,106.42-.08Z"/><path class="cls-1" d="m240,512H0C0,341.33,0,170.67,0,0c94.33,0,188.67,0,283,0-8.62,2.05-14.77,7.71-20.52,13.99-8.27,9.03-16.58,18.02-24.91,27-8.79,9.46-17.61,18.88-26.43,28.31-14.58,15.61-29.17,31.22-43.76,46.84-9.04,9.68-18.07,19.36-27.11,29.04-14.81,15.85-29.66,31.67-44.43,47.57-11.14,11.99-22.62,23.7-33.13,36.22-14.18,16.89-21.47,37.07-23.52,58.78-1.55,16.54.23,32.97,5.78,48.95,5.73,16.51,13.64,31.77,25.73,44.28,16.98,17.57,34.73,34.4,52.19,51.5,16.63,16.29,33.2,32.64,50.01,48.75,13.99,13.4,30.85,21.73,49.45,26.67,5.83,1.55,11.76,2.74,17.64,4.09Z"/><path class="cls-3" d="m240,512c-5.88-1.35-11.81-2.54-17.64-4.09-18.6-4.94-35.46-13.27-49.45-26.67-16.81-16.1-33.38-32.46-50.01-48.75-17.46-17.1-35.22-33.93-52.19-51.5-12.09-12.52-19.99-27.77-25.73-44.28-5.55-15.99-7.34-32.41-5.78-48.95,2.04-21.71,9.34-41.89,23.52-58.78,10.51-12.52,21.99-24.23,33.13-36.22,14.76-15.9,29.61-31.72,44.43-47.57,9.04-9.68,18.07-19.36,27.11-29.04,14.58-15.61,29.17-31.22,43.76-46.84,8.81-9.43,17.64-18.85,26.43-28.31,8.33-8.97,16.65-17.96,24.91-27,5.75-6.28,11.9-11.94,20.52-13.99,3.67,0,7.33,0,11,0,3.69,1.85,7.57,3.39,11.03,5.59,15,9.52,16.99,30.95,4.95,43.99-14.14,15.31-28.51,30.4-42.86,45.67,9.36,2.71,18.53,4.86,27.32,8.03,13.36,4.81,25.04,12.67,36.01,21.63,11.26,9.21,22.71,18.19,34.01,27.34,8.15,6.6,16.19,13.32,24.28,19.99,3.78,3.11,7.42,6.41,11.36,9.3,11.64,8.54,12.88,21.19,9.85,32.42-3.28,12.14-15.08,19.78-27.64,20.18-8.5.27-14.96-3.53-21.15-8.48-13.39-10.71-26.8-21.38-40.14-32.15-10.94-8.84-21.7-17.91-32.72-26.65-10.15-8.05-21.99-11.5-34.78-13.02-11.27-1.34-22.02-.11-32.7,3.18-13.21,4.07-23.74,11.84-32.33,22.67-4.72,5.95-10.29,11.25-15.52,16.79-7.07,7.47-14.24,14.85-21.27,22.35-13.81,14.74-27.93,29.21-41.2,44.43-7.87,9.03-12.1,19.92-12.59,32.37-.79,20.35,6.93,36.84,21.04,50.8,25.08,24.82,49.92,49.89,75.51,74.18,9.22,8.75,17.41,18.83,29.16,24.88,18.21,9.37,36.58,10.17,55.37,2.44,8.57-3.52,15.8-9.01,22.33-15.65,16-16.29,32.29-32.28,48.37-48.49,14.5-14.62,39.74-10.05,47.83,7.5,4.95,10.74,4.33,24.23-6.5,35.12-16.22,16.31-32.42,32.63-48.84,48.72-16.51,16.18-35.97,27.45-58.33,33.46-5.52,1.48-11.22,2.3-16.84,3.42h-27Z"/><path class="cls-2" d="m334.05,332.25c-35.48,0-70.95-.17-106.42.08-14.83.1-25.36-7.94-29.46-20.44-5.27-16.08,4.28-34.81,22.89-37.89,2.45-.4,4.95-.66,7.43-.66,70.95-.03,141.9-.04,212.85-.02,14.53,0,25.94,8,29.73,20.8,5.94,20.04-8.24,38.08-28.09,38.1-36.31.04-72.62.01-108.92.01Z"/></svg>