<?xml version="1.0" encoding="UTF-8"?><svg id="Layer_1" xmlns="http://www.w3.org/2000/svg" viewBox="0 0 25.6 25.6"><defs><style>.cls-1{fill:#fff;}.cls-2{fill:#010101;}</style></defs><path class="cls-1" d="m25.6,25.6H0V0h25.6v25.6ZM4,12.8h0c0,2.23,0,4.47,0,6.7,0,.49.12.92.41,1.3.36.47.83.79,1.42.79,4.62.01,9.23,0,13.85,0,.06,0,.12.01.17,0,1.1-.26,1.75-1,1.75-2.14,0-4.56-.03-9.13-.04-13.69,0-.36-.15-.68-.36-.96-.44-.58-1.06-.81-1.77-.82-4.45,0-8.9,0-13.35,0-.39,0-.77.08-1.11.29-.59.38-.95.92-.95,1.64,0,2.29,0,4.58,0,6.88Z"/><path d="m4,12.8c0-2.29,0-4.58,0-6.88,0-.72.36-1.25.95-1.64.34-.22.72-.29,1.11-.29,4.45,0,8.9,0,13.35,0,.71,0,1.33.23,1.77.82.21.28.36.59.36.96.02,4.56.04,9.13.04,13.69,0,1.14-.64,1.88-1.75,2.14-.06.01-.12,0-.17,0-4.62,0-9.23,0-13.85,0-.59,0-1.07-.32-1.42-.79-.29-.38-.41-.81-.41-1.3.01-2.23,0-4.47,0-6.7h0Zm1.6,0c0,2.24,0,4.48,0,6.73,0,.36.11.47.47.47,4.46,0,8.92,0,13.38,0,.41,0,.56-.15.56-.55,0-4.43,0-8.87,0-13.3,0-.42-.14-.55-.54-.55-4.48,0-8.95,0-13.43,0-.29,0-.43.14-.43.43,0,2.26,0,4.52,0,6.78Z"/><path class="cls-1" d="m5.6,12.8c0-2.26,0-4.52,0-6.78,0-.29.14-.43.43-.43,4.48,0,8.95,0,13.43,0,.4,0,.54.13.54.55,0,4.43,0,8.87,0,13.3,0,.4-.15.55-.56.55-4.46,0-8.92,0-13.38,0-.35,0-.47-.11-.47-.47,0-2.24,0-4.48,0-6.73Zm12.75,5.59c0-1.48,0-2.95,0-4.41,0-.44-.03-.89-.1-1.32-.11-.62-.36-1.18-.91-1.56-.36-.25-.75-.37-1.19-.42-.62-.07-1.22-.06-1.79.21-.44.21-.76.54-1.05.99v-1.08h-2.24v7.58h2.34c0-.07,0-.12,0-.18,0-1.28,0-2.55,0-3.83,0-.19.01-.38.05-.56.09-.38.22-.74.59-.94.3-.16.63-.17.98-.15.49.03.78.33.87.75.09.43.14.87.15,1.31.02,1.13,0,2.25,0,3.38,0,.07,0,.14,0,.22h2.29Zm-11.14-7.59v7.58h2.35v-7.58h-2.35Zm1.11-3.81c-.83-.03-1.38.65-1.37,1.35.02.81.57,1.36,1.33,1.38.71.02,1.43-.51,1.41-1.45-.02-.65-.55-1.31-1.37-1.29Z"/><path d="m18.35,18.39h-2.29c0-.08,0-.15,0-.22,0-1.13.01-2.25,0-3.38,0-.44-.06-.88-.15-1.31-.09-.42-.39-.71-.87-.75-.35-.02-.68-.01-.98.15-.36.2-.5.56-.59.94-.04.18-.05.37-.05.56,0,1.28,0,2.55,0,3.83,0,.06,0,.11,0,.18h-2.34v-7.58h2.24v1.08c.29-.45.61-.79,1.05-.99.58-.27,1.17-.28,1.79-.21.44.05.83.17,1.19.42.55.38.8.93.91,1.56.07.43.1.88.1,1.32.01,1.46,0,2.92,0,4.41Z"/><path d="m7.21,10.8h2.35v7.58h-2.35v-7.58Z"/><path class="cls-2" d="m8.32,6.99c.82-.02,1.36.64,1.37,1.29.02.94-.7,1.47-1.41,1.45-.76-.02-1.32-.57-1.33-1.38-.02-.7.54-1.39,1.37-1.35Z"/></svg>