<?xml version="1.0" encoding="UTF-8"?><svg id="Layer_1" xmlns="http://www.w3.org/2000/svg" viewBox="0 0 819.2 819.2"><defs><style>.cls-1{fill:#fff;}.cls-2{fill:#3c3c3c;}.cls-3{fill:#fefefe;}</style></defs><path class="cls-1" d="m443.93,0h375.27v819.2H0C0,546.13,0,273.07,0,0,125.62,0,251.24,0,376.86,0c-.52.49-.99,1.36-1.56,1.43-14.48,1.69-29.12,2.48-43.43,5.11-22.53,4.14-45.59,7.38-67.07,14.86-32.88,11.46-47.38,34.69-49.12,69.4-.77,15.43-.43,30.92-.5,46.39-.07,15.36-.01,30.72-.01,46.81h193.16v24.78c-4.4,0-8.35-.02-12.29,0-91.41.66-182.83.77-274.23,2.35-23.79.41-44.73,11.78-62.64,27.57-23.42,20.65-35.18,47.89-41.36,77.58-4.32,20.73-6.48,41.91-9.83,62.85-4.34,27.16-1.15,54.23,2.09,81.05,2.24,18.54,7.73,36.75,12.55,54.91,5.67,21.4,14.88,41.36,29.47,58.18,18.78,21.66,43.32,31.49,71.69,31.89,14.34.2,28.69-.28,43.04-.4,7.66-.06,15.31-.01,23.79-.01,0-13.74.07-26.71-.02-39.69-.13-18.98-1.88-38.09-.18-56.89,2.23-24.71,11.19-47.25,27-67.18,23.93-30.17,55.45-45.41,92.91-46.2,61.72-1.3,123.48-.39,185.23-.55,7.84-.02,15.7-.75,23.52-1.38,22.46-1.81,41.23-12.39,56.58-27.68,17.61-17.54,27.57-39.77,27.81-64.93.62-63.06.53-126.14.52-189.21,0-6.78-.56-13.75-2.17-20.3-7.63-31.04-26.38-53.45-54.41-68.41-26.55-14.17-55.94-15.62-84.88-19.16C456.3,2.39,450.13,1.06,443.93,0Zm184.68,209.17c0,7.13.16,13.51-.03,19.88-.82,28.3.08,56.8-3.03,84.85-4.54,40.93-28.48,69.88-63.57,89.99-20.8,11.92-43.74,15.99-67.33,15.96-29.95-.04-59.9-1.17-89.85-1.34-14.24-.08-28.48,1.2-42.73,1.4-18.89.26-37.8-.22-56.68.21-6.9.16-13.95,1.33-20.6,3.22-25.39,7.21-44.59,22.93-57.66,45.51-9.34,16.15-12.65,34.44-12.99,52.9-.37,20.37.78,40.76.88,61.14.2,39.65-.06,79.31.33,118.96.09,9.04,1.26,18.23,3.28,27.04,5.21,22.76,22.3,36.16,40.11,48.78,20.03,14.19,42.63,22.8,66.16,28.5,20.02,4.86,40.4,9.25,60.86,11.06,32.3,2.85,64.61-.57,96.12-7.92,31.86-7.43,63.18-17.22,89.12-38.57,19.84-16.33,32.22-36.84,32.39-63.33.15-23.68.04-47.37.02-71.06,0-2.29-.25-4.57-.41-7.31h-193.65v-24.32c3.46,0,6.37,0,9.27,0,36.99.01,73.98.16,110.98.01,61.06-.25,122.14,0,183.18-1.38,24.41-.55,43.9-13.8,56.71-34.3,9.48-15.16,17.31-31.59,23.99-48.22,11.74-29.22,17.96-59.89,19.27-91.41,1.32-31.83-1.59-63.38-8.03-94.54-5.64-27.31-12-54.32-25.82-79.16-15.15-27.25-37.58-43.9-68.29-46.16-26.93-1.98-54.12-.41-82.01-.41Z"/><path d="m443.93,0c6.2,1.06,12.37,2.39,18.6,3.15,28.94,3.54,58.33,4.99,84.88,19.16,28.03,14.96,46.78,37.36,54.41,68.41,1.61,6.56,2.17,13.52,2.17,20.3,0,63.07.09,126.14-.52,189.21-.25,25.17-10.21,47.4-27.81,64.93-15.35,15.29-34.12,25.86-56.58,27.68-7.83.63-15.68,1.36-23.52,1.38-61.75.16-123.51-.75-185.23.55-37.46.79-68.99,16.03-92.91,46.2-15.81,19.94-24.77,42.48-27,67.18-1.7,18.81.05,37.92.18,56.89.09,12.98.02,25.95.02,39.69-8.47,0-16.13-.05-23.79.01-14.35.12-28.7.6-43.04.4-28.38-.4-52.91-10.22-71.69-31.89-14.59-16.83-23.8-36.78-29.47-58.18-4.81-18.15-10.31-36.37-12.55-54.91-3.24-26.82-6.43-53.9-2.09-81.05,3.35-20.94,5.51-42.12,9.83-62.85,6.18-29.68,17.95-56.93,41.36-77.58,17.91-15.79,38.85-27.16,62.64-27.57,91.4-1.58,182.82-1.69,274.23-2.35,3.94-.03,7.89,0,12.29,0v-24.78h-193.16c0-16.09-.05-31.45.01-46.81.07-15.47-.27-30.96.5-46.39,1.73-34.71,16.23-57.94,49.12-69.4,21.49-7.49,44.54-10.72,67.07-14.86,14.3-2.63,28.95-3.42,43.43-5.11.57-.07,1.04-.93,1.56-1.43,3.19,0,6.39,0,9.58,0,1.87.54,3.73,1.53,5.61,1.56,11.12.14,22.24.16,33.35-.03,2.99-.05,5.97-.99,8.95-1.53,3.19,0,6.39,0,9.58,0Zm-108.59,96.65c2.73-19.06-18.04-35.76-34.86-36.27-18.86-.57-36.89,16.03-37.19,36.56-.27,18.85,16.93,37.8,36.7,37.64,15.92-.13,38.21-17.8,35.34-37.92Z"/><path class="cls-2" d="m434.35,0c-2.98.53-5.96,1.48-8.95,1.53-11.11.19-22.23.17-33.35.03-1.87-.02-3.74-1.01-5.61-1.56,15.97,0,31.94,0,47.91,0Z"/><path d="m628.62,209.17c27.9,0,55.09-1.57,82.01.41,30.72,2.26,53.14,18.91,68.29,46.16,13.82,24.84,20.17,51.86,25.82,79.16,6.44,31.16,9.35,62.71,8.03,94.54-1.31,31.52-7.53,62.2-19.27,91.41-6.68,16.62-14.51,33.05-23.99,48.22-12.81,20.5-32.3,33.75-56.71,34.3-61.04,1.38-122.12,1.13-183.18,1.38-36.99.15-73.98,0-110.98-.01-2.9,0-5.81,0-9.27,0v24.32h193.65c.16,2.74.41,5.02.41,7.31.03,23.69.14,47.37-.02,71.06-.17,26.48-12.55,46.99-32.39,63.33-25.94,21.35-57.26,31.14-89.12,38.57-31.5,7.35-63.82,10.76-96.12,7.92-20.47-1.8-40.84-6.2-60.86-11.06-23.53-5.71-46.13-14.32-66.16-28.5-17.81-12.61-34.9-26.02-40.11-48.78-2.02-8.81-3.19-18.01-3.28-27.04-.39-39.65-.12-79.31-.33-118.96-.1-20.38-1.25-40.77-.88-61.14.33-18.47,3.64-36.76,12.99-52.9,13.07-22.58,32.27-38.3,57.66-45.51,6.65-1.89,13.7-3.06,20.6-3.22,18.89-.43,37.79.05,56.68-.21,14.25-.2,28.49-1.48,42.73-1.4,29.95.18,59.9,1.3,89.85,1.34,23.59.03,46.53-4.04,67.33-15.96,35.09-20.11,59.03-49.07,63.57-89.99,3.11-28.05,2.22-56.55,3.03-84.85.18-6.37.03-12.75.03-19.88Zm-109.82,471.09c-23.09-2.06-36.32,17.19-36.44,35.54-.14,20.73,16.79,38.22,35.2,37.59,23.68-.82,36.82-15.56,37.65-37.22.74-19.5-16.49-38.66-36.41-35.9Z"/><path class="cls-3" d="m335.35,96.65c2.86,20.12-19.43,37.79-35.34,37.92-19.77.16-36.97-18.79-36.7-37.64.29-20.53,18.33-37.13,37.19-36.56,16.82.51,37.58,17.21,34.86,36.27Z"/><path class="cls-3" d="m518.79,680.27c19.92-2.76,37.15,16.41,36.41,35.9-.82,21.67-13.97,36.4-37.65,37.22-18.41.64-35.33-16.85-35.2-37.59.12-18.34,13.35-37.6,36.44-35.54Z"/></svg>