<?xml version="1.0" encoding="UTF-8"?><svg id="Layer_1" xmlns="http://www.w3.org/2000/svg" viewBox="0 0 512 512"><defs><style>.cls-1{fill:#fff;}.cls-2{fill:#010101;}.cls-3{fill:#fefefe;}</style></defs><path class="cls-2" d="m512,247.97v17c-.66.66-1.77,1.24-1.9,1.99-2.33,12.83-9.96,22.63-18.94,31.2-10.32,9.86-22.26,17.89-35.28,23.67-16.87,7.49-34.22,13.9-51.47,20.81.61,2.55,1.68,6.11,2.29,9.74,2.18,12.96,5.05,25.88,6.05,38.94.88,11.49.09,23.19-.87,34.72-1.25,15.06-5.64,29.04-16.01,40.77-9.59,10.84-21.47,16.54-35.7,17.13-19.74.81-36.86-7.4-53.42-16.78-17.84-10.11-33.3-23.43-48.27-37.29-2.46-2.28-3.68-1.89-6.09.09-13.34,10.98-26.44,22.36-40.5,32.35-15.99,11.36-33.8,19.57-53.58,21.56-20.94,2.11-38.09-6.87-49.04-25.46-7.96-13.52-11.1-28.66-11.2-44.29-.06-8.74.33-17.52,1.11-26.23.75-8.41,2.06-16.78,3.48-25.11,1.21-7.11,2.93-14.14,4.49-21.51-1.48-.19-2.64-.16-3.67-.5-20.02-6.55-39.91-13.46-58.22-24.1-14.58-8.48-27.76-18.72-36.94-33.08C4.7,277.9,2.72,271.2,0,264.97c0-6,0-12,0-18,.27-.16.75-.28.78-.48,2.35-13.27,9.53-24.11,19.23-32.61,9.42-8.26,19.76-16.09,30.94-21.57,17.94-8.79,36.91-15.49,55.99-23.29-.98-4.21-2.61-9.61-3.46-15.14-2.02-13.02-4.26-26.04-5.28-39.15-.7-9,.3-18.17.85-27.24.78-12.64,4.55-24.4,10.94-35.34,7.48-12.81,18.57-21.14,33.11-22.97,16.28-2.05,32.06,1.31,47.05,8.33,23.36,10.95,43.36,26.55,61.92,44.16,2.66,2.52,4.01,2.44,6.83.06,12.22-10.32,24.17-21.12,37.31-30.16,19.83-13.65,41.07-24.14,66.39-22.75,11.8.65,21.91,4.72,30.22,12.65,14.13,13.47,18.73,31.27,19.98,49.87.73,10.84.18,21.89-.97,32.71-1.65,15.38-4.39,30.64-6.72,46.39.43.23,1.48,1.11,2.69,1.43,20.96,5.53,40.99,13.45,59.7,24.37,13.47,7.87,26.29,16.93,34.61,30.58,4.03,6.6,6.63,14.08,9.88,21.15Zm-257.97-74.04s0,.06,0,.09c-11.5,0-23.02-.46-34.47.24-4.34.26-9.71-1.37-13.14,3.82-16,24.28-30.6,49.35-43.27,75.53-.63,1.3-.58,3.45.06,4.76,12.87,26.23,27.34,51.56,43.85,75.69.91,1.33,2.65,2.72,4.14,2.9,7.46.89,14.97,1.93,22.46,1.92,20.41-.03,40.83-.48,61.24-.96,4.1-.1,8.1-.5,10.66-5.01,13.91-24.49,28.14-48.81,42.02-73.32,1.05-1.85,1.08-5.19.14-7.13-12.72-26.12-27.08-51.3-43.67-75.18-.66-.95-1.76-2.09-2.76-2.21-4.9-.55-9.84-1.01-14.77-1.08-10.83-.15-21.66-.05-32.49-.05Zm-141.81,146.6c8.57-21.32,16.75-41.57,24.79-61.87.59-1.48.79-3.54.24-4.97-7.65-19.95-15.59-39.79-23.1-59.79-1.15-3.06-2.17-2.75-4.47-1.95-9.88,3.43-20.02,6.21-29.67,10.18-18.66,7.67-36.82,16.45-50.04,32.48-6.68,8.11-11.28,17.2-7.93,28.25,3.82,12.59,13.09,20.73,23.19,28.22,14.49,10.75,31.01,17.45,47.67,23.79,6.53,2.49,13.44,3.98,19.31,5.67Zm158.08-221.44c2.12,2.82,3.53,4.8,5.05,6.7,12.05,15.04,24.1,30.09,36.22,45.08,1.25,1.54,2.75,3.61,4.43,3.93,5.58,1.09,11.32,1.3,16.94,2.2,15.5,2.49,30.98,5.15,46.46,7.76,2.58.44,4.19.34,4.71-3.11,2.08-13.74,4.69-27.4,6.86-41.13,2.29-14.58,1.76-29.19-2.01-43.42-5.97-22.54-19.1-30.83-42.17-26.1-15.37,3.15-28.9,10.65-41.28,20.05-11.93,9.06-23.46,18.65-35.21,28.05Zm-117.94-49.2c-11.92-1.08-20.29,5.71-25.92,16.44-5.37,10.23-6.95,21.59-7.25,32.88-.25,9.64.67,19.38,1.93,28.96,1.49,11.36,3.82,22.6,5.96,33.87.43,2.29,1.89,3.43,4.69,2.65,5.29-1.47,10.64-2.89,16.06-3.65,15.77-2.21,31.58-4.06,47.36-6.17,1.03-.14,2.11-1.21,2.84-2.11,13.44-16.49,26.75-33.09,40.32-49.48,2.25-2.71,1.59-4.08-.56-6.1-14.08-13.18-28.86-25.51-45.65-35.06-11.92-6.78-24.42-12.53-39.78-12.25Zm231.21,297.08c-10.26,1.85-20.37,3.87-30.55,5.45-11.07,1.72-22.18,3.3-33.32,4.37-3.49.33-5.9,1.38-7.94,3.97-10.23,12.93-20.46,25.87-30.75,38.75-3.34,4.19-6.89,8.21-10.26,12.22,1.94,1.75,3.35,3.12,4.86,4.36,11.11,9.13,21.73,18.94,33.48,27.16,15.12,10.59,31.11,19.61,50.78,18.87,11.03-.41,18.57-5.87,23.89-14.59,6.14-10.05,7.86-21.57,8.16-33.13.21-8.24-.36-16.51-.97-24.74-.48-6.48-1.3-12.97-2.43-19.37-1.34-7.62-3.18-15.14-4.93-23.32Zm106.55-91.67c-.15-1.37-.15-3.38-.61-5.28-2.83-11.79-10.76-19.94-20.03-26.85-20.16-15.02-43.33-23.7-67.1-30.98-2.69-.83-4.41-.27-5.73,3.26-6.9,18.52-14.44,36.8-21.54,55.24-1.04,2.7-2.06,5.25-.5,8.93,7.85,18.53,15.24,37.27,22.07,56.2,1.55,4.3,2.97,4.73,6.53,3.54,6.56-2.19,13.28-3.95,19.71-6.46,21.63-8.46,42.82-17.7,58.54-35.86,5.29-6.11,8.52-12.94,8.64-21.74Zm-249.37,156.41c-3.19-3.69-6.31-7.09-9.2-10.67-10.76-13.36-21.38-26.84-32.25-40.12-1.45-1.77-3.88-3.43-6.07-3.79-8.35-1.35-16.81-1.94-25.18-3.2-13.09-1.96-26.12-4.24-39.64-6.46-.17.27-.96,1.01-1.11,1.87-2.81,16.59-6.59,33.1-7.93,49.81-.9,11.24.93,22.89,2.91,34.11,1.93,10.9,6.68,20.81,17.48,26.11,9.06,4.45,18.63,3.82,27.61.58,10.03-3.61,19.97-7.91,29.17-13.26,16.41-9.54,30.68-22.01,44.22-34.99Zm-89.94-129.31c-.82,1.23-1.5,1.94-1.81,2.79-4.82,12.87-9.63,25.75-14.25,38.7-.26.72,1.05,2.77,1.91,2.98,6.11,1.44,12.28,2.7,18.47,3.73,8.42,1.4,16.89,2.54,25.84,3.86-10.22-17.64-20-34.52-30.16-52.05Zm134.71-130.04c.15-.49.29-.99.44-1.48-9.06-10.55-18.19-21.05-27.15-31.69-2.51-2.98-4.39-2.66-6.7.11-6.3,7.55-12.77,14.96-19.04,22.53-2.71,3.27-5.12,6.8-7.91,10.54h60.36Zm44.73,182.35c15.91-2.83,31.46-5.6,47.7-8.49-5.71-15.5-10.88-29.54-16.05-43.58-.48.04-.96.07-1.44.11-9.93,17.08-19.86,34.16-30.21,51.97Zm-180.8-105.73c.5.05,1.01.09,1.51.14,9.86-17,19.72-34,30.1-51.89-15.54,2.67-30.34,5.19-45.11,7.89-.57.1-1.16,2.09-1.11,3.16.07,1.39.72,2.77,1.21,4.13,4.45,12.19,8.93,24.38,13.4,36.57Zm75.91,131.1c1.92,2.5,3.21,4.31,4.63,6.02,7.34,8.83,14.77,17.59,22.03,26.49,2.62,3.21,4.66,2.88,7.1-.14,2.59-3.2,5.53-6.11,8.16-9.28,6.2-7.49,12.31-15.06,18.85-23.09h-60.76Zm152.54-174.29c-16.26-2.85-31.78-5.57-47.44-8.31,10.34,17.81,20.3,34.98,30.52,52.6,1.14-2.52,2.26-4.64,3.09-6.86,4.5-12.06,8.93-24.15,13.83-37.43Z"/><path class="cls-1" d="m512,247.97c-3.25-7.08-5.85-14.55-9.88-21.15-8.32-13.64-21.14-22.71-34.61-30.58-18.7-10.92-38.74-18.84-59.7-24.37-1.2-.32-2.26-1.2-2.69-1.43,2.34-15.75,5.08-31.01,6.72-46.39,1.16-10.83,1.7-21.87.97-32.71-1.25-18.6-5.85-36.4-19.98-49.87-8.31-7.93-18.43-12-30.22-12.65-25.32-1.39-46.57,9.1-66.39,22.75-13.14,9.04-25.09,19.84-37.31,30.16-2.82,2.38-4.17,2.46-6.83-.06-18.56-17.6-38.56-33.21-61.92-44.16-14.99-7.03-30.77-10.38-47.05-8.33-14.54,1.83-25.63,10.16-33.11,22.97-6.39,10.94-10.17,22.71-10.94,35.34-.56,9.07-1.56,18.23-.85,27.24,1.03,13.11,3.26,26.14,5.28,39.15.86,5.52,2.48,10.93,3.46,15.14-19.08,7.81-38.05,14.5-55.99,23.29-11.18,5.48-21.52,13.31-30.94,21.57-9.7,8.5-16.88,19.35-19.23,32.61-.04.2-.51.32-.78.48C0,164.67,0,82.36,0,0h512v247.97Z"/><path class="cls-1" d="m0,264.97c2.72,6.23,4.7,12.93,8.32,18.59,9.18,14.36,22.36,24.61,36.94,33.08,18.31,10.65,38.2,17.55,58.22,24.1,1.04.34,2.19.31,3.67.5-1.56,7.37-3.28,14.4-4.49,21.51-1.42,8.33-2.73,16.7-3.48,25.11-.78,8.71-1.16,17.49-1.11,26.23.1,15.63,3.23,30.77,11.2,44.29,10.95,18.59,28.1,27.58,49.04,25.46,19.78-1.99,37.59-10.2,53.58-21.56,14.06-9.99,27.16-21.37,40.5-32.35,2.41-1.98,3.62-2.37,6.09-.09,14.97,13.87,30.43,27.18,48.27,37.29,16.56,9.39,33.68,17.6,53.42,16.78,14.23-.59,26.11-6.29,35.7-17.13,10.37-11.73,14.77-25.71,16.01-40.77.95-11.53,1.74-23.23.87-34.72-.99-13.06-3.86-25.98-6.05-38.94-.61-3.63-1.68-7.19-2.29-9.74,17.25-6.92,34.6-13.32,51.47-20.81,13.02-5.79,24.96-13.82,35.28-23.67,8.98-8.57,16.61-18.37,18.94-31.2.14-.75,1.25-1.33,1.9-1.99v247.03H0C0,429.66,0,347.31,0,264.97Z"/><path class="cls-1" d="m254.03,173.93c10.83,0,21.66-.1,32.49.05,4.93.07,9.86.53,14.77,1.08,1,.11,2.1,1.26,2.76,2.21,16.59,23.88,30.94,49.07,43.67,75.18.95,1.94.91,5.28-.14,7.13-13.88,24.51-28.11,48.83-42.02,73.32-2.56,4.52-6.57,4.92-10.66,5.01-20.41.48-40.82.93-61.24.96-7.49.01-15-1.03-22.46-1.92-1.49-.18-3.23-1.57-4.14-2.9-16.51-24.13-30.97-49.45-43.85-75.69-.64-1.31-.69-3.46-.06-4.76,12.66-26.18,27.27-51.25,43.27-75.53,3.42-5.19,8.8-3.56,13.14-3.82,11.45-.7,22.98-.24,34.47-.24,0-.03,0-.06,0-.09Zm.79,37.04c-23.88-1.41-44.04,20.66-44.84,42.94-.97,27.08,21.39,47.74,44.34,47.98,25.93.27,45.5-20.14,46.83-43.27,1.56-27.18-21.1-49.24-46.33-47.65Z"/><path class="cls-1" d="m112.22,320.53c-5.87-1.69-12.78-3.18-19.31-5.67-16.66-6.34-33.17-13.05-47.67-23.79-10.1-7.49-19.37-15.63-23.19-28.22-3.35-11.05,1.25-20.14,7.93-28.25,13.22-16.03,31.38-24.81,50.04-32.48,9.65-3.97,19.79-6.75,29.67-10.18,2.29-.8,3.32-1.11,4.47,1.95,7.51,20,15.45,39.84,23.1,59.79.55,1.43.34,3.49-.24,4.97-8.05,20.3-16.22,40.55-24.79,61.87Z"/><path class="cls-1" d="m270.3,99.09c11.75-9.39,23.28-18.99,35.21-28.05,12.38-9.4,25.91-16.9,41.28-20.05,23.07-4.72,36.2,3.57,42.17,26.1,3.77,14.23,4.31,28.84,2.01,43.42-2.16,13.73-4.78,27.39-6.86,41.13-.52,3.46-2.13,3.55-4.71,3.11-15.48-2.61-30.96-5.27-46.46-7.76-5.62-.9-11.36-1.11-16.94-2.2-1.68-.33-3.18-2.39-4.43-3.93-12.12-14.99-24.17-30.03-36.22-45.08-1.52-1.9-2.93-3.88-5.05-6.7Z"/><path class="cls-1" d="m152.36,49.89c15.36-.28,27.87,5.47,39.78,12.25,16.78,9.55,31.57,21.88,45.65,35.06,2.15,2.01,2.8,3.38.56,6.1-13.56,16.39-26.87,32.99-40.32,49.48-.73.9-1.81,1.97-2.84,2.11-15.78,2.12-31.6,3.96-47.36,6.17-5.42.76-10.77,2.18-16.06,3.65-2.8.78-4.25-.37-4.69-2.65-2.14-11.26-4.47-22.51-5.96-33.87-1.26-9.58-2.18-19.32-1.93-28.96.29-11.29,1.87-22.65,7.25-32.88,5.64-10.73,14-17.52,25.92-16.44Z"/><path class="cls-1" d="m383.57,346.96c1.75,8.18,3.59,15.7,4.93,23.32,1.13,6.4,1.95,12.89,2.43,19.37.61,8.23,1.18,16.51.97,24.74-.3,11.57-2.02,23.08-8.16,33.13-5.32,8.71-12.86,14.17-23.89,14.59-19.67.73-35.66-8.29-50.78-18.87-11.74-8.22-22.37-18.03-33.48-27.16-1.51-1.24-2.92-2.62-4.86-4.36,3.38-4.01,6.92-8.04,10.26-12.22,10.29-12.88,20.52-25.82,30.75-38.75,2.05-2.59,4.46-3.63,7.94-3.97,11.15-1.07,22.25-2.65,33.32-4.37,10.18-1.58,20.29-3.6,30.55-5.45Z"/><path class="cls-1" d="m490.13,255.29c-.12,8.8-3.35,15.63-8.64,21.74-15.73,18.17-36.92,27.41-58.54,35.86-6.43,2.51-13.15,4.27-19.71,6.46-3.56,1.19-4.98.76-6.53-3.54-6.83-18.93-14.22-37.67-22.07-56.2-1.56-3.69-.54-6.23.5-8.93,7.09-18.45,14.63-36.73,21.54-55.24,1.32-3.53,3.03-4.09,5.73-3.26,23.77,7.28,46.93,15.96,67.1,30.98,9.27,6.9,17.2,15.05,20.03,26.85.46,1.9.46,3.91.61,5.28Z"/><path class="cls-1" d="m240.75,411.71c-13.53,12.98-27.81,25.45-44.22,34.99-9.2,5.35-19.14,9.65-29.17,13.26-8.98,3.23-18.55,3.87-27.61-.58-10.8-5.3-15.55-15.22-17.48-26.11-1.98-11.22-3.81-22.87-2.91-34.11,1.34-16.71,5.12-33.22,7.93-49.81.15-.86.94-1.61,1.11-1.87,13.52,2.22,26.55,4.49,39.64,6.46,8.36,1.26,16.83,1.84,25.18,3.2,2.2.36,4.62,2.02,6.07,3.79,10.87,13.28,21.49,26.76,32.25,40.12,2.89,3.59,6.01,6.99,9.2,10.67Z"/><path class="cls-3" d="m150.81,282.39c10.16,17.54,19.94,34.41,30.16,52.05-8.95-1.33-17.42-2.46-25.84-3.86-6.2-1.03-12.36-2.29-18.47-3.73-.87-.2-2.17-2.26-1.91-2.98,4.62-12.95,9.43-25.82,14.25-38.7.32-.85,1-1.56,1.81-2.79Z"/><path class="cls-3" d="m285.52,152.36h-60.36c2.79-3.74,5.19-7.27,7.91-10.54,6.28-7.57,12.74-14.98,19.04-22.53,2.31-2.76,4.18-3.09,6.7-.11,8.96,10.64,18.09,21.14,27.15,31.69-.15.49-.29.99-.44,1.48Z"/><path class="cls-3" d="m330.25,334.71c10.35-17.81,20.28-34.89,30.21-51.97.48-.04.96-.07,1.44-.11,5.17,14.04,10.34,28.09,16.05,43.58-16.24,2.89-31.79,5.66-47.7,8.49Z"/><path class="cls-3" d="m149.45,228.97c-4.47-12.19-8.94-24.38-13.4-36.57-.49-1.35-1.14-2.73-1.21-4.13-.05-1.08.53-3.06,1.11-3.16,14.77-2.71,29.57-5.22,45.11-7.89-10.38,17.89-20.24,34.89-30.1,51.89-.5-.05-1.01-.09-1.51-.14Z"/><path class="cls-3" d="m225.36,360.08h60.76c-6.54,8.03-12.65,15.6-18.85,23.09-2.63,3.17-5.57,6.08-8.16,9.28-2.44,3.02-4.48,3.35-7.1.14-7.26-8.9-14.69-17.65-22.03-26.49-1.42-1.71-2.71-3.52-4.63-6.02Z"/><path class="cls-3" d="m377.91,185.79c-4.9,13.29-9.33,25.37-13.83,37.43-.83,2.22-1.94,4.33-3.09,6.86-10.22-17.62-20.18-34.78-30.52-52.6,15.66,2.74,31.18,5.46,47.44,8.31Z"/><path d="m254.82,210.96c25.22-1.58,47.88,20.47,46.33,47.65-1.32,23.13-20.89,43.54-46.83,43.27-22.95-.24-45.31-20.9-44.34-47.98.8-22.28,20.96-44.35,44.84-42.94Z"/></svg>