<?xml version="1.0" encoding="UTF-8"?><svg id="Layer_1" xmlns="http://www.w3.org/2000/svg" viewBox="0 0 24 24"><defs><style>.cls-1{fill:#a7a7a7;}.cls-2{fill:#0f0f0f;}.cls-3{fill:#fff;}.cls-4{fill:#1f1f1f;}.cls-5{fill:#a8a8a8;}</style></defs><path class="cls-3" d="m18.38,0h5.62v24h-5.62s0-.03,0-.05c0-.42.02-.84.02-1.26,0-1.4.03-2.81-.21-4.19-.08-.48-.18-.98-.39-1.41-.68-1.4-1.66-2.59-2.74-3.7-.13-.13-.22-.04-.32.03-.16.13-.32.26-.48.39-.22.18-.44.37-.61.52.65.79,1.29,1.55,1.9,2.33.46.59.84,1.24.95,1.99.14.95.23,1.9.28,2.86.05.81.02,1.62.02,2.44,0,.02,0,.04-.01.06H7.17s0-.03,0-.05c0-.51,0-1.03.02-1.54.01-1,0-2.01.05-3.01.04-.72.35-1.37.69-1.99.45-.81,1.01-1.53,1.63-2.21.54-.59,1.13-1.12,1.75-1.61.83-.65,1.69-1.26,2.5-1.94.61-.52,1.17-1.11,1.74-1.68.61-.62,1.12-1.32,1.58-2.05.74-1.19,1.2-2.47,1.25-3.87.02-.44.01-.89.01-1.33,0-.91,0-1.81-.01-2.72Zm-3.37,19.07c-.14-.48-.37-.9-.67-1.31-.13-.18-.26-.2-.44-.2-1.26,0-2.52,0-3.79,0-.24,0-.4.04-.54.25-.27.41-.58.8-.67,1.3l-.03.04s.02,0,.04,0c2.03,0,4.06,0,6.09,0,0-.03,0-.06,0-.09Zm.18,1.74l-.04-.04c-.32,0-.64,0-.96,0-1.77,0-3.55,0-5.32,0l-.05.04v1.54h6.37v-1.54Z"/><path class="cls-3" d="m5.58,24H0C0,16,0,8,0,0,1.86,0,3.72,0,5.58,0c0,.09,0,.17,0,.26.01,1.5.01,3.01.05,4.51.01.58.18,1.14.42,1.66.72,1.51,1.76,2.78,2.98,3.93.44-.35.89-.7,1.34-1.06-.06-.05-.11-.09-.15-.14-.54-.58-1.11-1.13-1.59-1.75-.4-.52-.71-1.11-1.04-1.68-.26-.45-.4-.96-.41-1.48-.02-1.16,0-2.33,0-3.49,0-.26,0-.51-.02-.77h9.61c0,1.33.02,2.65,0,3.98,0,.43-.1.86-.22,1.27-.25.85-.71,1.6-1.25,2.31-.64.83-1.36,1.59-2.15,2.27-.72.62-1.46,1.21-2.19,1.82-.65.54-1.32,1.05-1.94,1.62-.55.5-1.07,1.03-1.55,1.6-.55.66-.99,1.4-1.32,2.2-.32.78-.55,1.58-.57,2.42-.03,1.48,0,2.97,0,4.45,0,.02,0,.04-.01.06ZM14.2,6.33c.41-.44.65-.98.85-1.55h-6.14s0,.06,0,.09c0,.04.02.07.03.11.13.52.49.92.79,1.34.02.03.09.05.14.05,1.43,0,2.86,0,4.29,0l.04-.04Zm-5.4-3.17h6.38v-1.58h-6.38v1.58Z"/><path d="m5.59,23.94c0-1.48-.03-2.97,0-4.45.02-.83.24-1.64.57-2.42.33-.8.78-1.54,1.32-2.2.47-.57,1-1.1,1.55-1.6.62-.57,1.29-1.08,1.94-1.62.73-.61,1.47-1.2,2.19-1.82.79-.68,1.51-1.44,2.15-2.27.54-.71,1-1.45,1.25-2.31.12-.41.21-.85.22-1.27.03-1.33,0-2.65,0-3.98h1.59c0,.91.01,1.81.01,2.72,0,.44,0,.89-.01,1.33-.05,1.41-.51,2.69-1.25,3.87-.46.74-.97,1.44-1.58,2.05-.57.57-1.12,1.16-1.74,1.68-.8.68-1.67,1.29-2.5,1.94-.63.49-1.21,1.02-1.75,1.61-.62.68-1.18,1.4-1.63,2.21-.35.62-.65,1.28-.69,1.99-.05,1-.03,2-.05,3.01,0,.51-.01,1.03-.02,1.54-.53,0-1.06,0-1.58-.01Z"/><path d="m7.17,0c0,.26.02.51.02.77,0,1.16-.03,2.33,0,3.49,0,.52.15,1.02.41,1.48.32.57.64,1.16,1.04,1.68.48.62,1.06,1.17,1.59,1.75.04.05.09.08.15.14-.45.36-.89.71-1.34,1.06-1.22-1.15-2.26-2.43-2.98-3.93-.25-.52-.41-1.08-.42-1.66-.03-1.5-.03-3.01-.05-4.51,0-.09,0-.17,0-.26C6.11,0,6.64,0,7.17,0Z"/><path class="cls-5" d="m5.59,23.94c.53,0,1.06,0,1.58.01,0,.02,0,.03,0,.05h-1.59s0-.04.01-.06Z"/><path class="cls-1" d="m16.78,24s0-.04.01-.06c.53,0,1.05,0,1.58.01,0,.02,0,.03,0,.05h-1.59Z"/><path d="m18.37,23.95c-.53,0-1.05,0-1.58-.01,0-.81.02-1.63-.02-2.44-.06-.96-.15-1.91-.28-2.86-.11-.75-.49-1.4-.95-1.99-.61-.78-1.25-1.54-1.9-2.33.17-.15.39-.33.61-.52.16-.13.32-.26.48-.39.1-.07.19-.16.32-.03,1.08,1.11,2.06,2.3,2.74,3.7.21.43.31.93.39,1.41.24,1.39.21,2.79.21,4.19,0,.42-.01.84-.02,1.26Z"/><path d="m8.86,20.77c1.77,0,3.55,0,5.32,0,.32,0,.64,0,.96,0l.04.04v1.54h-6.37v-1.54s.04-.03.05-.04Z"/><path d="m15,19.16c-2.03,0-4.06,0-6.09,0,0-.01,0-.03,0-.04.08-.51.4-.89.67-1.3.14-.21.3-.26.54-.25,1.26.01,2.52,0,3.79,0,.18,0,.32.02.44.2.29.4.52.83.67,1.31,0,.03,0,.06,0,.09Z"/><path class="cls-2" d="m15,19.16s0-.06,0-.09c0,.03,0,.06,0,.09Z"/><path class="cls-2" d="m8.91,19.12s0,.03,0,.04c-.01,0-.02,0-.04,0l.03-.04Z"/><path class="cls-2" d="m8.86,20.77s-.04.03-.05.04c.02-.01.04-.03.05-.04Z"/><path class="cls-2" d="m15.18,20.81l-.04-.04.04.04Z"/><path d="m8.8,3.16v-1.58h6.38v1.58h-6.38Z"/><path d="m14.16,6.36c-1.43,0-2.86,0-4.29,0-.05,0-.12-.01-.14-.05-.3-.43-.66-.82-.79-1.34,0-.04-.02-.07-.03-.11,0-.03,0-.06,0-.09h6.14c-.2.57-.44,1.1-.85,1.55-.01.01-.03.02-.04.04Z"/><path class="cls-4" d="m14.16,6.36l.04-.04-.04.04Z"/></svg>