<?xml version="1.0" encoding="UTF-8"?><svg id="Layer_1" xmlns="http://www.w3.org/2000/svg" viewBox="0 0 512 512"><defs><style>.cls-1{fill:#fff;}</style></defs><path d="m454,512h-3c-.15-.27-.24-.74-.45-.79-18.21-4.74-36.41-9.55-54.65-14.15-45.26-11.41-90.5-22.94-135.87-33.92-10.48-2.54-17.73-6.83-22.37-17.35-5.72-12.98-13.83-24.89-20.64-37.41-1.43-2.63-3.05-3.18-5.73-3.16-18.16.09-36.33.13-54.49-.06-2.2-.02-4.92-.99-6.5-2.48-11.59-10.95-22.96-22.14-34.4-33.26-11.8-11.47-23.6-22.93-35.39-34.41-13.22-12.87-26.41-25.78-39.66-38.61C27.27,283.21,13.62,270.12,0,257c0-.67,0-1.33,0-2,5.12-4.65,10.36-9.17,15.34-13.96,12.45-11.97,24.79-24.06,37.17-36.1,12.26-11.93,24.57-23.81,36.79-35.78,20.07-19.66,40.13-39.32,60.06-59.13,2.47-2.45,4.89-3.36,8.27-3.34,17.98.13,35.97.13,53.95-.05,1.77-.02,4.32-1.06,5.17-2.44,9.58-15.66,18.82-31.52,28.37-47.2,1.21-1.99,3.36-4.14,5.49-4.72,13.2-3.58,26.53-6.66,39.78-10.04,14.32-3.66,28.58-7.6,42.92-11.17,14.36-3.58,28.84-6.7,43.2-10.31,14.96-3.75,29.84-7.8,44.74-11.79C432.18,6.04,443.08,2.99,454,0c.67,0,1.33,0,2,0,3.02,10.81,6.06,21.62,9.07,32.44,6.31,22.73,12.65,45.44,18.88,68.19,6.1,22.3,11.99,44.66,18.15,66.94,3.1,11.2,6.59,22.29,9.9,33.43v3c-.75.61-1.74,1.06-2.21,1.84-9.63,15.95-19.25,31.9-28.66,47.97-.73,1.24-.33,3.73.44,5.16,6.83,12.65,13.4,25.47,21,37.65,5.02,8.04,6.68,15.06,3.77,24.76-8.99,29.87-16.52,60.17-24.67,90.29-5.53,20.47-11.1,40.92-16.72,61.36-3.58,13.01-7.29,25.98-10.94,38.97Zm-29.57-408.9c-.89,1.01-1.78,1.76-2.34,2.7-9.82,16.56-19.53,33.18-29.39,49.71-19.43,32.58-38.97,65.09-58.33,97.71-.8,1.35-.98,3.92-.23,5.22,7.98,13.93,16.12,27.77,24.37,41.54,18.14,30.29,36.36,60.52,54.54,90.77,3.64,6.05,7.25,12.11,11.29,18.86,4.19-14.84,7.93-28.61,11.96-42.29,10.13-34.37,20.42-68.69,30.53-103.07.97-3.3,2.28-7.18,1.42-10.23-8.36-29.75-17.15-59.38-25.8-89.05-5.98-20.49-11.94-40.99-18.03-61.89Zm-44.3-26.3c-.19-.46-.38-.91-.57-1.37-4.64,1.19-9.28,2.41-13.93,3.55-24.71,6.08-49.44,12.09-74.14,18.23-18.12,4.51-36.16,9.37-54.32,13.73-10.47,2.52-19.75,6.27-26.97,15.02-5.77,6.98-13.09,12.66-19.63,19.02-14.78,14.37-29.5,28.8-44.25,43.19-12.01,11.71-24.02,23.42-36.06,35.1-1.47,1.43-3.11,2.69-5.68,4.91,3.45,0,5.27,0,7.1,0,56.14,0,112.28-.11,168.43.14,6.85.03,12.09-.49,14.43-8.14.96-3.12,3.65-5.68,5.39-8.59,17.88-29.89,35.75-59.79,53.57-89.72,8.93-14.99,17.76-30.04,26.63-45.07ZM107.13,281.95c1.41,1.73,2.19,2.92,3.19,3.87,4.2,3.98,8.57,7.78,12.71,11.83,19.73,19.31,39.44,38.63,59.08,58.03,12.21,12.05,24.24,24.28,36.49,36.29,1.77,1.73,4.12,3.27,6.48,3.92,11.64,3.21,23.36,6.12,35.07,9.09,34.15,8.65,68.29,17.31,102.45,25.88,5.63,1.41,11.38,2.38,17.88,3.73-.66-1.78-.76-2.25-.99-2.65-11.04-18.67-22.06-37.35-33.16-55.98-17.83-29.93-35.75-59.8-53.54-89.75-1.83-3.07-3.72-4.65-7.68-4.64-57.47.16-114.93.11-172.4.12-1.57,0-3.15.15-5.59.28Z"/><path class="cls-1" d="m454,0c-10.92,2.99-21.82,6.04-32.76,8.97-14.9,3.99-29.78,8.04-44.74,11.79-14.36,3.6-28.83,6.73-43.2,10.31-14.34,3.57-28.6,7.52-42.92,11.17-13.25,3.38-26.58,6.46-39.78,10.04-2.12.58-4.28,2.73-5.49,4.72-9.54,15.68-18.79,31.54-28.37,47.2-.85,1.39-3.4,2.43-5.17,2.44-17.98.18-35.97.18-53.95.05-3.38-.03-5.81.89-8.27,3.34-19.92,19.8-39.99,39.47-60.06,59.13-12.22,11.97-24.52,23.86-36.79,35.78-12.38,12.04-24.72,24.13-37.17,36.1C10.36,245.83,5.12,250.35,0,255,0,170,0,85,0,0c151.33,0,302.67,0,454,0Z"/><path class="cls-1" d="m0,257c13.62,13.12,27.27,26.21,40.86,39.37,13.25,12.84,26.44,25.75,39.66,38.61,11.79,11.47,23.59,22.94,35.39,34.41,11.44,11.12,22.8,22.31,34.4,33.26,1.58,1.49,4.3,2.46,6.5,2.48,18.16.2,36.33.16,54.49.06,2.68-.01,4.3.54,5.73,3.16,6.81,12.52,14.91,24.44,20.64,37.41,4.64,10.52,11.89,14.82,22.37,17.35,45.37,10.99,90.6,22.51,135.87,33.92,18.25,4.6,36.44,9.41,54.65,14.15.2.05.3.52.45.79H0C0,427,0,342,0,257Z"/><path class="cls-1" d="m454,512c3.65-12.99,7.36-25.96,10.94-38.97,5.62-20.44,11.19-40.9,16.72-61.36,8.14-30.12,15.68-60.42,24.67-90.29,2.92-9.7,1.25-16.72-3.77-24.76-7.6-12.18-14.17-25-21-37.65-.77-1.43-1.16-3.92-.44-5.16,9.4-16.08,19.03-32.03,28.66-47.97.47-.78,1.46-1.23,2.21-1.84v308h-58Z"/><path class="cls-1" d="m512,201c-3.31-11.14-6.8-22.23-9.9-33.43-6.16-22.28-12.05-44.64-18.15-66.94-6.23-22.75-12.57-45.46-18.88-68.19C462.06,21.62,459.02,10.81,456,0c18.67,0,37.33,0,56,0v201Z"/><path class="cls-1" d="m424.43,103.1c6.09,20.89,12.05,41.39,18.03,61.89,8.66,29.67,17.45,59.3,25.8,89.05.86,3.05-.45,6.93-1.42,10.23-10.11,34.38-20.4,68.7-30.53,103.07-4.03,13.68-7.78,27.45-11.96,42.29-4.04-6.75-7.66-12.81-11.29-18.86-18.18-30.26-36.41-60.49-54.54-90.77-8.25-13.77-16.39-27.61-24.37-41.54-.75-1.31-.57-3.87.23-5.22,19.36-32.62,38.89-65.13,58.33-97.71,9.86-16.53,19.58-33.15,29.39-49.71.56-.94,1.45-1.69,2.34-2.7Z"/><path class="cls-1" d="m380.13,76.8c-8.87,15.02-17.7,30.07-26.63,45.07-17.82,29.93-35.69,59.83-53.57,89.72-1.74,2.91-4.44,5.47-5.39,8.59-2.34,7.64-7.57,8.17-14.43,8.14-56.14-.24-112.28-.14-168.43-.14-1.83,0-3.65,0-7.1,0,2.58-2.21,4.21-3.48,5.68-4.91,12.04-11.68,24.05-23.39,36.06-35.1,14.75-14.39,29.47-28.82,44.25-43.19,6.54-6.35,13.86-12.04,19.63-19.02,7.23-8.74,16.5-12.5,26.97-15.02,18.16-4.36,36.2-9.22,54.32-13.73,24.7-6.14,49.42-12.15,74.14-18.23,4.65-1.15,9.29-2.37,13.93-3.55.19.46.38.91.57,1.37Z"/><path class="cls-1" d="m107.13,281.95c2.45-.13,4.02-.28,5.59-.28,57.47-.01,114.93.04,172.4-.12,3.95-.01,5.85,1.57,7.68,4.64,17.79,29.95,35.71,59.82,53.54,89.75,11.1,18.63,22.11,37.31,33.16,55.98.24.4.34.88.99,2.65-6.5-1.34-12.24-2.31-17.88-3.73-34.17-8.57-68.31-17.23-102.45-25.88-11.71-2.97-23.43-5.88-35.07-9.09-2.35-.65-4.71-2.19-6.48-3.92-12.25-12.01-24.28-24.24-36.49-36.29-19.65-19.39-39.35-38.72-59.08-58.03-4.13-4.05-8.5-7.85-12.71-11.83-1-.95-1.78-2.14-3.19-3.87Z"/></svg>